<?xml version="1.0" standalone="no"?>
<!DOCTYPE svg PUBLIC "-//W3C//DTD SVG 20010904//EN"
 "http://www.w3.org/TR/2001/REC-SVG-20010904/DTD/svg10.dtd">
<svg version="1.0" xmlns="http://www.w3.org/2000/svg"
 width="1880.000000pt" height="911.000000pt" viewBox="0 0 1880.000000 911.000000"
 preserveAspectRatio="xMidYMid meet">

<g transform="translate(0.000000,911.000000) scale(0.100000,-0.100000)"
fill="#000000" stroke="none">
<path d="M0 4555 l0 -4555 9400 0 9400 0 0 4555 0 4555 -9400 0 -9400 0 0
-4555z m16185 4410 c25 -24 25 -26 25 -210 0 -184 0 -186 -25 -210 l-24 -25
-401 0 -401 0 -24 25 c-25 24 -25 26 -25 210 0 184 0 186 25 210 l24 25 401 0
401 0 24 -25z m960 6 c39 -8 38 -9 -21 -10 -47 -1 -61 -4 -61 -16 0 -8 9 -15
20 -15 13 0 17 -5 13 -16 -3 -8 -1 -25 5 -36 8 -15 8 -19 0 -14 -18 11 -13 -5
7 -21 16 -13 16 -13 -3 -5 -11 5 -27 7 -35 5 -12 -4 -12 -3 -1 5 9 7 10 12 2
16 -6 4 -11 3 -11 -3 0 -6 -7 -8 -15 -5 -8 4 -15 1 -15 -6 0 -6 5 -8 10 -5 6
3 10 1 10 -4 0 -6 7 -11 16 -11 8 0 13 -4 10 -9 -3 -5 1 -12 10 -15 23 -9 36
-7 29 4 -3 6 -2 10 4 10 5 0 12 -6 15 -12 3 -7 3 -1 0 15 -5 20 -2 27 9 27 9
0 19 -4 22 -10 3 -6 -1 -7 -9 -4 -19 7 -20 -5 -2 -29 10 -13 19 -15 37 -8 27
10 69 -2 69 -20 0 -7 8 -5 20 6 13 12 34 17 65 17 25 -1 45 3 45 8 0 6 7 10
15 10 8 0 15 -4 15 -10 0 -5 7 -10 15 -10 8 0 15 -4 15 -10 0 -5 -7 -10 -15
-10 -10 0 -15 -10 -15 -30 0 -20 5 -30 15 -30 8 0 15 -5 15 -11 0 -6 -12 -9
-27 -7 -24 3 -29 9 -34 43 l-6 40 -2 -42 c-1 -34 -5 -43 -18 -43 -10 0 -28 -3
-40 -6 -16 -4 -29 2 -48 22 -14 15 -28 24 -32 21 -3 -4 -1 -7 5 -7 21 0 13
-26 -12 -38 -17 -8 -27 -7 -36 1 -10 9 -11 9 -5 -2 5 -9 4 -12 -3 -7 -6 3 -18
-4 -26 -16 -9 -12 -16 -17 -16 -11 0 6 6 16 14 22 11 9 12 18 3 41 -6 17 -15
30 -20 30 -5 0 -4 8 4 18 12 15 11 15 -7 -1 -15 -14 -16 -19 -5 -26 9 -6 10
-11 2 -15 -6 -4 -9 -12 -6 -17 4 -5 1 -9 -6 -9 -6 0 -18 -8 -25 -17 -13 -16
-14 -15 -10 10 3 16 1 25 -5 22 -5 -4 -6 -11 -3 -17 5 -7 1 -9 -9 -5 -10 3
-17 2 -17 -3 0 -6 5 -10 11 -10 5 0 7 -5 4 -11 -5 -7 -13 -5 -25 6 -17 15 -16
12 3 -29 12 -25 28 -46 35 -46 6 0 12 -7 12 -15 0 -9 -6 -12 -16 -8 -12 4 -15
1 -12 -13 2 -14 14 -19 48 -22 91 -6 61 -10 -87 -11 -163 -1 -194 6 -212 46
-7 14 -11 87 -11 181 0 217 3 221 185 221 61 0 128 -4 150 -8z m-16681 -106
c20 -8 36 -17 36 -20 0 -3 -42 -5 -92 -4 l-93 1 40 19 c49 23 63 23 109 4z
m516 -20 c0 -8 -7 -15 -15 -15 -8 0 -15 7 -15 15 0 8 7 15 15 15 8 0 15 -7 15
-15z m540 -80 c0 -78 -3 -95 -15 -95 -12 0 -15 17 -15 95 0 78 3 95 15 95 12
0 15 -17 15 -95z m-692 12 c13 -37 26 -66 28 -65 2 2 13 32 26 68 13 35 29 65
36 68 19 6 14 -26 -17 -103 -40 -97 -56 -95 -97 12 -18 45 -29 84 -26 88 13
13 26 -5 50 -68z m820 57 c27 -19 30 -69 5 -83 -15 -8 -16 -12 -3 -38 8 -15
16 -31 18 -35 2 -5 -3 -8 -11 -8 -9 0 -25 16 -37 35 -12 19 -26 35 -31 35 -5
0 -9 -16 -9 -35 0 -24 -5 -35 -15 -35 -12 0 -15 17 -15 90 l0 90 38 0 c21 0
48 -7 60 -16z m-518 -9 c0 -8 7 -15 15 -15 8 0 15 -4 15 -10 0 -5 -7 -10 -15
-10 -11 0 -15 -12 -15 -50 0 -38 4 -50 15 -50 8 0 15 -5 15 -11 0 -6 -12 -9
-27 -7 -26 3 -28 7 -33 58 -5 52 -6 55 -30 51 -32 -4 -40 -17 -40 -68 0 -32
-4 -43 -15 -43 -12 0 -15 14 -15 70 0 67 1 71 23 69 49 -4 77 1 77 16 0 8 7
15 15 15 8 0 15 -7 15 -15z m7031 -9 c-9 -11 -8 -15 4 -20 10 -4 15 1 15 14 0
11 7 20 15 20 12 0 15 -14 15 -65 0 -51 -3 -65 -15 -65 -11 0 -15 11 -15 40 0
29 -4 40 -15 40 -11 0 -15 -11 -15 -40 0 -22 -4 -40 -10 -40 -5 0 -10 18 -10
39 0 48 -11 57 -35 31 -18 -20 -18 -21 5 -45 27 -28 8 -35 -22 -8 -17 15 -18
15 -18 0 0 -10 -4 -17 -10 -17 -6 0 -10 28 -10 65 0 37 4 65 10 65 6 0 10 -14
10 -32 0 -29 1 -30 18 -15 10 10 24 17 30 17 7 0 21 9 33 21 22 22 39 19 20
-5z m1114 4 c-3 -5 -10 -10 -16 -10 -5 0 -9 5 -9 10 0 6 7 10 16 10 8 0 12 -4
9 -10z m145 0 c0 -5 -4 -10 -10 -10 -5 0 -10 5 -10 10 0 6 5 10 10 10 6 0 10
-4 10 -10z m1235 0 c-3 -5 -10 -10 -16 -10 -5 0 -9 5 -9 10 0 6 7 10 16 10 8
0 12 -4 9 -10z m445 0 c0 -5 -4 -10 -10 -10 -5 0 -10 5 -10 10 0 6 5 10 10 10
6 0 10 -4 10 -10z m160 -55 c0 -37 -4 -65 -10 -65 -6 0 -10 28 -10 65 0 37 4
65 10 65 6 0 10 -28 10 -65z m-4872 48 c-34 -5 -41 -43 -8 -43 11 0 20 -4 20
-10 0 -5 -9 -10 -20 -10 -15 0 -20 -7 -20 -25 0 -16 -6 -25 -15 -25 -12 0 -15
13 -15 60 l0 60 43 -1 c29 -2 34 -3 15 -6z m300 -10 c12 -12 13 -18 4 -21 -14
-4 -17 -62 -2 -62 6 0 10 -5 10 -11 0 -6 -10 -9 -22 -7 -19 2 -24 11 -29 48
-9 69 5 88 39 53z m1028 -29 l11 -39 12 43 c14 49 36 55 46 12 9 -43 22 -45
29 -5 4 20 13 35 21 35 12 0 12 -8 -1 -52 -25 -84 -43 -89 -62 -18 l-9 35 -12
-42 c-6 -24 -18 -43 -25 -43 -7 0 -18 19 -25 43 -7 23 -15 50 -18 61 -3 12 -1
17 8 14 8 -3 19 -22 25 -44z m1452 13 c3 -23 -1 -28 -27 -33 -24 -5 -31 -12
-31 -30 0 -15 -6 -24 -15 -24 -12 0 -15 13 -15 61 l0 60 43 -3 c38 -3 42 -6
45 -31z m1175 26 c-21 -4 -23 -10 -23 -59 0 -30 -4 -54 -10 -54 -5 0 -10 24
-10 54 0 44 -4 55 -17 59 -10 3 5 5 32 4 28 0 40 -2 28 -4z m265 -10 c12 -12
13 -18 4 -21 -14 -4 -17 -62 -2 -62 6 0 10 -5 10 -11 0 -6 -10 -9 -22 -7 -19
2 -24 11 -29 48 -9 69 5 88 39 53z m7990 0 c12 -12 13 -18 4 -21 -14 -4 -17
-62 -2 -62 6 0 10 -5 10 -11 0 -6 -10 -9 -22 -7 -19 2 -24 11 -29 48 -9 69 5
88 39 53z m-17618 -63 c0 -56 -3 -70 -15 -70 -12 0 -15 14 -15 70 0 56 3 70
15 70 12 0 15 -14 15 -70z m220 27 c0 -50 18 -81 46 -75 16 3 20 13 22 61 2
42 7 57 17 57 12 0 15 -16 15 -70 l0 -70 -49 0 c-40 0 -53 4 -65 22 -21 30
-22 118 -1 118 11 0 15 -11 15 -43z m270 -27 l0 -66 -60 -2 c-51 -1 -61 1 -75
20 -21 31 -19 74 5 98 15 15 32 19 75 18 l55 -2 0 -66z m5028 48 c7 -7 12 -20
12 -30 0 -14 -8 -18 -35 -18 -19 0 -35 -4 -35 -9 0 -15 23 -19 43 -9 23 12 37
1 17 -12 -34 -22 -90 0 -90 33 0 43 60 73 88 45z m132 -40 l0 -48 -37 0 c-21
0 -43 4 -49 8 -20 14 -25 45 -9 68 12 18 23 23 55 21 l40 -1 0 -48z m100 18
c0 -39 20 -62 38 -44 7 7 12 27 12 45 0 18 5 33 10 33 6 0 10 -23 10 -51 l0
-50 -42 3 -43 3 -3 48 c-2 28 1 47 7 47 6 0 11 -15 11 -34z m150 25 c0 -5 -7
-11 -15 -15 -9 -3 -15 -19 -15 -41 0 -24 -4 -35 -15 -35 -11 0 -15 12 -15 50
0 49 1 50 30 50 17 0 30 -4 30 -9z m88 -3 c7 -7 12 -20 12 -30 0 -14 -8 -18
-35 -18 -19 0 -35 -4 -35 -9 0 -13 28 -22 35 -11 4 6 13 10 22 10 13 0 13 -3
3 -16 -8 -9 -25 -14 -44 -12 -41 4 -59 47 -31 78 20 22 55 26 73 8z m86 6 c26
-10 18 -25 -9 -18 -15 4 -25 2 -25 -5 0 -6 11 -14 26 -17 18 -5 24 -12 22 -28
-4 -26 -49 -34 -68 -12 -10 13 -10 16 2 16 8 0 19 -5 25 -11 8 -8 13 -8 18 0
3 6 -2 14 -12 18 -35 12 -43 24 -32 44 10 20 26 23 53 13z m891 -14 c15 -16
17 -26 9 -48 -10 -29 -31 -37 -69 -28 -31 8 -41 41 -21 71 20 31 56 32 81 5z
m75 13 c0 -2 -7 -11 -15 -19 -8 -9 -15 -29 -15 -45 0 -16 -4 -29 -10 -29 -5 0
-10 22 -10 49 0 45 2 49 25 49 14 0 25 -3 25 -5z m296 -18 c20 -30 10 -63 -21
-71 -38 -9 -59 -1 -69 28 -20 57 57 93 90 43z m38 13 c16 -52 18 -54 28 -20 5
17 13 32 18 32 6 0 16 -15 23 -32 l14 -33 7 33 c4 17 12 32 17 32 12 0 11 -15
-3 -61 -13 -46 -32 -50 -46 -11 l-10 27 -11 -27 c-18 -48 -36 -33 -55 45 -6
27 11 41 18 15z m886 2 c0 -4 -7 -10 -15 -14 -9 -3 -15 -19 -15 -41 0 -24 -4
-35 -15 -35 -11 0 -15 11 -15 43 0 24 2 46 5 49 9 8 55 6 55 -2z m30 -40 c0
-27 -4 -50 -10 -50 -5 0 -10 23 -10 50 0 28 5 50 10 50 6 0 10 -22 10 -50z
m94 44 c17 -7 22 -34 6 -34 -5 0 -10 5 -10 11 0 18 -45 5 -48 -14 -6 -29 16
-49 40 -36 22 12 34 6 23 -10 -9 -15 -58 -14 -73 1 -18 18 -15 65 6 77 20 12
34 13 56 5z m56 -44 c0 -27 -4 -50 -10 -50 -5 0 -10 23 -10 50 0 28 5 50 10
50 6 0 10 -22 10 -50z m104 34 c21 -20 22 -84 1 -84 -11 0 -15 11 -15 40 0 33
-3 40 -20 40 -17 0 -20 -7 -20 -40 0 -29 -4 -40 -15 -40 -11 0 -15 12 -15 50
l0 50 34 0 c19 0 42 -7 50 -16z m126 -50 c0 -54 -3 -65 -21 -74 -11 -7 -31 -9
-44 -6 -26 7 -42 36 -20 36 8 0 15 -5 15 -11 0 -17 44 -6 48 12 2 13 -3 15
-23 12 -33 -7 -55 12 -55 48 0 33 22 48 68 47 l32 -1 0 -63z m798 54 c7 -7 12
-20 12 -30 0 -14 -8 -18 -35 -18 -19 0 -35 -4 -35 -9 0 -13 28 -22 35 -11 4 6
13 10 22 10 13 0 13 -3 3 -16 -8 -9 -25 -14 -44 -12 -41 4 -59 47 -31 78 20
22 55 26 73 8z m93 -5 c13 -15 11 -16 -13 -9 -35 8 -36 -7 -2 -23 34 -15 28
-45 -10 -49 -16 -2 -33 1 -39 7 -16 16 -1 24 22 12 13 -7 22 -8 26 -1 3 6 -5
14 -18 19 -33 13 -42 28 -27 46 16 20 44 19 61 -2z m109 -33 c0 -27 -4 -50
-10 -50 -5 0 -10 23 -10 50 0 28 5 50 10 50 6 0 10 -22 10 -50z m175 38 c4 -4
9 -25 12 -47 5 -33 3 -41 -10 -41 -11 0 -17 11 -19 37 -2 27 -8 39 -20 41 -15
3 -18 -4 -18 -37 0 -30 -4 -41 -15 -41 -11 0 -15 11 -15 40 0 33 -3 40 -20 40
-17 0 -20 -7 -20 -40 0 -29 -4 -40 -15 -40 -11 0 -15 12 -15 50 l0 50 75 -3
c41 -2 77 -6 80 -9z m109 -4 c19 -18 21 -55 4 -72 -7 -7 -24 -12 -38 -12 -33
0 -50 17 -50 52 0 43 53 64 84 32z m116 -3 c16 -30 13 -81 -5 -81 -11 0 -15
11 -15 41 0 33 -3 40 -17 37 -13 -2 -19 -14 -21 -41 -5 -55 -32 -50 -32 6 0
52 4 57 46 57 23 0 37 -6 44 -19z m50 -31 c0 -27 -4 -50 -10 -50 -5 0 -10 23
-10 50 0 28 5 50 10 50 6 0 10 -22 10 -50z m120 -2 l0 -48 -45 0 c-40 0 -47 3
-56 26 -16 43 10 73 61 71 l40 -1 0 -48z m131 36 c12 -15 10 -16 -21 -10 -30
6 -33 5 -18 -6 9 -7 24 -18 34 -24 27 -16 11 -44 -25 -44 -16 0 -33 5 -36 11
-11 17 3 23 20 9 12 -10 19 -10 27 -2 8 8 4 14 -16 21 -31 13 -45 39 -25 52
22 13 45 11 60 -7z m6199 -3 c17 -33 11 -41 -31 -41 -26 0 -38 -4 -34 -11 4
-6 19 -7 36 -4 36 8 39 -11 4 -27 -50 -23 -102 51 -63 90 20 20 76 15 88 -7z
m170 -30 c0 -48 0 -48 -36 -54 -65 -11 -101 30 -70 78 13 20 25 25 61 25 l45
0 0 -49z m100 30 c16 -30 13 -81 -5 -81 -10 0 -15 10 -15 28 0 15 -4 33 -9 41
-14 22 -31 3 -31 -35 0 -24 -5 -34 -15 -34 -11 0 -15 12 -15 50 l0 50 40 0
c29 0 42 -5 50 -19z m170 -30 c0 -47 -1 -49 -32 -54 -42 -6 -78 16 -78 48 0
35 26 55 71 55 l39 0 0 -49z m98 37 c7 -7 12 -16 12 -20 0 -13 -28 -9 -32 4
-7 21 -40 0 -36 -24 2 -19 8 -23 36 -20 38 3 42 -14 7 -30 -34 -15 -75 12 -75
50 0 35 16 52 50 52 14 0 31 -5 38 -12z m112 -3 c11 -13 14 -13 27 0 8 8 27
15 43 15 55 0 68 -74 17 -98 -24 -12 -31 -11 -53 2 -22 15 -26 15 -48 1 -23
-16 -54 -11 -68 9 -12 17 -9 61 4 74 17 17 63 15 78 -3z m160 -25 c0 -33 3
-40 20 -40 17 0 20 7 20 40 0 29 4 40 15 40 11 0 15 -12 15 -50 0 -48 -1 -50
-27 -51 -63 -3 -73 6 -73 64 0 26 4 37 15 37 11 0 15 -11 15 -40z m168 28 c18
-18 16 -88 -2 -88 -10 0 -16 13 -18 38 -2 25 -8 37 -18 37 -10 0 -16 -12 -18
-37 -2 -25 -8 -38 -18 -38 -10 0 -14 13 -14 50 l0 50 38 0 c21 0 43 -5 50 -12z
m-18096 -4 c28 -5 36 -11 35 -25 -1 -11 -5 -19 -10 -19 -5 0 -4 -7 3 -15 11
-13 -1 -15 -97 -15 -108 0 -110 0 -121 25 -24 51 -19 55 71 55 45 0 99 -3 119
-6z m16725 -89 c-4 -8 -11 -15 -17 -15 -6 0 -6 7 2 20 14 22 24 19 15 -5z
m-16707 -41 c0 -14 -11 -16 -80 -12 -120 7 -129 28 -12 28 78 0 92 -2 92 -16z
m16682 9 c-10 -4 -10 -8 0 -21 7 -10 9 -14 4 -10 -5 4 -18 3 -29 -3 -14 -8
-18 -8 -13 0 4 6 0 11 -8 11 -9 0 -16 5 -16 10 0 6 7 10 15 10 8 0 15 -4 15
-10 0 -5 4 -10 10 -10 5 0 7 7 4 15 -4 10 0 15 12 14 12 0 14 -3 6 -6z
m-12054 -929 c41 -28 18 -104 -31 -104 -53 0 -77 75 -35 104 12 9 27 16 33 16
6 0 21 -7 33 -16z m4490 0 c41 -28 18 -104 -31 -104 -53 0 -77 75 -35 104 12
9 27 16 33 16 6 0 21 -7 33 -16z m4042 -24 c0 -23 -5 -30 -19 -30 -11 0 -23 5
-26 10 -3 6 -14 9 -23 9 -14 -1 -13 -2 2 -6 19 -5 18 -6 -4 -23 -18 -13 -24
-30 -28 -71 l-4 -54 49 3 c50 4 50 4 51 -28 l1 -32 -50 4 -49 3 0 -217 0 -218
-35 0 -35 0 0 215 0 215 -28 0 c-25 0 -29 4 -30 30 -1 27 3 30 29 30 27 0 29
3 29 35 0 44 26 109 40 100 6 -3 7 0 4 10 -8 19 45 44 94 45 29 0 32 -3 32
-30z m-6340 -315 l0 -335 -45 0 -45 0 0 328 c0 181 3 332 7 335 3 4 24 7 45 7
l38 0 0 -335z m1080 208 l0 -127 20 22 c42 44 98 64 169 60 82 -5 135 -30 172
-82 122 -167 32 -406 -158 -423 -72 -7 -122 8 -169 49 l-34 30 0 -36 0 -36
-45 0 -45 0 0 335 0 335 45 0 45 0 0 -127z m1470 -208 l0 -335 -45 0 -45 0 0
328 c0 181 3 332 7 335 3 4 24 7 45 7 l38 0 0 -335z m630 0 l0 -335 -45 0 -45
0 0 37 0 37 -27 -27 c-111 -105 -300 -61 -363 85 -25 59 -30 161 -10 213 59
157 258 207 383 97 16 -14 17 -9 17 106 l0 122 45 0 45 0 0 -335z m2060 0 l0
-335 -45 0 -45 0 0 335 0 335 45 0 45 0 0 -335z m-8000 35 c52 -143 97 -260
100 -260 3 0 47 117 99 260 l94 260 47 0 48 0 -118 -312 -119 -313 -52 0 -53
0 -93 245 c-51 135 -104 275 -117 313 l-26 67 48 0 48 0 94 -260z m3247 232
c57 -30 86 -73 91 -137 7 -91 -31 -160 -105 -192 -18 -7 -33 -15 -33 -18 0 -2
32 -57 71 -122 39 -65 73 -121 76 -125 2 -5 -20 -8 -49 -8 l-53 0 -71 123 -71
122 -46 3 -47 3 0 -125 0 -126 -45 0 -45 0 0 316 0 316 143 -4 c123 -3 148 -6
184 -26z m-2047 -42 l0 -60 65 0 65 0 0 -40 0 -40 -65 0 -65 0 0 -159 c0 -154
1 -160 22 -175 12 -9 42 -16 65 -16 42 0 43 0 43 -35 l0 -35 -65 0 c-137 0
-155 30 -155 260 l0 160 -30 0 c-28 0 -30 2 -30 40 0 38 2 40 30 40 l30 0 0
60 0 60 45 0 45 0 0 -60z m5270 0 l0 -59 63 -3 62 -3 0 -35 0 -35 -62 -3 -63
-3 0 -159 c0 -185 2 -190 81 -190 l49 0 0 -35 0 -35 -67 0 c-77 0 -127 23
-143 66 -6 14 -10 99 -10 189 l0 164 -32 3 c-30 3 -33 6 -33 38 0 32 3 35 33
38 l32 3 0 60 0 59 45 0 45 0 0 -60z m-5890 -310 l0 -250 -45 0 -45 0 0 243
c0 134 3 247 7 250 3 4 24 7 45 7 l38 0 0 -250z m250 216 c5 -27 6 -28 19 -12
21 26 66 46 101 46 28 0 30 -2 30 -39 0 -37 -2 -39 -36 -46 -105 -19 -114 -39
-114 -249 l0 -166 -45 0 -45 0 0 251 0 250 42 -3 c39 -3 43 -6 48 -32z m700
-146 c4 -145 8 -179 23 -201 23 -35 58 -49 117 -49 60 0 104 33 120 88 5 20
10 106 10 190 l0 152 45 0 45 0 0 -250 0 -250 -45 0 c-44 0 -45 1 -46 33 0 17
-3 26 -6 18 -8 -20 -103 -61 -143 -61 -60 0 -113 21 -151 59 -20 20 -42 54
-48 76 -6 22 -11 116 -11 208 l0 168 43 -3 42 -3 5 -175z m808 164 c20 -8 49
-27 65 -41 l27 -27 0 43 0 42 43 -3 42 -3 3 -247 2 -248 -45 0 c-45 0 -45 0
-45 35 l0 36 -37 -29 c-121 -94 -282 -58 -355 79 -32 62 -33 195 -1 255 24 46
72 90 118 110 41 18 138 17 183 -2z m2124 -152 c3 -146 6 -172 24 -202 11 -19
31 -41 45 -47 33 -17 104 -16 139 2 55 28 64 62 68 248 l4 168 42 -3 41 -3 3
-247 2 -248 -45 0 c-44 0 -45 1 -45 32 l0 31 -23 -21 c-77 -73 -214 -66 -289
14 -43 46 -48 74 -48 265 l0 179 39 0 39 0 4 -168z m606 -84 l2 -248 -45 0
-45 0 0 251 0 250 43 -3 42 -3 3 -247z m1954 240 c56 -17 123 -79 145 -136 42
-110 6 -252 -80 -311 -103 -70 -230 -68 -317 7 -53 45 -82 102 -88 178 -15
192 150 319 340 262z m599 1 c53 -16 105 -63 134 -120 32 -62 34 -172 6 -234
-25 -55 -100 -120 -156 -134 -180 -45 -326 66 -325 248 1 106 46 182 132 225
58 29 141 35 209 15z m799 -9 c45 -23 77 -64 82 -106 3 -28 1 -29 -39 -32 -33
-2 -43 0 -43 12 0 8 -11 28 -24 43 -21 25 -31 28 -81 28 -48 0 -60 -4 -76 -24
-10 -13 -19 -30 -19 -38 0 -30 49 -61 135 -88 112 -34 155 -71 155 -134 0 -86
-57 -139 -159 -148 -99 -9 -179 29 -211 101 -10 22 -16 44 -14 48 3 4 23 8 44
8 33 0 41 -4 52 -27 19 -40 73 -65 123 -58 55 8 77 30 73 74 l-3 36 -107 36
c-59 19 -119 46 -132 59 -31 28 -50 82 -42 115 9 34 55 85 91 101 47 21 149
18 195 -6z m1050 13 c0 -5 -11 -9 -25 -9 -14 -1 -22 2 -19 7 6 11 44 12 44 2z
m-73 -20 c-8 -8 -21 -11 -31 -7 -21 8 -3 23 26 21 15 -1 16 -4 5 -14z m123 4
c0 -5 8 -6 17 -3 10 4 14 3 9 -1 -12 -12 -53 -10 -53 2 0 7 6 12 14 12 7 0 13
-5 13 -10z m-63 -13 c-3 -3 -12 -4 -19 -1 -8 3 -5 6 6 6 11 1 17 -2 13 -5z
m-89 -24 c12 -20 12 -21 -13 -4 -23 15 -27 15 -50 0 -14 -9 -25 -12 -25 -7 0
13 30 30 55 31 11 0 26 -9 33 -20z m52 5 c0 -17 -25 -20 -35 -5 -4 6 1 7 11 3
12 -4 15 -3 10 5 -4 7 -2 12 3 12 6 0 11 -7 11 -15z m-69 -22 c11 -15 11 -16
-1 -5 -19 17 -35 15 -21 -2 10 -12 7 -18 -19 -31 -24 -12 -31 -22 -27 -36 3
-12 0 -22 -9 -26 -8 -3 -14 -12 -14 -20 0 -8 5 -11 10 -8 14 9 13 -18 -2 -33
-8 -8 -8 -15 -1 -24 6 -7 13 -30 16 -50 3 -21 18 -54 33 -73 15 -20 21 -35 14
-33 -7 2 -13 -7 -15 -21 -2 -22 -1 -23 12 -6 7 11 13 14 13 7 0 -6 7 -9 16 -5
13 5 13 7 2 14 -7 5 -8 9 -2 9 5 0 19 -7 30 -16 10 -8 13 -13 6 -9 -7 4 -19 1
-27 -5 -8 -6 -20 -8 -27 -4 -8 4 -10 3 -5 -2 5 -5 20 -9 34 -9 15 0 28 -6 31
-14 4 -11 -3 -13 -29 -7 -19 3 -36 11 -37 16 -2 6 -7 8 -11 5 -13 -8 -71 59
-62 73 5 9 12 7 29 -8 12 -11 23 -16 27 -10 3 6 1 10 -5 10 -6 0 -8 5 -4 12 5
8 2 9 -10 5 -11 -5 -15 -3 -10 5 4 7 3 8 -4 4 -8 -4 -10 -2 -6 7 3 8 0 18 -6
22 -6 4 -8 15 -5 25 7 21 -10 36 -21 19 -4 -8 -3 -9 4 -5 7 4 12 3 12 -3 0 -5
-4 -13 -10 -16 -5 -3 -10 -11 -10 -16 0 -6 4 -8 9 -5 15 10 20 -22 5 -34 -8
-7 -15 -10 -15 -6 -3 13 -6 22 -18 51 -20 46 -8 163 20 214 13 22 29 39 34 37
6 -2 19 2 30 10 24 18 30 18 46 -3z m132 10 c-7 -2 -21 -2 -30 0 -10 3 -4 5
12 5 17 0 24 -2 18 -5z m102 -43 c3 -6 -1 -7 -9 -4 -18 7 -21 14 -7 14 6 0 13
-4 16 -10z m19 -286 c3 -8 2 -12 -4 -9 -6 3 -10 10 -10 16 0 14 7 11 14 -7z
m-44 -35 c0 -5 -4 -9 -8 -9 -5 0 -9 7 -9 15 0 8 4 12 9 9 4 -3 8 -9 8 -15z
m54 2 c-8 -8 -43 -8 -38 0 2 4 13 7 24 6 10 -1 17 -3 14 -6z m-118 -18 c-2
-12 -13 -19 -32 -20 l-29 -2 30 9 c17 4 26 8 22 9 -5 0 -5 6 -2 11 9 15 14 12
11 -7z m-36 3 c0 -7 -40 -14 -44 -7 -3 4 6 8 20 9 13 1 24 0 24 -2z m64 -28
c-5 -8 -1 -9 12 -4 14 5 16 4 8 -4 -12 -12 -47 -3 -38 11 3 5 10 9 15 9 6 0 7
-5 3 -12z m-24 -18 c11 -7 1 -9 -32 -8 -27 1 -42 6 -35 10 17 11 49 10 67 -2z
m-6172 -2755 c-3 -4 -51 -11 -100 -14 -5 -1 -8 -35 -8 -77 0 -55 3 -73 12 -68
8 5 9 2 5 -10 -6 -16 -3 -17 20 -12 19 4 23 4 14 -3 -11 -7 -9 -10 8 -16 13
-4 21 -9 18 -11 -2 -2 -20 3 -40 11 -20 8 -40 15 -43 14 -4 0 -11 5 -15 13 -7
10 -9 10 -9 0 0 -7 7 -15 15 -18 8 -4 15 -10 15 -15 0 -6 -8 -5 -19 1 -25 13
-28 13 -28 -5 0 -8 4 -12 9 -9 10 6 11 -9 1 -22 -5 -5 -1 -3 7 6 9 8 20 16 25
17 6 1 17 4 26 8 8 3 32 -6 53 -20 20 -14 35 -21 32 -16 -7 11 11 25 36 26 13
1 15 -2 7 -11 -7 -9 -5 -15 8 -23 17 -10 17 -12 1 -21 -22 -13 -25 -67 -4 -67
8 0 15 3 14 6 -6 63 25 94 85 84 l37 -6 0 -53 c0 -51 -1 -54 -25 -54 -14 0
-25 -5 -25 -10 0 -6 -13 -4 -31 5 -22 12 -34 13 -43 6 -7 -6 -16 -8 -19 -4 -4
3 -14 0 -22 -7 -9 -7 -15 -9 -14 -4 4 21 -2 34 -16 34 -8 0 -15 -5 -15 -11 0
-5 5 -7 12 -3 6 4 8 3 4 -4 -3 -6 -16 -9 -27 -7 -15 3 -19 0 -15 -11 3 -8 2
-13 -3 -9 -5 3 -11 2 -14 -2 -2 -5 -2 -2 0 5 1 8 -3 12 -9 9 -7 -2 -12 -15
-10 -28 3 -23 2 -23 -12 -4 -8 11 -10 22 -5 23 11 4 2 22 -11 22 -12 0 -7 -23
13 -53 11 -17 13 -27 5 -29 -7 -3 -6 -11 3 -26 12 -20 12 -24 -1 -32 -13 -8
-13 -13 -2 -30 15 -24 8 -40 -16 -41 -9 0 6 -6 33 -13 l50 -13 -47 -7 c-26 -5
-81 -7 -123 -4 -61 3 -79 7 -97 26 -23 22 -23 28 -26 278 l-3 255 30 29 29 30
138 0 c75 0 135 -2 132 -5z m3557 -20 l25 -24 0 -261 0 -261 -25 -24 -24 -25
-941 0 -941 0 -24 25 -25 24 0 261 0 261 25 24 24 25 941 0 941 0 24 -25z
m-3099 -196 c3 -6 0 -15 -7 -20 -12 -8 -12 -11 1 -20 11 -8 12 -12 3 -16 -8
-3 -13 -23 -13 -49 0 -37 -3 -44 -19 -44 -36 0 -33 128 3 152 15 11 24 10 32
-3z m317 4 c4 -3 2 -13 -5 -20 -9 -11 -9 -17 3 -25 11 -7 11 -11 2 -15 -8 -3
-13 -23 -13 -49 0 -37 -3 -44 -19 -44 -36 0 -32 126 4 152 13 10 20 10 28 1z
m-463 -28 c0 -8 7 -15 15 -15 8 0 15 -4 15 -10 0 -5 -7 -10 -15 -10 -10 0 -15
-11 -15 -35 0 -24 5 -35 15 -35 8 0 15 -4 15 -10 0 -5 -13 -10 -30 -10 -29 0
-30 2 -30 46 0 41 -2 45 -22 42 -19 -2 -24 -10 -26 -45 -2 -29 -8 -43 -18 -43
-10 0 -14 14 -14 55 0 53 1 55 28 56 15 1 33 1 40 0 6 -1 12 5 12 14 0 8 7 15
15 15 8 0 15 -7 15 -15z m235 -15 c14 -5 30 -20 35 -32 9 -23 9 -22 9 3 1 22
7 28 31 31 35 5 51 -10 26 -24 -10 -6 -16 -22 -16 -48 0 -33 -3 -40 -20 -40
-15 0 -20 7 -21 28 0 26 -1 26 -9 4 -19 -47 -100 -48 -115 -2 -14 43 4 73 52
89 1 1 13 -3 28 -9z m315 -9 c0 -5 -9 -11 -20 -14 -16 -4 -20 -14 -20 -46 0
-30 -4 -41 -15 -41 -11 0 -15 13 -15 54 0 52 1 55 28 58 30 4 42 1 42 -11z
m95 -5 l24 -24 14 21 c9 14 24 20 47 20 39 0 62 -25 56 -63 -2 -14 -5 -28 -5
-33 -2 -12 -47 -26 -69 -20 -11 3 -27 19 -36 36 -13 28 -16 29 -16 10 0 -34
-44 -59 -76 -44 -48 21 -50 84 -3 108 33 17 36 17 64 -11z m-4641 -1611 c-4
-10 -20 -15 -50 -15 -32 0 -44 4 -44 15 0 11 12 15 50 15 40 0 48 -3 44 -15z
m732 -36 c35 -28 70 -58 77 -67 10 -15 107 -106 280 -264 22 -20 45 -34 52
-32 6 3 64 -45 128 -106 97 -92 122 -110 149 -111 29 -1 30 -2 9 -8 -22 -6
-18 -12 68 -91 57 -52 100 -84 112 -83 11 2 16 -2 14 -10 -6 -15 0 -24 55 -71
25 -21 70 -62 100 -91 30 -28 81 -75 113 -104 57 -51 59 -52 75 -33 9 10 22
21 29 23 7 2 -29 46 -78 97 -50 52 -89 96 -86 98 2 2 46 -38 97 -91 62 -63
101 -95 116 -95 27 0 40 -16 46 -58 4 -28 1 -36 -18 -44 -17 -8 -27 -8 -37 0
-8 7 -17 9 -21 5 -10 -10 -86 -11 -92 -1 -3 5 -12 3 -21 -3 -11 -10 -16 -10
-22 0 -7 10 -13 10 -29 2 -11 -6 -28 -9 -36 -6 -9 3 -23 7 -31 10 -14 4 -12
11 7 45 20 35 26 40 51 34 15 -3 27 -2 26 3 0 4 -54 55 -120 113 -66 58 -146
130 -178 160 -204 192 -201 190 -274 192 l-62 1 55 6 54 6 -99 89 c-55 49
-102 92 -105 95 -3 3 -66 60 -140 126 -74 66 -138 123 -141 128 -18 25 -77 57
-105 57 -17 0 -37 7 -44 15 -9 10 -9 15 -1 15 21 0 11 27 -26 63 -53 54 -21
45 53 -14z m438 -25 c56 3 176 8 269 12 l167 6 1 27 1 26 11 -28 c10 -24 16
-28 44 -25 17 1 35 -1 39 -5 4 -4 -11 -7 -34 -7 -22 0 -44 -5 -48 -11 -5 -8
-9 -8 -14 1 -5 9 -46 9 -176 0 -171 -11 -491 -21 -421 -13 20 2 37 7 37 11 0
4 -14 25 -32 47 l-31 40 43 -43 43 -43 101 5z m754 61 c12 -4 22 -11 22 -16 0
-5 3 -8 8 -8 4 1 25 0 47 -1 l40 -2 -48 -10 c-61 -13 -72 -32 -46 -84 10 -21
49 -102 85 -179 36 -77 82 -173 100 -212 l35 -73 56 0 c70 0 66 -9 -5 -11 -56
-2 -60 -5 -37 -35 8 -10 14 -26 14 -34 1 -10 -6 -6 -19 10 -11 14 -20 31 -20
39 0 12 -32 13 -201 8 -123 -4 -206 -11 -214 -17 -10 -8 -20 -8 -36 0 -19 11
-20 13 -6 28 14 13 21 13 43 3 38 -17 64 -6 64 29 0 16 -6 30 -12 33 -21 6 10
37 36 35 11 -1 30 2 42 5 25 9 41 -7 46 -43 5 -36 22 -31 26 7 4 37 16 42 92
40 42 -2 44 -4 52 -37 4 -19 5 -41 3 -47 -3 -9 6 -13 25 -13 32 0 32 4 -3 75
-8 17 -54 115 -103 219 -108 232 -118 245 -187 248 -51 1 -51 2 -10 5 41 4 72
30 56 47 -7 7 17 3 55 -9z m-4364 -2 c-5 -5 -12 -12 -16 -18 -4 -6 -8 -2 -8 8
0 9 7 17 17 17 9 0 12 -3 7 -7z m4961 -5 c8 -27 14 -192 5 -168 -4 14 -8 44
-9 68 -1 47 -8 53 -71 55 -34 2 -40 5 -38 22 2 15 13 22 43 26 64 10 65 10 70
-3z m-319 -17 c-3 -5 -15 -7 -26 -4 -28 7 -25 13 6 13 14 0 23 -4 20 -9z
m5998 -26 c36 -33 35 -93 -1 -166 -34 -65 -68 -83 -111 -57 -20 12 -28 26 -30
53 -7 80 51 195 98 195 9 0 29 -11 44 -25z m-8801 -5 c21 0 23 -26 1 -34 -9
-3 -29 -6 -45 -6 -21 0 -29 5 -29 18 0 26 11 34 35 28 11 -3 28 -6 38 -6z
m1203 -12 c3 -10 10 -18 15 -18 5 0 9 -4 9 -10 0 -14 -104 -12 -118 2 -21 21
-13 37 21 40 55 7 67 4 73 -14z m347 -15 c-13 -2 -33 -2 -45 0 -13 2 -3 4 22
4 25 0 35 -2 23 -4z m-2093 -17 c0 -16 -70 -30 -83 -17 -17 17 4 31 44 31 26
0 39 -4 39 -14z m1016 -37 c10 -17 -24 -9 -47 11 l-24 20 33 -11 c17 -6 35
-15 38 -20z m1924 -9 c0 -15 -7 -20 -25 -20 -18 0 -25 5 -25 20 0 15 7 20 25
20 18 0 25 -5 25 -20z m60 16 c0 -18 -15 -36 -31 -36 -12 0 -19 7 -19 20 0 15
7 20 25 20 14 0 25 -2 25 -4z m-3090 -51 c0 -8 -9 -15 -20 -15 -11 0 -20 7
-20 15 0 8 9 15 20 15 11 0 20 -7 20 -15z m5110 -10 c20 -24 -1 -37 -56 -33
-60 4 -69 29 -14 39 55 10 57 10 70 -6z m-1651 -88 c11 -31 17 -57 13 -57 -7
0 -52 108 -52 125 0 21 21 -15 39 -68z m2398 65 c9 -6 3 -18 -22 -42 -19 -19
-35 -29 -35 -22 0 7 5 12 10 12 6 0 10 5 10 10 0 6 -20 10 -44 10 -45 0 -63
11 -51 30 7 12 114 13 132 2z m6183 -11 c424 -31 577 -45 710 -67 212 -34 217
-44 175 -332 -43 -293 -80 -448 -147 -625 -25 -64 -33 -77 -39 -62 -7 19 -8
19 -8 1 -1 -11 -6 -16 -14 -13 -8 3 -14 -3 -14 -16 -1 -11 -6 -23 -10 -26 -13
-10 -49 -64 -72 -108 -22 -44 -38 -59 -49 -48 -4 4 2 13 12 21 11 8 16 14 11
14 -4 0 -1 8 7 18 47 55 96 193 162 457 20 82 46 285 46 365 0 148 -63 240
-199 291 -71 26 -120 35 -311 54 -192 19 -871 65 -961 65 -36 0 -88 3 -115 8
l-49 7 65 5 c107 9 634 3 800 -9z m-9193 -33 c-3 -8 -6 -5 -6 6 -1 11 2 17 5
13 3 -3 4 -12 1 -19z m-1012 -9 c10 -15 5 -17 -47 -24 -45 -6 -66 4 -53 25 8
13 92 13 100 -1z m2419 -59 c-3 -25 -10 -54 -14 -65 -5 -11 -11 -42 -14 -70
-2 -27 -8 -65 -11 -82 l-7 -33 -102 0 c-55 0 -125 -3 -153 -6 l-53 -7 -2 -51
-2 -51 -3 53 -4 53 -115 -2 c-63 0 -118 2 -121 5 -4 3 46 6 111 6 112 0 117 1
126 23 7 17 9 18 9 4 1 -16 13 -17 144 -15 l142 3 10 80 c6 44 14 87 17 95 4
8 12 42 18 74 14 69 32 58 24 -14z m5795 35 c34 -34 10 -154 -41 -205 -37 -37
-63 -38 -95 -3 -23 24 -24 31 -18 82 7 57 25 102 54 134 19 22 75 17 100 -8z
m-4893 -15 c28 0 38 -6 54 -32 25 -42 26 -41 -10 -81 -34 -40 -72 -55 -68 -29
2 12 -4 17 -22 16 -14 -1 -28 3 -32 9 -13 21 -57 -15 -119 -100 -34 -46 -64
-81 -67 -78 -3 3 2 13 11 23 10 10 17 24 17 30 0 7 4 12 8 12 7 0 66 99 60
101 -21 6 -47 10 -61 10 -22 0 -51 61 -42 90 5 14 16 19 40 19 19 0 37 5 40
10 7 11 45 -5 56 -22 4 -6 26 4 50 22 35 25 45 28 47 16 2 -11 15 -16 38 -16z
m-3918 -17 c2 -9 -11 -13 -47 -13 -48 0 -61 7 -44 24 12 11 86 2 91 -11z
m10572 -3 c273 -14 544 -38 617 -55 128 -30 189 -69 230 -148 23 -45 27 -63
26 -142 0 -107 -37 -283 -95 -460 -51 -153 -79 -206 -152 -278 -100 -101 -204
-134 -375 -117 -150 14 -552 85 -765 135 -129 30 -230 98 -272 181 -15 32 -19
60 -18 154 0 124 11 180 70 362 61 187 144 290 269 337 111 42 173 46 465 31z
m-5395 -20 c-3 -5 -12 -10 -18 -10 -7 0 -6 4 3 10 19 12 23 12 15 0z m-3568
-32 c-3 -7 -5 -2 -5 12 0 14 2 19 5 13 2 -7 2 -19 0 -25z m1054 -36 c-9 -25
-9 -24 -10 18 0 36 2 41 10 27 7 -12 7 -27 0 -45z m2419 4 c0 -2 -7 -7 -16
-10 -8 -3 -12 -2 -9 4 6 10 25 14 25 6z m-1910 -41 c0 -19 -6 -24 -38 -27 -53
-5 -72 1 -72 21 0 25 2 26 59 27 46 1 51 -1 51 -21z m-2188 -86 c258 -192 298
-223 298 -231 0 -10 -60 33 -201 141 -46 36 -117 89 -156 119 -68 50 -80 62
-68 62 2 0 60 -41 127 -91z m1675 54 c-3 -10 -5 -4 -5 12 0 17 2 24 5 18 2 -7
2 -21 0 -30z m1927 21 c23 -9 20 -31 -5 -37 -31 -8 -89 4 -89 19 0 7 15 14 38
17 20 2 38 4 39 5 1 1 8 -1 17 -4z m-240 -50 c25 -9 19 -24 -9 -24 -24 0 -32
10 -18 23 8 8 8 8 27 1z m-6797 -36 c-3 -7 -5 -2 -5 12 0 14 2 19 5 13 2 -7 2
-19 0 -25z m1311 15 c2 -9 -9 -13 -37 -13 -39 0 -57 10 -44 24 12 11 76 2 81
-11z m501 -19 c14 -12 -19 -1 -35 12 -18 14 -18 14 6 3 14 -6 27 -13 29 -15z
m4026 16 c3 -5 23 -11 43 -12 l37 -1 -35 -4 c-19 -3 -42 -11 -50 -18 -13 -11
-18 -11 -35 1 -20 15 -20 15 -1 30 23 17 33 18 41 4z m3933 -32 c6 -20 5 -41
-1 -53 -39 -79 -97 -70 -97 16 0 41 25 69 61 69 24 0 30 -6 37 -32z m-3795 15
c-7 -2 -21 -2 -30 0 -10 3 -4 5 12 5 17 0 24 -2 18 -5z m77 -5 c-5 -7 -19 -24
-30 -38 l-20 -25 15 30 c14 29 14 30 -8 37 -17 4 -13 6 16 7 29 1 35 -2 27
-11z m-383 -4 c-3 -3 -12 -4 -19 -1 -8 3 -5 6 6 6 11 1 17 -2 13 -5z m-3777
-19 c14 -8 21 -14 15 -14 -5 0 -21 6 -35 14 -14 8 -20 14 -15 14 6 0 21 -6 35
-14z m-1893 -27 c-3 -7 -5 -2 -5 12 0 14 2 19 5 13 2 -7 2 -19 0 -25z m4081 1
c15 -1 15 -2 -1 -6 -12 -3 -16 -12 -13 -29 3 -13 1 -24 -4 -24 -10 0 -17 48
-11 75 4 17 5 18 9 3 2 -10 11 -19 20 -19z m700 14 c-10 -2 -26 -2 -35 0 -10
3 -2 5 17 5 19 0 27 -2 18 -5z m-1183 -33 c3 -5 1 -10 -4 -10 -6 0 -11 5 -11
10 0 6 2 10 4 10 3 0 8 -4 11 -10z m2491 -31 c1 -20 -2 -26 -7 -17 -11 16 -12
48 -1 48 4 0 7 -14 8 -31z m964 10 c0 -18 -6 -20 -57 -17 -32 2 -58 8 -60 15
-5 13 15 19 75 21 36 1 42 -2 42 -19z m1114 -14 c17 -25 14 -85 -4 -110 -4 -5
-13 -28 -20 -50 -27 -90 -74 -210 -86 -222 -20 -20 -43 -15 -56 12 -9 20 -5
42 22 127 23 70 34 123 35 166 0 55 4 67 24 83 32 26 65 24 85 -6z m-5743 -2
c14 -15 14 -48 0 -81 -12 -29 -12 -35 0 -44 11 -8 9 -8 -5 -4 -56 19 -116 27
-153 21 -23 -3 -51 -2 -61 4 -13 7 -22 7 -30 -1 -12 -12 -37 26 -26 43 8 14
-25 49 -47 49 -10 0 -20 3 -22 8 -3 4 35 8 83 10 93 2 126 -10 114 -43 -4 -8
-1 -15 5 -15 6 0 11 9 11 19 0 43 9 48 67 45 31 -2 60 -7 64 -11z m1809 -3 c0
-13 -7 -20 -20 -20 -22 0 -23 1 -14 24 9 23 34 20 34 -4z m60 0 c0 -21 -8 -24
-34 -14 -20 8 -9 34 15 34 12 0 19 -7 19 -20z m-2420 0 c0 -29 -15 -40 -51
-40 -31 0 -39 4 -39 18 0 10 2 21 5 24 10 9 85 7 85 -2z m-572 -38 c-4 -22
-53 -28 -61 -8 -4 9 1 22 9 31 19 19 57 2 52 -23z m174 6 c-9 -9 -15 -9 -24 0
-9 9 -7 12 12 12 19 0 21 -3 12 -12z m3476 -11 c3 -14 -5 -17 -42 -17 -25 0
-49 0 -53 -1 -5 0 -9 7 -11 15 -2 11 4 16 22 16 14 0 26 -6 26 -12 0 -8 5 -6
10 4 12 20 44 17 48 -5z m-2448 -22 c10 -12 10 -15 -4 -15 -9 0 -16 7 -16 15
0 8 2 15 4 15 2 0 9 -7 16 -15z m490 3 c0 -10 3 -10 9 0 11 18 46 11 46 -8 0
-11 -14 -16 -47 -18 -43 -3 -48 -1 -48 17 0 14 6 21 20 21 11 0 20 -6 20 -12z
m-1122 -19 c-2 -17 -11 -22 -38 -24 -19 -2 -41 2 -48 7 -21 18 6 38 50 38 35
0 39 -3 36 -21z m3239 -76 c-2 -16 -4 -3 -4 27 0 30 2 43 4 28 2 -16 2 -40 0
-55z m5313 -11 c0 -24 -30 -71 -50 -77 -34 -11 -60 11 -60 53 1 42 16 68 51
80 20 8 27 5 41 -17 10 -14 18 -32 18 -39z m-7789 40 c-7 -2 -18 1 -23 6 -8 8
-4 9 13 5 13 -4 18 -8 10 -11z m-2621 -12 c0 -5 -7 -7 -15 -4 -8 4 -12 10 -9
15 6 11 24 2 24 -11z m5548 8 c-7 -19 -38 -22 -38 -4 0 10 9 16 21 16 12 0 19
-5 17 -12z m62 -3 c0 -8 -9 -15 -20 -15 -20 0 -26 11 -13 23 12 13 33 7 33 -8z
m-3120 -27 c0 -5 -4 -8 -10 -8 -5 0 -10 10 -10 23 0 18 2 19 10 7 5 -8 10 -18
10 -22z m1101 10 c0 -10 2 -10 6 0 2 6 16 12 29 12 17 0 24 -6 24 -19 0 -17
-7 -20 -50 -19 -47 0 -63 12 -43 31 11 12 33 8 34 -5z m-871 -13 c14 -8 21
-14 15 -14 -5 0 -21 6 -35 14 -14 8 -20 14 -15 14 6 0 21 -6 35 -14z m-2723
-42 c-3 -10 -5 -4 -5 12 0 17 2 24 5 18 2 -7 2 -21 0 -30z m2818 1 c28 -13 39
-21 25 -18 -30 8 -99 43 -85 43 6 0 33 -11 60 -25z m3136 -122 c39 -57 69
-105 66 -108 -2 -2 -9 1 -14 8 -25 32 -121 177 -142 213 -21 37 -21 38 -2 15
12 -14 53 -71 92 -128z m-3334 122 c-3 -3 -12 -4 -19 -1 -8 3 -5 6 6 6 11 1
17 -2 13 -5z m6163 -24 c0 -11 -4 -20 -8 -20 -9 0 -36 -51 -71 -132 -10 -26
-22 -73 -26 -105 -10 -90 -12 -93 -40 -79 -29 13 -50 79 -40 127 9 47 44 141
58 160 19 25 88 69 108 69 12 0 19 -7 19 -20z m-6075 -11 c22 -10 29 -16 15
-13 -28 7 -80 33 -65 33 6 0 28 -9 50 -20z m6226 8 c36 -28 60 -104 41 -133
-11 -17 -75 -54 -93 -54 -13 0 -15 10 -11 54 2 30 -1 69 -7 87 -8 24 -8 36 0
45 14 17 49 17 70 1z m-7625 -9 c18 -28 -63 -51 -85 -24 -10 11 -8 17 6 25 24
14 70 14 79 -1z m1594 2 c8 -5 11 -10 5 -10 -5 0 -17 5 -25 10 -8 5 -10 10 -5
10 6 0 17 -5 25 -10z m-410 -20 c0 -11 -4 -20 -10 -20 -5 0 -10 9 -10 20 0 11
5 20 10 20 6 0 10 -9 10 -20z m3170 -5 c0 -8 -4 -15 -10 -15 -5 0 -10 7 -10
15 0 8 5 15 10 15 6 0 10 -7 10 -15z m-2850 -16 c10 -6 5 -7 -15 -3 -16 4 -34
11 -40 16 -11 12 31 1 55 -13z m-1103 -15 c1 -25 -1 -26 -35 -20 -21 3 -52 6
-69 6 -71 0 -12 33 67 38 31 2 35 0 37 -24z m3466 -186 l72 -2 -72 -3 c-67 -4
-73 -6 -74 -26 l-2 -22 -4 23 c-4 21 -9 22 -116 24 l-112 2 110 5 110 6 5 100
5 100 3 -102 3 -103 72 -2z m-524 100 c36 -55 72 -97 88 -105 l28 -12 -35 2
c-19 1 -35 7 -35 12 0 8 -49 84 -114 176 -7 10 -9 19 -4 19 6 0 38 -41 72 -92z
m972 62 c-20 -20 -31 -40 -31 -58 0 -15 -1 -36 -2 -47 -2 -11 2 -20 7 -20 6 0
9 3 8 8 -5 14 26 7 34 -8 8 -13 13 -13 44 3 45 23 59 18 59 -19 0 -33 -1 -33
35 -19 18 7 31 6 45 -3 34 -21 23 -123 -17 -165 -7 -7 -13 -20 -13 -27 0 -8
-6 -18 -14 -22 -11 -6 -12 -11 -3 -24 20 -26 56 -41 104 -42 36 0 46 -4 53
-22 9 -23 -6 -112 -21 -131 -12 -15 -18 -255 -7 -276 4 -9 8 -81 9 -160 1
-176 8 -210 52 -232 l32 -17 -40 7 c-43 7 -115 33 -184 67 -51 25 -81 68 -81
115 0 18 -10 46 -21 62 -15 20 -20 36 -15 54 5 21 2 27 -18 32 -29 7 -40 29
-26 54 16 31 12 68 -9 75 -10 3 -31 17 -45 30 -38 35 -35 74 13 129 21 25 47
65 56 90 16 42 16 48 1 92 -11 32 -16 85 -17 158 0 61 -3 105 -6 98 -8 -19
-57 -42 -72 -32 -10 6 -13 27 -9 84 4 62 10 83 34 118 16 24 32 51 36 61 4 10
18 17 34 17 l27 0 -32 -30z m-740 8 c0 -10 2 -10 6 0 2 6 14 12 25 12 33 0 14
-25 -23 -30 -42 -7 -59 -2 -59 16 0 18 50 19 51 2z m-2405 -14 c27 -7 50 -52
31 -59 -16 -7 -186 11 -195 20 -4 4 4 15 17 26 23 19 99 26 147 13z m3574
-185 c0 -5 -4 -9 -9 -9 -11 0 -32 56 -24 64 6 6 33 -39 33 -55z m-2400 0 c0
-28 -2 -29 -50 -29 -27 0 -50 5 -50 10 0 6 -47 11 -117 12 l-118 2 118 3 c95
3 117 6 117 18 0 18 36 20 43 3 4 -9 6 -7 6 3 1 12 8 15 26 11 20 -3 25 -10
25 -33z m420 8 c9 -3 4 -6 -12 -6 -21 -1 -26 3 -21 15 3 9 9 11 12 6 3 -5 13
-12 21 -15z m-970 -23 c0 -2 -11 -4 -25 -4 -14 0 -25 4 -25 9 0 4 11 6 25 3
14 -2 25 -6 25 -8z m193 9 c-7 -2 -19 -2 -25 0 -7 3 -2 5 12 5 14 0 19 -2 13
-5z m-265 -10 c-10 -2 -28 -2 -40 0 -13 2 -5 4 17 4 22 1 32 -1 23 -4z m-578
-34 c-7 -11 -14 -18 -17 -15 -3 3 0 12 7 21 18 21 23 19 10 -6z m1775 -19 c-3
-5 -1 -10 4 -10 6 0 11 5 11 10 0 6 9 10 20 10 11 0 20 -7 20 -15 0 -11 -12
-15 -50 -15 -38 0 -50 4 -50 15 0 9 10 15 26 15 14 0 23 -4 19 -10z m745 -102
c0 -4 -7 -5 -15 -2 -8 4 -15 16 -15 28 1 21 1 21 15 2 8 -11 15 -23 15 -28z
m-4313 -14 c18 -11 23 -24 23 -60 0 -39 -2 -44 -17 -36 -10 5 -36 12 -58 16
-66 12 -115 28 -109 37 3 5 -19 10 -48 10 -53 2 -53 2 17 10 38 4 71 13 73 18
2 6 11 11 20 11 12 0 13 3 4 12 -7 7 -12 15 -12 20 0 9 77 -18 107 -38z m6604
26 c26 -15 24 -34 -6 -50 -23 -12 -28 -12 -48 9 -22 22 -22 22 -3 37 24 17 31
17 57 4z m-4900 -43 c-8 -8 -11 -7 -11 4 0 20 13 34 18 19 3 -7 -1 -17 -7 -23z
m2739 -7 c0 -5 -4 -10 -10 -10 -5 0 -10 5 -10 10 0 6 5 10 10 10 6 0 10 -4 10
-10z m5188 -13 c2 -10 -3 -17 -12 -17 -18 0 -29 16 -21 31 9 14 29 6 33 -14z
m-10278 3 c0 -5 -4 -10 -10 -10 -5 0 -10 5 -10 10 0 6 5 10 10 10 6 0 10 -4
10 -10z m3028 -9 c33 3 195 -1 191 -5 -4 -4 -134 -14 -191 -15 -20 -1 -26 -5
-22 -16 7 -18 34 -20 35 -2 1 6 4 1 8 -13 4 -15 2 -39 -7 -59 -11 -27 -12 -73
-8 -215 17 -588 18 -651 7 -640 -16 15 -27 125 -62 619 -6 88 -14 202 -18 253
-7 98 -1 118 31 101 10 -6 26 -9 36 -8z m1544 11 c-7 -5 -24 -7 -38 -4 -21 4
-27 -2 -45 -42 -11 -25 -25 -46 -31 -46 -5 0 -7 7 -4 16 3 9 9 27 12 41 6 23
5 24 -15 13 -17 -8 -20 -15 -11 -24 7 -10 5 -20 -9 -37 -16 -19 -23 -22 -37
-13 -24 14 -29 34 -10 34 9 0 16 -5 16 -11 0 -5 5 -7 12 -3 8 5 6 11 -5 19
-13 9 -14 14 -4 24 10 11 8 12 -10 6 -14 -4 -23 -2 -23 4 0 15 -27 14 -32 -1
-6 -18 3 -58 13 -58 5 0 9 -5 9 -12 0 -9 -3 -9 -11 -1 -9 9 -16 9 -30 0 -15
-9 -24 -9 -39 1 -12 7 -20 8 -20 2 0 -5 -8 -10 -19 -10 -21 0 -48 27 -37 37 4
4 11 1 15 -6 5 -8 14 -10 21 -6 9 6 8 10 -4 17 -14 8 -15 12 -4 25 11 14 10
15 -10 9 -28 -9 -30 12 -3 22 29 10 369 14 353 4z m108 4 c0 -9 -30 -14 -35
-6 -4 6 3 10 14 10 12 0 21 -2 21 -4z m178 -3 c-16 -2 -40 -2 -55 0 -16 2 -3
4 27 4 30 0 43 -2 28 -4z m1509 -9 c4 -14 -40 -42 -80 -49 -33 -6 -36 -5 -31
10 7 18 81 57 98 52 6 -2 11 -7 13 -13z m-2947 -5 c54 -2 47 -4 -40 -8 -58 -4
-116 -4 -130 -2 -25 5 -25 5 -2 10 13 3 42 5 65 4 23 -1 71 -3 107 -4z m280 1
c10 -7 -16 -9 -85 -9 -55 1 -89 4 -76 8 40 11 145 12 161 1z m233 3 c-13 -2
-33 -2 -45 0 -13 2 -3 4 22 4 25 0 35 -2 23 -4z m2136 -113 c-6 -57 -5 -96 2
-118 13 -41 0 -61 -23 -35 -14 16 -14 30 -2 123 7 58 13 112 14 120 0 9 3 10
9 5 6 -6 6 -44 0 -95z m-2669 45 c5 3 11 1 15 -5 4 -6 -9 -10 -32 -10 -36 1
-37 1 -18 16 12 9 21 11 23 4 2 -5 8 -8 12 -5z m2948 -7 c-7 -20 21 -41 47
-36 25 5 31 -8 34 -76 1 -16 7 -36 14 -44 10 -13 9 -15 -5 -10 -11 5 -18 0
-22 -18 -8 -30 -13 -30 -50 0 -22 18 -27 29 -21 43 13 31 12 55 -2 60 -7 3
-13 11 -13 19 0 8 -4 14 -10 14 -15 0 -12 18 8 39 21 23 25 25 20 9z m-2638
-10 c0 -11 -112 -10 -128 1 -7 4 17 7 58 7 38 -1 70 -4 70 -8z m7083 -45 c-7
-2 -19 -2 -25 0 -7 3 -2 5 12 5 14 0 19 -2 13 -5z m-8408 -53 c-3 -5 -11 -10
-16 -10 -6 0 -7 5 -4 10 3 6 11 10 16 10 6 0 7 -4 4 -10z m4204 -125 c1 -22
-11 -41 -46 -77 -46 -46 -49 -48 -106 -48 -69 0 -91 10 -113 51 -22 43 -11 47
38 14 23 -15 60 -30 83 -33 38 -4 43 -2 68 35 19 28 27 52 27 83 0 27 6 51 18
63 17 19 17 18 24 -19 4 -22 7 -52 7 -69z m-95 -12 c-7 -30 -14 -39 -34 -41
-14 -2 -34 4 -45 12 -19 15 -18 15 13 5 28 -10 35 -9 47 7 8 11 12 32 11 47
-3 20 0 25 7 18 7 -7 8 -23 1 -48z m-94 17 c0 -5 -8 -10 -17 -10 -15 0 -16 2
-3 10 19 12 20 12 20 0z m1188 -7 c-10 -2 -28 -2 -40 0 -13 2 -5 4 17 4 22 1
32 -1 23 -4z m3833 -42 c39 -39 38 -83 -5 -208 -64 -189 -79 -213 -133 -213
-70 0 -89 59 -57 170 9 30 19 93 23 140 5 68 11 90 28 107 44 44 102 45 144 4z
m-961 -51 c-12 -8 -9 -10 12 -10 29 0 78 -19 78 -30 0 -31 -143 -29 -205 4
l-29 15 34 15 c40 17 135 22 110 6z m-8045 -10 c3 -5 -1 -10 -10 -10 -9 0 -13
5 -10 10 3 6 8 10 10 10 2 0 7 -4 10 -10z m5152 -82 c-3 -8 -6 -5 -6 6 -1 11
2 17 5 13 3 -3 4 -12 1 -19z m-7191 -52 c7 -28 -2 -49 -17 -41 -12 8 -12 65 1
65 5 0 12 -11 16 -24z m7191 -48 c-3 -8 -6 -5 -6 6 -1 11 2 17 5 13 3 -3 4
-12 1 -19z m4309 1 c12 -10 10 -15 -16 -31 -38 -23 -68 -89 -82 -179 l-10 -67
-31 9 c-45 13 -52 24 -51 87 1 77 17 121 59 167 32 34 38 37 75 32 23 -3 47
-11 56 -18z m-10716 1 c0 -5 -2 -10 -4 -10 -3 0 -8 5 -11 10 -3 6 -1 10 4 10
6 0 11 -4 11 -10z m10830 -11 c22 -19 25 -28 25 -93 -1 -52 -7 -85 -24 -123
-26 -58 -52 -80 -95 -79 -46 1 -52 23 -22 87 27 60 35 115 22 165 -13 58 44
84 94 43z m-9053 -36 c-3 -10 -5 -4 -5 12 0 17 2 24 5 18 2 -7 2 -21 0 -30z
m-2640 -35 c-2 -13 -4 -5 -4 17 -1 22 1 32 4 23 2 -10 2 -28 0 -40z m270 0
c-3 -7 -5 -2 -5 12 0 14 2 19 5 13 2 -7 2 -19 0 -25z m11924 -55 c30 -31 29
-77 -2 -178 l-23 -75 -82 0 -82 0 14 53 c7 28 14 76 14 105 0 111 95 166 161
95z m-10034 1 c-3 -3 -12 -4 -19 -1 -8 3 -5 6 6 6 11 1 17 -2 13 -5z m-2144
-136 c3 -69 2 -118 -4 -118 -5 0 -9 54 -9 122 0 67 2 119 4 117 2 -2 6 -57 9
-121z m7253 40 c-2 -46 -5 -99 -6 -118 l-3 -35 -6 42 c-6 37 6 193 15 193 2 0
2 -37 0 -82z m-1251 -4 c12 -42 53 -97 66 -88 17 10 20 -18 5 -41 -16 -24 -21
-25 -120 -25 l-104 0 -17 44 c-14 35 -25 48 -54 60 l-36 15 30 1 c18 0 42 11
60 28 17 15 45 40 64 55 33 27 33 27 64 10 20 -12 34 -31 42 -59z m-3358 4
c-3 -8 -6 -5 -6 6 -1 11 2 17 5 13 3 -3 4 -12 1 -19z m22 -140 c0 -10 -3 -18
-9 -18 -5 0 -10 5 -10 11 0 7 -8 18 -17 25 -17 13 -17 13 0 14 11 0 17 8 18
23 1 18 3 16 9 -8 4 -16 8 -38 9 -47z m-2402 -10 c-3 -8 -6 -5 -6 6 -1 11 2
17 5 13 3 -3 4 -12 1 -19z m12268 1 c-11 -4 -36 -8 -55 -7 l-35 0 29 12 c15 7
40 11 54 8 24 -5 25 -6 7 -13z"/>
<path d="M15340 8960 c-19 -19 -20 -33 -20 -205 0 -172 1 -186 20 -205 19 -19
33 -20 420 -20 387 0 401 1 420 20 19 19 20 33 20 205 0 172 -1 186 -20 205
-19 19 -33 20 -420 20 -387 0 -401 -1 -420 -20z m206 -144 c10 -8 16 -18 12
-22 -4 -4 -14 -1 -22 5 -16 13 -36 7 -36 -10 0 -5 12 -14 27 -20 35 -13 44
-28 32 -51 -11 -20 -63 -25 -74 -7 -11 16 3 23 19 10 8 -7 20 -10 26 -6 19 12
10 31 -20 42 -34 13 -41 46 -12 62 23 14 25 13 48 -3z m59 4 c-3 -5 -10 -10
-16 -10 -5 0 -9 5 -9 10 0 6 7 10 16 10 8 0 12 -4 9 -10z m315 -60 c0 -33 -4
-60 -10 -60 -6 0 -10 27 -10 60 0 33 4 60 10 60 6 0 10 -27 10 -60z m-320 -10
c0 -27 -4 -50 -10 -50 -5 0 -10 23 -10 50 0 28 5 50 10 50 6 0 10 -22 10 -50z
m118 -18 c-2 -46 -8 -68 -19 -75 -21 -13 -69 -1 -69 18 0 18 12 19 27 4 13
-13 43 -5 43 11 0 5 -13 10 -28 10 -35 0 -52 16 -52 52 0 32 22 47 68 46 l33
-1 -3 -65z m112 49 c16 -30 13 -81 -5 -81 -11 0 -15 11 -15 40 0 33 -3 40 -20
40 -17 0 -20 -7 -20 -40 0 -29 -4 -40 -15 -40 -11 0 -15 12 -15 50 l0 50 40 0
c29 0 42 -5 50 -19z m198 7 c18 -18 16 -88 -3 -88 -11 0 -15 11 -15 41 0 33
-3 40 -17 37 -13 -2 -19 -14 -21 -41 -5 -55 -32 -50 -32 6 0 24 3 47 7 50 11
12 68 8 81 -5z"/>
<path d="M15645 8760 c-8 -26 6 -43 31 -38 13 2 19 12 19 28 0 34 -40 41 -50
10z"/>
<path d="M16990 8845 c0 -8 2 -15 4 -15 2 0 6 7 10 15 3 8 1 15 -4 15 -6 0
-10 -7 -10 -15z"/>
<path d="M17080 8775 c-10 -11 -9 -17 3 -29 13 -13 14 -12 13 14 -1 35 0 34
-16 15z"/>
<path d="M17311 8766 c-16 -19 -8 -46 13 -46 20 0 29 31 13 47 -12 12 -16 12
-26 -1z"/>
<path d="M17040 8740 c-9 -6 -10 -10 -3 -10 6 0 15 5 18 10 8 12 4 12 -15 0z"/>
<path d="M17206 8732 c-3 -5 1 -9 9 -9 8 0 12 4 9 9 -3 4 -7 8 -9 8 -2 0 -6
-4 -9 -8z"/>
<path d="M1580 8790 c0 -28 3 -31 28 -28 21 2 27 8 27 28 0 20 -6 26 -27 28
-25 3 -28 0 -28 -28z"/>
<path d="M9110 8791 c0 -15 6 -21 21 -21 14 0 19 5 17 17 -5 26 -38 29 -38 4z"/>
<path d="M1366 8774 c-34 -33 -7 -92 36 -81 32 8 42 44 22 74 -17 27 -36 29
-58 7z"/>
<path d="M6445 8770 c-4 -6 5 -10 20 -10 15 0 24 4 20 10 -3 6 -12 10 -20 10
-8 0 -17 -4 -20 -10z"/>
<path d="M6557 8774 c-12 -12 -8 -52 6 -57 22 -8 39 8 35 34 -3 23 -27 37 -41
23z"/>
<path d="M6915 8770 c-4 -6 5 -10 20 -10 15 0 24 4 20 10 -3 6 -12 10 -20 10
-8 0 -17 -4 -20 -10z"/>
<path d="M7887 8774 c-12 -12 -8 -52 6 -57 22 -8 39 8 35 34 -3 23 -27 37 -41
23z"/>
<path d="M8257 8774 c-12 -12 -8 -52 6 -57 22 -8 39 8 35 34 -3 23 -27 37 -41
23z"/>
<path d="M9574 8765 c-9 -23 3 -45 25 -45 25 0 34 14 26 40 -7 23 -43 27 -51
5z"/>
<path d="M10395 8770 c-4 -6 5 -10 20 -10 15 0 24 4 20 10 -3 6 -12 10 -20 10
-8 0 -17 -4 -20 -10z"/>
<path d="M10877 8773 c-12 -11 -8 -40 6 -52 21 -17 51 10 43 37 -7 21 -35 30
-49 15z"/>
<path d="M11147 8774 c-12 -12 -8 -52 6 -57 22 -8 39 8 35 34 -3 23 -27 37
-41 23z"/>
<path d="M17490 8770 c0 -5 7 -10 16 -10 8 0 12 5 9 10 -3 6 -10 10 -16 10 -5
0 -9 -4 -9 -10z"/>
<path d="M17642 8763 c-13 -25 -4 -43 19 -43 16 0 20 6 17 27 -4 32 -23 41
-36 16z"/>
<path d="M17914 8766 c-9 -24 4 -48 23 -44 12 2 18 12 18 28 0 29 -32 41 -41
16z"/>
<path d="M18147 8774 c-12 -12 -8 -54 6 -54 49 1 76 31 40 44 -10 3 -23 8 -29
11 -5 3 -13 2 -17 -1z"/>
<path d="M18244 8766 c-9 -24 4 -48 23 -44 12 2 18 12 18 28 0 29 -32 41 -41
16z"/>
<path d="M8440 7468 c-64 -32 -93 -91 -88 -175 6 -101 68 -163 163 -163 97 0
157 68 157 179 0 88 -41 151 -113 171 -50 15 -70 12 -119 -12z"/>
<path d="M10146 7480 c-67 -20 -106 -85 -106 -176 0 -105 63 -174 160 -174 96
0 153 61 158 169 4 85 -22 136 -88 169 -46 23 -76 26 -124 12z"/>
<path d="M7520 7499 l0 -122 78 5 c120 7 162 40 162 126 0 76 -54 112 -170
112 l-70 0 0 -121z"/>
<path d="M6704 7471 c-83 -38 -119 -161 -72 -251 31 -61 77 -90 142 -90 87 0
148 55 162 145 16 109 -65 216 -163 215 -15 0 -46 -9 -69 -19z"/>
<path d="M11370 7468 c-63 -32 -85 -75 -85 -163 0 -120 60 -182 170 -173 98 8
145 67 145 181 0 50 -5 71 -22 97 -52 76 -131 98 -208 58z"/>
<path d="M11995 7483 c-128 -35 -157 -261 -43 -331 45 -28 120 -29 168 -3 69
37 102 159 66 245 -27 65 -121 108 -191 89z"/>
<path d="M13815 7469 c-4 -6 -14 -8 -24 -4 -11 4 -13 3 -5 -5 12 -12 44 -4 44
11 0 12 -7 11 -15 -2z"/>
<path d="M13760 7435 c-8 -9 -8 -15 -2 -15 6 0 13 -8 15 -17 3 -10 5 -3 6 15
1 36 -1 38 -19 17z"/>
<path d="M13746 7365 c-9 -26 -7 -32 5 -12 6 10 9 21 6 23 -2 3 -7 -2 -11 -11z"/>
<path d="M13790 7135 c13 -14 26 -25 28 -25 3 0 -5 11 -18 25 -13 14 -26 25
-28 25 -3 0 5 -11 18 -25z"/>
<path d="M7690 4045 c-11 -13 -10 -14 4 -9 9 3 16 10 16 15 0 13 -6 11 -20 -6z"/>
<path d="M7750 4048 c0 -6 7 -8 15 -4 8 3 15 2 15 -3 0 -4 11 -13 24 -21 14
-7 22 -18 19 -26 -3 -8 -1 -14 4 -14 12 0 11 39 -1 58 -4 7 -14 11 -21 8 -7
-2 -16 -2 -19 2 -11 10 -36 11 -36 0z"/>
<path d="M7934 4014 c-10 -41 27 -57 50 -22 7 12 6 21 -3 32 -20 24 -40 19
-47 -10z"/>
<path d="M7740 4000 c0 -5 7 -7 15 -4 8 4 15 8 15 10 0 2 -7 4 -15 4 -8 0 -15
-4 -15 -10z"/>
<path d="M7696 3983 c-6 -14 -5 -15 5 -6 7 7 10 15 7 18 -3 3 -9 -2 -12 -12z"/>
<path d="M9470 4290 c-19 -19 -20 -33 -20 -280 0 -247 1 -261 20 -280 20 -20
33 -20 960 -20 927 0 940 0 960 20 19 19 20 33 20 280 0 247 -1 261 -20 280
-20 20 -33 20 -960 20 -927 0 -940 0 -960 -20z m1480 -210 c0 -5 -7 -10 -15
-10 -8 0 -15 5 -15 10 0 6 7 10 15 10 8 0 15 -4 15 -10z m-1180 -20 c11 -11
20 -33 20 -50 0 -45 -31 -70 -85 -70 l-45 0 0 70 0 70 45 0 c32 0 51 -6 65
-20z m900 5 c0 -8 7 -15 15 -15 8 0 15 -4 15 -10 0 -5 -7 -10 -15 -10 -10 0
-15 -11 -15 -35 0 -24 5 -35 15 -35 8 0 15 -4 15 -10 0 -5 -11 -10 -25 -10
-17 0 -26 7 -30 23 -5 26 -9 74 -7 100 2 21 32 23 32 2z m210 0 c0 -8 7 -15
15 -15 8 0 15 -4 15 -10 0 -5 -7 -10 -15 -10 -10 0 -15 -11 -15 -35 0 -24 5
-35 15 -35 8 0 15 -4 15 -10 0 -5 -11 -10 -25 -10 -17 0 -26 7 -30 23 -5 26
-9 74 -7 100 2 21 32 23 32 2z m-974 -40 l17 -26 11 23 c14 29 83 39 92 13 9
-23 -1 -28 -24 -14 -27 17 -52 5 -52 -26 0 -31 25 -43 52 -26 23 14 33 9 24
-14 -9 -26 -78 -16 -92 13 l-11 23 -17 -26 c-18 -28 -72 -35 -94 -13 -15 15
-16 53 -2 79 16 30 75 26 96 -6z m176 -17 c2 -36 7 -44 26 -46 20 -3 22 1 22
42 0 34 4 46 15 46 12 0 15 -13 15 -55 l0 -55 -45 0 c-51 0 -65 16 -65 74 0
54 28 48 32 -6z m279 15 c14 -38 11 -83 -5 -83 -10 0 -16 14 -18 43 -2 35 -7
43 -25 45 -21 3 -23 -1 -23 -42 0 -33 -4 -46 -14 -46 -10 0 -16 14 -18 43 -2
35 -7 43 -25 45 -21 3 -23 -1 -23 -42 0 -34 -4 -46 -15 -46 -12 0 -15 13 -15
55 l0 54 86 0 c81 -1 86 -2 95 -26z m121 10 c31 -28 22 -43 -27 -43 -25 0 -45
-5 -45 -10 0 -17 31 -24 51 -12 24 16 29 15 29 -3 0 -16 -37 -29 -66 -23 -10
2 -25 15 -33 29 -13 24 -13 29 2 53 20 30 61 35 89 9z m128 -2 c16 -31 13 -91
-5 -91 -11 0 -15 12 -15 45 0 41 -2 45 -25 45 -23 0 -25 -4 -25 -45 0 -33 -4
-45 -15 -45 -12 0 -15 13 -15 55 l0 55 45 0 c34 0 47 -5 55 -19z m220 -36 l0
-52 -47 -1 c-57 -2 -73 10 -73 52 0 44 16 56 72 54 l48 -1 0 -52z m120 0 c0
-42 -3 -55 -15 -55 -12 0 -15 13 -15 55 0 42 3 55 15 55 12 0 15 -13 15 -55z
m122 30 c8 -18 9 -35 2 -53 -8 -23 -15 -27 -49 -27 -32 0 -42 5 -54 26 -13 24
-13 29 2 53 25 37 82 37 99 1z m128 6 c16 -30 13 -91 -4 -91 -10 0 -16 14 -18
43 -2 35 -7 43 -25 45 -21 3 -23 -1 -23 -42 0 -34 -4 -46 -15 -46 -12 0 -15
13 -15 55 l0 55 45 0 c34 0 47 -5 55 -19z"/>
<path d="M9690 4010 c0 -46 2 -50 23 -50 30 0 47 18 47 50 0 32 -17 50 -47 50
-21 0 -23 -4 -23 -50z"/>
<path d="M9832 4014 c-16 -29 -3 -55 27 -52 22 2 26 8 26 33 0 23 -5 31 -22
33 -12 2 -25 -4 -31 -14z"/>
<path d="M10417 4024 c-15 -15 -6 -24 24 -24 20 0 29 4 27 13 -5 14 -40 21
-51 11z"/>
<path d="M10741 4012 c-13 -25 8 -56 35 -50 29 5 27 62 -3 66 -13 2 -26 -4
-32 -16z"/>
<path d="M10994 4016 c-11 -29 0 -51 26 -51 21 0 25 5 25 30 0 24 -5 31 -23
33 -13 2 -24 -3 -28 -12z"/>
<path d="M8336 4022 c-10 -30 4 -53 28 -50 31 4 30 62 -1 66 -14 2 -23 -3 -27
-16z"/>
<path d="M8735 4030 c-4 -6 5 -10 20 -10 15 0 24 4 20 10 -3 6 -12 10 -20 10
-8 0 -17 -4 -20 -10z"/>
<path d="M8860 4030 c0 -5 12 -10 26 -10 14 0 23 4 19 10 -3 6 -15 10 -26 10
-10 0 -19 -4 -19 -10z"/>
<path d="M8735 3980 c3 -5 12 -10 20 -10 8 0 17 5 20 10 4 6 -5 10 -20 10 -15
0 -24 -4 -20 -10z"/>
<path d="M8855 3980 c3 -5 15 -10 25 -10 10 0 22 5 25 10 4 6 -7 10 -25 10
-18 0 -29 -4 -25 -10z"/>
<path d="M5997 1294 c3 -7 9 -14 14 -14 14 0 10 17 -5 23 -10 4 -13 1 -9 -9z"/>
<path d="M6161 1306 c2 -2 15 -9 29 -16 23 -12 24 -12 11 3 -7 10 -20 17 -29
17 -8 0 -13 -2 -11 -4z"/>
<path d="M6065 1290 c3 -5 11 -10 16 -10 6 0 7 5 4 10 -3 6 -11 10 -16 10 -6
0 -7 -4 -4 -10z"/>
<path d="M14209 1883 c-79 -41 -95 -73 -159 -328 -22 -85 -31 -139 -27 -157 9
-35 44 -53 132 -66 118 -19 363 -61 500 -87 198 -37 413 -58 470 -45 60 13 81
25 100 54 18 26 125 423 125 461 0 14 -12 38 -27 55 -27 30 -32 31 -198 51
-122 14 -845 89 -860 89 -1 0 -26 -12 -56 -27z"/>
<path d="M7413 923 c-7 -16 -18 -36 -25 -46 -11 -15 -10 -19 2 -27 8 -5 17
-10 20 -10 6 0 41 56 40 65 -2 24 2 35 10 35 6 0 10 -8 11 -17 0 -11 3 -13 6
-5 2 6 13 12 24 12 10 0 19 5 19 10 0 6 -22 10 -48 10 -42 0 -49 -3 -59 -27z"/>
<path d="M7322 802 c-18 -15 -32 -35 -32 -45 0 -21 98 -119 114 -114 6 2 15
20 20 40 7 29 6 45 -7 72 -9 20 -17 45 -17 55 0 29 -38 25 -78 -8z"/>
<path d="M7300 671 c0 -14 18 -23 31 -15 8 4 7 9 -2 15 -18 11 -29 11 -29 0z"/>
<path d="M7562 274 c-34 -24 -28 -44 14 -44 32 0 35 2 32 27 -4 33 -17 38 -46
17z"/>
<path d="M6025 981 c-3 -5 -1 -12 5 -16 5 -3 10 1 10 9 0 18 -6 21 -15 7z"/>
</g>
</svg>
