<?xml version="1.0" standalone="no"?>
<!DOCTYPE svg PUBLIC "-//W3C//DTD SVG 20010904//EN"
 "http://www.w3.org/TR/2001/REC-SVG-20010904/DTD/svg10.dtd">
<svg version="1.0" xmlns="http://www.w3.org/2000/svg"
 width="1080.000000pt" height="1080.000000pt" viewBox="0 0 1080.000000 1080.000000"
 preserveAspectRatio="xMidYMid meet">

<g transform="translate(0.000000,1080.000000) scale(0.100000,-0.100000)"
fill="#000000" stroke="none">
<path d="M10052 10250 c-47 -19 -58 -115 -17 -155 31 -32 60 -32 90 1 29 31
33 80 10 123 -20 40 -41 47 -83 31z m52 -13 c27 -20 38 -103 17 -128 -18 -23
-48 -30 -72 -18 -21 11 -30 69 -18 113 8 30 18 38 50 45 3 0 13 -5 23 -12z"/>
<path d="M10215 10244 c-29 -15 -29 -15 -3 -9 25 5 27 3 31 -37 3 -41 4 -41 5
10 1 28 1 52 0 51 -2 0 -16 -7 -33 -15z"/>
<path d="M10239 10120 c-3 -29 -8 -35 -26 -34 -13 0 -23 -3 -23 -8 0 -4 25 -8
56 -8 35 0 53 4 49 10 -4 6 -14 9 -23 8 -12 -2 -18 7 -23 32 l-6 35 -4 -35z"/>
<path d="M5890 9959 c0 -5 -3 -8 -7 -6 -5 3 -7 -253 -5 -569 l2 -574 65 0 c58
0 64 2 62 20 -1 14 -6 18 -18 15 -23 -8 -31 7 -13 23 8 7 14 8 14 2 0 -5 5
-10 10 -10 6 0 10 86 10 238 0 166 4 253 13 289 16 62 14 97 -7 119 -18 17
-21 28 -7 19 6 -3 15 3 20 12 10 17 12 17 25 0 15 -19 11 -51 -5 -41 -5 3 -6
-2 -3 -10 4 -11 15 -6 44 23 26 25 55 41 90 50 55 14 150 20 150 10 0 -3 18
-11 39 -18 22 -6 53 -27 70 -47 34 -38 68 -110 63 -133 -2 -7 0 -11 5 -8 4 3
7 -106 5 -243 l-3 -248 26 -6 c15 -4 23 -11 19 -17 -4 -8 -10 -7 -17 0 -18 18
-27 13 -27 -14 0 -24 2 -25 65 -25 l65 0 0 295 c0 275 -1 299 -22 361 -14 44
-35 81 -65 114 -43 48 -124 97 -142 86 -5 -4 -11 0 -13 6 -3 9 -31 13 -94 12
-75 0 -98 -4 -147 -27 -33 -15 -56 -31 -52 -37 3 -5 11 -10 16 -10 6 0 7 5 4
10 -4 7 2 7 17 1 13 -5 37 -13 53 -16 30 -7 30 -7 -20 -27 -53 -21 -125 -32
-125 -18 0 14 24 18 44 7 15 -7 18 -6 13 6 -5 13 -1 15 22 11 18 -4 32 -1 36
7 6 9 3 11 -9 6 -11 -5 -15 -3 -10 5 5 8 2 9 -10 5 -10 -4 -25 -3 -35 2 -13 8
-25 1 -54 -30 -20 -21 -37 -33 -38 -26 0 6 0 103 1 215 l1 202 -38 -1 c-26 -1
-32 -3 -18 -7 11 -4 21 -13 23 -19 3 -16 -22 -17 -48 -3 -16 9 -19 8 -14 -7 5
-15 4 -16 -5 -3 -15 21 -14 28 7 33 13 4 11 5 -5 6 -13 0 -23 -4 -23 -10z m95
-49 c-3 -5 -17 -10 -31 -10 -14 0 -22 4 -19 10 3 6 17 10 31 10 14 0 22 -4 19
-10z m-67 -30 c-2 -6 -8 -6 -18 0 -13 9 -13 11 0 20 15 10 25 0 18 -20z m42
-30 c0 -5 -8 -10 -17 -10 -15 0 -16 2 -3 10 19 12 20 12 20 0z m-43 -72 c-2
-13 -4 -5 -4 17 -1 22 1 32 4 23 2 -10 2 -28 0 -40z m3 -898 c11 -11 20 -27
20 -35 0 -25 -34 -13 -41 15 -4 14 -6 223 -5 465 l1 440 2 -433 c3 -416 4
-433 23 -452z m11 765 c5 4 9 -3 9 -15 0 -12 -4 -19 -9 -16 -5 4 -12 0 -14 -6
-3 -7 -5 7 -5 32 0 25 3 35 5 22 2 -12 9 -20 14 -17z m49 11 c0 -14 -4 -27 -9
-30 -10 -6 -23 33 -15 46 10 16 24 7 24 -16z m280 3 c0 -4 -7 -12 -15 -19 -16
-14 -45 -7 -45 11 0 8 4 8 15 -1 9 -7 19 -10 22 -6 4 4 1 11 -7 16 -11 7 -9 9
8 7 12 0 22 -4 22 -8z m165 -9 c-3 -5 -12 -10 -18 -10 -7 0 -6 4 3 10 19 12
23 12 15 0z m-260 -10 c-3 -6 4 -10 16 -10 12 0 20 -3 16 -6 -3 -4 -18 -3 -34
0 -21 6 -24 9 -12 17 18 11 22 11 14 -1z m290 0 c-3 -5 -1 -11 4 -11 6 -1 16
-3 21 -4 6 -1 14 -3 18 -4 4 0 8 -17 8 -36 0 -35 -16 -51 -16 -17 -1 15 -2 15
-15 -3 -15 -19 -15 -19 -36 2 l-21 20 26 7 c15 4 24 11 21 16 -4 6 -17 7 -30
4 -13 -3 -26 0 -30 6 -5 9 -1 10 15 5 14 -5 20 -3 16 3 -3 6 0 13 6 15 19 8
20 8 13 -3z m-91 -9 c3 -5 -4 -11 -17 -15 -27 -6 -67 3 -67 15 0 12 77 12 84
0z m-98 -34 c4 -4 0 -7 -9 -7 -9 0 -18 4 -21 9 -7 10 20 9 30 -2z m137 -13
c-5 -14 -33 -27 -41 -19 -3 3 0 5 6 5 7 0 12 4 12 9 0 5 -10 7 -22 5 -19 -4
-20 -3 -5 4 27 12 55 9 50 -4z m131 0 c8 -21 8 -24 -3 -24 -5 0 -11 9 -14 20
-6 24 8 27 17 4z m-103 -31 c12 -15 12 -16 -4 -10 -10 4 -23 7 -28 7 -6 0 -7
5 -4 10 9 15 21 12 36 -7z m-461 -13 c0 -11 4 -20 10 -20 5 0 15 -10 21 -22 6
-13 8 -20 4 -15 -5 4 -17 -1 -28 -10 -19 -18 -20 -17 -13 9 4 20 2 29 -10 36
-10 6 -15 16 -11 26 9 23 27 20 27 -4z m535 0 c13 11 45 4 45 -11 0 -4 -7 -6
-15 -3 -8 4 -15 1 -15 -5 0 -6 -6 -11 -14 -11 -9 0 -12 -7 -9 -18 3 -13 -1
-19 -12 -19 -9 0 -14 6 -11 13 3 8 1 16 -4 19 -6 4 -6 15 2 28 7 14 13 17 16
9 3 -9 8 -10 17 -2z m75 -4 c0 -3 -4 -8 -10 -11 -5 -3 -10 -1 -10 4 0 6 5 11
10 11 6 0 10 -2 10 -4z m-16 -58 c-4 -27 -3 -30 6 -16 16 26 40 11 40 -26 0
-18 3 -36 8 -41 4 -6 4 -122 1 -260 l-5 -250 -2 250 c-2 229 -9 315 -27 333
-4 4 -6 -9 -4 -28 3 -40 -8 -80 -22 -80 -5 0 -10 -19 -10 -42 l-1 -43 -8 51
c-4 28 -13 60 -19 73 -7 12 -11 27 -8 34 2 7 12 -6 22 -27 17 -36 19 -38 28
-18 11 24 2 56 -13 47 -15 -9 -12 43 3 60 17 20 17 19 11 -17z m-534 -17 c0
-5 -7 -11 -14 -14 -10 -4 -13 -1 -9 9 6 15 23 19 23 5z m-70 -24 c0 -7 -7 -22
-16 -33 -14 -17 -15 -17 -10 -1 3 10 6 25 6 33 0 8 5 14 10 14 6 0 10 -6 10
-13z m-43 -119 c-2 -24 -4 -5 -4 42 0 47 2 66 4 43 2 -24 2 -62 0 -85z m81 19
c-12 -80 -23 -90 -34 -32 -4 26 -1 41 15 64 12 16 21 35 21 42 0 7 2 10 5 7 3
-3 0 -39 -7 -81z m569 -99 c-2 -24 -4 -7 -4 37 0 44 2 63 4 43 2 -21 2 -57 0
-80z m-40 50 c-3 -8 -6 -5 -6 6 -1 11 2 17 5 13 3 -3 4 -12 1 -19z m56 -406
c28 -2 37 -8 37 -22 0 -10 -5 -22 -10 -25 -13 -8 -42 14 -35 25 3 4 -6 11 -20
14 l-25 6 2 163 2 162 6 -160 5 -160 38 -3z"/>
<path d="M6450 9580 c0 -5 5 -10 10 -10 6 0 10 5 10 10 0 6 -4 10 -10 10 -5 0
-10 -4 -10 -10z"/>
<path d="M5068 9914 c-3 -3 -23 -7 -43 -9 -21 -2 -42 -8 -48 -14 -6 -6 -20
-11 -31 -11 -38 0 -161 -83 -150 -101 3 -5 -3 -6 -12 -2 -13 5 -16 3 -11 -10
4 -11 2 -14 -9 -10 -17 6 -17 5 -3 -36 11 -32 24 -40 32 -18 2 6 8 0 12 -15 4
-16 11 -25 16 -22 18 10 9 -3 -16 -24 -19 -17 -25 -18 -25 -7 0 8 6 15 14 15
10 0 12 7 9 21 -6 21 -7 21 -20 4 -7 -11 -13 -17 -14 -14 -9 52 -13 56 -34 35
-25 -25 -31 -19 -7 7 22 24 30 43 12 32 -5 -3 -19 -20 -32 -37 -12 -17 -17
-28 -10 -24 7 4 15 0 19 -9 3 -10 0 -21 -8 -25 -7 -5 -10 -12 -6 -16 4 -4 0
-18 -8 -31 -9 -13 -12 -23 -8 -23 5 0 0 -5 -10 -11 -14 -8 -16 -14 -6 -25 9
-11 8 -14 -3 -14 -19 0 -21 47 -2 54 9 3 14 13 10 21 -3 8 -1 17 5 21 6 3 8
13 5 21 -3 8 -1 11 4 8 6 -3 10 -1 10 5 0 7 -5 10 -11 8 -6 -2 -9 -6 -7 -9 2
-3 -5 -13 -14 -23 -9 -9 -15 -23 -12 -31 4 -8 1 -15 -5 -15 -6 0 -17 -24 -26
-53 -12 -41 -13 -65 -6 -104 7 -33 7 -73 0 -113 -10 -64 -1 -124 27 -167 8
-13 12 -23 9 -23 -3 0 1 -13 10 -30 15 -29 35 -40 35 -19 0 5 -4 7 -10 4 -5
-3 -7 0 -4 8 3 8 1 18 -5 21 -6 4 -8 13 -5 21 4 8 -1 18 -10 21 -9 3 -16 11
-16 16 0 6 6 8 14 5 7 -3 19 0 25 6 6 6 14 8 17 4 10 -10 12 -87 3 -81 -12 7
-11 -3 1 -27 6 -11 7 -18 3 -17 -4 2 -8 -1 -8 -7 0 -5 3 -9 7 -8 4 2 5 -3 3
-10 -3 -6 18 -34 45 -61 28 -27 50 -44 50 -38 0 7 -5 12 -10 12 -6 0 -5 8 2
19 7 11 16 17 20 15 5 -3 6 -10 3 -15 -4 -5 -2 -9 4 -9 5 0 16 -3 25 -6 11 -4
16 -1 16 10 0 9 5 16 11 16 8 0 7 6 -2 18 -13 15 -12 16 3 3 10 -7 15 -18 11
-24 -4 -7 0 -8 11 -4 12 5 16 3 14 -5 -3 -7 -13 -15 -24 -18 -23 -6 -25 -32
-4 -42 11 -5 9 -7 -6 -7 -12 -1 -27 6 -34 14 -7 8 -17 15 -22 15 -21 0 14 -29
66 -54 73 -36 142 -55 196 -55 25 0 52 -1 60 -1 17 -2 114 8 145 14 11 2 27 4
35 5 12 1 12 3 -2 11 -10 7 -42 7 -90 0 -81 -11 -184 -8 -238 8 l-35 10 30 3
c17 1 40 1 52 0 17 -1 21 2 17 14 -8 19 -3 19 32 -1 23 -13 25 -15 7 -11 -13
3 -23 1 -23 -3 0 -5 -10 -11 -22 -13 -13 -3 6 -3 41 -1 35 1 67 8 71 15 6 8 9
8 13 -2 4 -11 6 -11 6 -1 1 7 6 10 12 7 28 -18 70 -14 124 10 49 23 60 25 72
13 11 -12 9 -14 -17 -12 -16 1 -33 -2 -36 -7 -3 -5 0 -9 6 -9 6 0 8 -4 5 -10
-24 -39 118 43 176 102 47 47 119 152 119 173 0 3 -36 5 -80 5 l-80 0 -18 -37
c-11 -21 -17 -45 -15 -53 4 -12 3 -12 -5 -2 -7 10 -15 7 -34 -16 -34 -41 -113
-79 -192 -94 -47 -9 -66 -17 -66 -28 -1 -13 -2 -12 -10 2 -6 10 -30 19 -62 23
-86 12 -178 57 -241 118 -14 15 -21 16 -33 6 -11 -9 -14 -8 -14 5 0 9 3 15 8
15 19 -3 22 2 8 16 -23 23 -57 123 -69 201 -10 65 -2 180 16 234 3 8 8 24 11
35 4 11 6 24 6 29 -1 5 2 12 7 15 5 3 23 26 41 51 18 25 49 56 70 70 20 14 39
28 42 31 3 4 34 17 70 29 90 31 230 25 308 -12 29 -14 55 -21 58 -17 3 5 11 9
17 9 7 0 6 -4 -3 -10 -22 -14 -5 -23 20 -10 16 9 20 18 16 36 -7 27 11 33 33
12 11 -11 13 -10 8 4 -5 14 2 13 33 -8 46 -31 51 -43 15 -36 -14 2 -25 11 -25
18 0 21 -12 17 -37 -12 -12 -15 -20 -32 -16 -38 4 -6 -1 -5 -10 3 -10 8 -20
11 -23 8 -8 -8 59 -87 68 -81 12 8 9 24 -4 22 -6 -2 -13 4 -13 12 -1 8 0 9 2
2 3 -7 8 -10 13 -7 14 9 23 -15 11 -29 -12 -15 -5 -46 11 -46 6 0 7 7 4 16 -4
9 -1 23 5 30 10 12 14 11 25 -3 18 -24 17 -31 -3 -36 -10 -3 15 -5 55 -6 l72
-1 -26 53 c-29 56 -149 181 -186 193 -13 4 -26 11 -29 16 -3 5 -16 10 -27 11
-12 1 -22 4 -22 8 0 22 -272 53 -292 33z m152 -20 c25 -1 65 -9 89 -18 24 -10
51 -14 59 -11 12 4 12 3 3 -9 -10 -12 -9 -14 7 -9 12 3 22 -1 25 -11 5 -12 0
-16 -15 -16 -12 0 -29 -7 -38 -15 -13 -12 -28 -14 -60 -9 -36 6 -40 8 -24 17
11 6 33 12 49 13 30 3 30 3 5 -8 -14 -6 -20 -12 -13 -15 7 -2 21 1 33 7 30 16
8 42 -29 35 -23 -5 -24 -4 -6 5 15 8 6 9 -38 6 -31 -3 -55 -1 -52 3 2 5 -8 8
-23 8 -52 0 -82 7 -78 19 5 12 -26 5 -91 -23 -36 -15 -55 -17 -33 -3 9 6 10
10 3 10 -21 0 -43 -12 -37 -21 8 -14 47 -11 87 6 23 9 38 11 42 5 4 -6 -6 -10
-22 -11 -25 0 -26 -1 -8 -10 16 -7 14 -8 -10 -4 l-30 5 25 -22 c14 -12 18 -19
9 -15 -10 3 -34 -3 -55 -14 l-39 -20 24 21 c13 11 31 20 40 21 10 0 8 3 -7 10
-13 5 -35 6 -48 3 -19 -5 -31 0 -46 16 l-21 22 23 -7 c15 -5 20 -4 16 4 -4 6
0 11 11 11 10 0 31 7 47 15 36 19 47 19 22 0 -27 -21 -8 -18 34 5 26 14 46 17
80 12 25 -3 65 -7 90 -8z m-337 -56 c-5 -7 -8 -23 -7 -35 1 -19 -2 -21 -17
-12 -23 12 -25 24 -4 15 8 -3 15 -1 15 4 0 6 -5 10 -12 10 -6 0 -3 7 8 15 24
18 29 19 17 3z m387 -3 c-7 -8 -16 -12 -21 -9 -13 8 -1 24 18 24 13 0 13 -3 3
-15z m-142 -16 c-19 -12 -48 -11 -48 2 0 6 9 8 21 4 14 -5 19 -4 15 4 -5 7 -1
8 9 4 13 -5 14 -7 3 -14z m-138 -3 c0 -2 -7 -7 -16 -10 -8 -3 -12 -2 -9 4 6
10 25 14 25 6z m-154 -28 c5 -7 3 -8 -6 -3 -8 5 -11 4 -6 -3 4 -6 26 -9 54 -6
l47 5 -25 -22 c-14 -11 -18 -17 -10 -13 9 4 12 3 7 -2 -5 -5 -13 -9 -18 -9 -5
0 -18 -13 -28 -29 -18 -27 -19 -27 -26 -7 -3 11 -11 21 -17 21 -23 0 16 30 41
31 l26 2 -25 4 c-30 6 -52 22 -44 34 7 12 21 11 30 -3z m521 -12 c0 -8 -6 -12
-15 -9 -11 5 -11 7 0 14 7 5 13 9 14 9 0 0 1 -6 1 -14z m-559 -36 c-7 -10 -14
-18 -15 -16 -6 6 9 36 18 36 5 0 4 -9 -3 -20z m792 -67 c0 -7 -5 -13 -11 -13
-6 0 -9 6 -6 14 4 10 -2 13 -21 12 -15 -1 -32 -5 -39 -9 -8 -5 -9 0 0 22 6 17
15 28 19 25 4 -3 8 1 8 8 1 16 50 -42 50 -59z m30 -50 c0 -6 -7 -10 -15 -9
-23 3 -29 14 -15 31 11 13 15 13 21 3 5 -7 9 -18 9 -25z m-860 -14 c6 -11 9
-28 7 -37 -3 -12 -5 -11 -6 6 0 12 -6 22 -12 22 -7 0 -9 -11 -5 -31 3 -17 3
-43 -1 -57 -6 -25 -6 -25 -14 -4 -10 25 0 122 12 122 5 0 13 -9 19 -21z m-83
-161 c-2 -13 -4 -3 -4 22 0 25 2 35 4 23 2 -13 2 -33 0 -45z m35 35 c-5 -25
-6 -25 -13 -8 -11 29 -10 35 5 35 9 0 12 -8 8 -27z m-75 -60 c-3 -10 -5 -4 -5
12 0 17 2 24 5 18 2 -7 2 -21 0 -30z m92 -53 c1 -51 -2 -80 -8 -80 -14 0 -18
131 -4 153 9 14 10 6 12 -73z m-62 3 c-3 -10 -5 -2 -5 17 0 19 2 27 5 18 2
-10 2 -26 0 -35z m-33 -107 c-3 -15 -8 -25 -11 -23 -2 3 -1 17 3 31 3 15 8 25
11 23 2 -3 1 -17 -3 -31z m87 -39 c0 -12 5 -31 10 -42 7 -15 8 -12 4 15 -5 31
-4 32 5 11 6 -14 8 -37 5 -53 -4 -17 -2 -28 4 -28 6 0 11 8 11 18 0 14 2 14 9
3 6 -9 5 -23 -2 -38 -7 -16 -7 -30 0 -46 7 -15 8 -29 2 -38 -13 -20 -11 -35 3
-21 9 9 15 7 25 -6 13 -16 14 -15 9 6 -4 23 -4 23 15 6 11 -10 19 -12 19 -6 0
7 4 12 9 12 5 0 9 -11 9 -25 0 -27 -8 -31 -26 -13 -9 9 -16 7 -32 -7 -19 -17
-20 -17 -39 6 -23 27 -26 39 -11 39 6 0 10 11 10 25 0 16 -6 25 -15 25 -11 0
-15 12 -15 48 0 35 -6 54 -20 70 -21 22 -36 30 -25 13 3 -5 1 -12 -5 -16 -6
-4 -10 9 -9 32 0 29 2 33 8 18 8 -19 8 -19 15 3 9 27 26 20 27 -11z m809 -142
c0 -8 -5 -17 -10 -20 -16 -10 8 -35 26 -28 19 7 31 -27 13 -37 -7 -5 -17 -6
-21 -4 -4 3 -8 -4 -8 -15 0 -12 -5 -21 -11 -21 -5 0 -8 -4 -4 -9 3 -5 0 -13
-6 -17 -8 -4 -9 -3 -5 4 11 18 -2 14 -23 -7 -11 -11 -16 -23 -13 -27 4 -4 1
-4 -6 0 -9 6 -10 11 -3 20 6 7 8 16 4 19 -3 4 -2 7 4 7 17 0 50 33 58 58 6 21
5 23 -13 13 -12 -7 -23 -7 -26 -2 -4 5 -1 11 5 13 7 2 13 16 15 31 1 15 -2 25
-7 22 -10 -7 -13 8 -3 18 10 9 34 -4 34 -18z m81 11 c5 3 9 1 9 -4 0 -11 -30
-25 -38 -18 -2 3 -1 13 3 23 5 12 9 14 12 5 3 -6 9 -10 14 -6z m-118 -39 c3
-8 -1 -14 -8 -14 -7 0 -11 6 -8 14 3 7 6 13 8 13 2 0 5 -6 8 -13z m-63 -58
c-12 -7 -11 -10 8 -15 25 -7 28 -23 10 -43 -11 -11 -10 -12 2 -6 13 8 13 6 2
-8 -8 -9 -11 -21 -7 -26 3 -7 0 -8 -9 -5 -22 8 -25 36 -7 58 15 17 14 18 -4
16 -36 -4 -39 0 -15 25 13 14 26 22 29 19 3 -3 -1 -9 -9 -15z m-460 -59 c0 -5
-7 -7 -15 -4 -8 4 -15 8 -15 10 0 2 7 4 15 4 8 0 15 -4 15 -10z m391 1 c-7 -5
-11 -14 -7 -20 4 -7 -9 -13 -36 -17 -24 -4 -37 -9 -30 -12 27 -9 10 -19 -29
-16 -46 3 -65 13 -28 15 l24 1 -25 8 c-20 6 -15 8 20 7 35 -1 51 4 68 21 12
12 30 22 40 22 13 0 14 -2 3 -9z m-282 -27 c2 -2 -11 -4 -30 -4 -25 0 -30 -3
-19 -10 24 -15 7 -19 -20 -5 -16 9 -19 15 -10 15 10 1 9 4 -5 10 -13 6 -2 7
30 3 28 -3 52 -7 54 -9z m-114 -14 c-5 -16 -3 -19 12 -14 16 5 16 4 -1 -10
-23 -19 -35 -20 -56 -5 -13 9 -12 10 3 5 9 -3 17 -1 17 5 0 9 21 38 28 39 2 0
1 -9 -3 -20z m165 0 c13 -8 13 -10 -2 -10 -9 0 -20 5 -23 10 -8 13 5 13 25 0z
m67 -16 c-3 -3 -12 -4 -19 -1 -8 3 -5 6 6 6 11 1 17 -2 13 -5z m30 -60 c-3 -3
-12 -4 -19 -1 -8 3 -5 6 6 6 11 1 17 -2 13 -5z"/>
<path d="M5239 9879 c-10 -6 -7 -9 14 -9 29 0 35 5 14 13 -8 3 -20 1 -28 -4z"/>
<path d="M4830 9730 c0 -5 5 -10 10 -10 6 0 10 5 10 10 0 6 -4 10 -10 10 -5 0
-10 -4 -10 -10z"/>
<path d="M5540 9700 c0 -5 5 -10 10 -10 6 0 10 5 10 10 0 6 -4 10 -10 10 -5 0
-10 -4 -10 -10z"/>
<path d="M4775 8980 c3 -5 8 -10 11 -10 2 0 4 5 4 10 0 6 -5 10 -11 10 -5 0
-7 -4 -4 -10z"/>
<path d="M5540 9014 c0 -8 5 -12 10 -9 6 3 10 10 10 16 0 5 -4 9 -10 9 -5 0
-10 -7 -10 -16z"/>
<path d="M7986 9863 c-4 -14 -6 -65 -5 -112 l2 -85 -57 2 -56 1 0 -54 0 -55
50 0 c28 0 50 4 50 9 0 5 -18 7 -40 4 -37 -5 -40 -4 -39 18 1 19 2 20 6 5 4
-13 7 -15 13 -7 11 18 90 -7 90 -28 0 -14 -2 -14 -10 -1 -6 10 -10 -79 -10
-260 0 -151 4 -270 8 -265 4 6 13 10 20 9 6 -1 17 -2 22 -3 6 0 10 -5 10 -11
0 -5 11 -20 24 -33 l23 -23 17 30 c13 26 16 73 19 294 l2 263 110 2 110 2 3
51 3 51 -132 2 c-90 2 -129 -1 -124 -8 3 -6 2 -11 -3 -11 -16 0 -22 13 -12 25
5 6 11 47 13 90 l3 80 2 -82 c3 -123 22 -104 22 22 l0 105 -64 0 c-61 0 -64
-1 -70 -27z m108 -1 c3 -5 -6 -15 -19 -22 -22 -12 -24 -21 -27 -84 -2 -39 -7
-71 -13 -71 -16 0 -19 146 -3 157 9 7 4 8 -15 5 -16 -2 -25 -1 -20 3 7 7 27
12 80 19 6 0 14 -3 17 -7z m-86 -219 c-4 -23 -31 -28 -69 -11 l-30 13 38 6
c63 10 65 10 61 -8z m52 -23 c6 -11 16 -17 22 -14 7 5 9 2 5 -9 -3 -9 -2 -19
3 -22 6 -4 10 1 10 10 0 9 5 13 10 10 7 -4 7 -12 0 -25 -6 -11 -10 -126 -11
-282 0 -145 -3 -271 -7 -280 -4 -10 -5 102 -4 249 2 146 0 268 -5 272 -12 9
-42 57 -53 86 -7 19 -6 25 5 25 8 0 19 -9 25 -20z m-120 -2 c0 -11 -22 -10
-40 2 -11 8 -9 9 13 8 15 -1 27 -6 27 -10z m386 -16 c1 -18 1 -19 -3 -2 -4 18
-12 20 -84 20 -43 0 -78 -3 -78 -7 3 -21 -2 -33 -16 -33 -14 0 -18 10 -12 27
1 4 -11 11 -28 14 -16 3 26 6 95 5 122 -1 125 -1 126 -24z m-349 2 c-3 -3 -12
-4 -19 -1 -8 3 -5 6 6 6 11 1 17 -2 13 -5z m49 -78 c17 -17 20 -166 4 -166 -6
0 -10 33 -10 80 0 66 -3 80 -16 80 -8 0 -12 5 -9 10 8 13 14 13 31 -4z m-29
-308 c-2 -13 -4 -3 -4 22 0 25 2 35 4 23 2 -13 2 -33 0 -45z"/>
<path d="M7195 9683 c-16 -2 -37 -7 -45 -10 -8 -4 -22 -7 -31 -8 -36 -4 -114
-50 -159 -95 -90 -89 -141 -243 -125 -385 3 -36 10 -63 14 -61 4 3 8 -8 8 -24
0 -34 52 -142 67 -137 5 2 12 9 14 17 3 7 0 10 -7 6 -7 -5 -9 -1 -4 10 4 12 3
15 -5 10 -7 -4 -12 -1 -12 8 0 9 -5 15 -11 14 -6 -2 -13 9 -16 25 -2 15 1 27
7 27 5 0 10 -8 10 -18 0 -11 8 -26 18 -36 18 -16 19 -15 20 14 0 17 -6 43 -14
58 -17 33 -18 65 -1 60 6 -3 13 -18 15 -36 2 -17 10 -36 19 -44 15 -11 16 -11
10 5 -9 24 3 54 14 35 13 -19 11 -36 -2 -18 -9 12 -10 12 -5 -3 3 -10 1 -28
-5 -39 -8 -15 -8 -19 0 -14 17 11 13 -23 -4 -40 -19 -19 -19 -34 -1 -34 8 0
16 -5 18 -12 3 -8 9 -8 24 0 10 6 13 12 7 12 -7 0 -13 5 -13 11 0 6 14 8 33 6
17 -2 31 -9 30 -15 -2 -7 4 -9 15 -5 12 4 10 -2 -9 -23 -36 -40 -42 -61 -21
-73 9 -6 13 -10 7 -10 -12 0 -55 34 -55 44 0 4 7 2 15 -5 12 -10 15 -10 15 4
0 9 -5 16 -12 16 -6 0 -3 9 7 20 18 20 18 20 -13 9 -18 -6 -32 -15 -32 -21 0
-5 -5 -6 -10 -3 -6 4 -8 11 -4 16 3 5 0 8 -8 7 -7 -2 -12 4 -10 12 3 12 1 13
-9 2 -11 -10 -6 -19 24 -50 51 -52 136 -98 151 -81 8 9 7 10 -6 6 -33 -12 -18
4 17 19 32 13 45 13 117 -1 45 -8 84 -18 87 -22 3 -3 -5 -3 -18 0 -14 3 -30 2
-37 -4 -9 -7 -29 -5 -65 5 -55 17 -119 22 -69 6 24 -8 24 -8 3 -9 -36 -2 -27
-18 15 -25 58 -9 123 -7 167 6 22 6 43 11 46 10 15 -3 115 65 125 86 6 12 15
26 19 30 5 4 5 1 0 -7 -6 -10 -4 -12 4 -7 7 5 10 15 7 23 -3 8 -1 11 4 8 6 -3
13 1 16 9 10 25 32 19 32 -9 0 -14 -6 -25 -12 -25 -6 0 -4 -5 4 -10 12 -8 13
-12 2 -19 -8 -5 -12 -23 -10 -47 l3 -39 68 -3 67 -3 0 429 0 428 -70 0 c-61 0
-70 -3 -70 -18 0 -10 8 -18 18 -19 48 -3 98 4 105 14 5 7 5 1 1 -13 -9 -34
-13 -37 -25 -20 -8 11 -12 12 -16 3 -2 -7 -12 -13 -22 -13 -9 0 -22 -5 -29
-12 -9 -9 -14 -6 -21 13 -9 21 -10 19 -10 -18 -1 -45 11 -56 28 -26 7 14 9 13
8 -9 -2 -22 -6 -25 -30 -24 -16 1 -30 -1 -32 -5 -9 -14 17 -69 33 -69 15 -1
16 -2 1 -13 -9 -7 -19 -19 -22 -27 -4 -8 -5 -3 -2 13 4 21 2 27 -12 27 -26 0
-49 39 -32 54 9 8 11 7 6 -6 -4 -10 -2 -18 3 -18 18 0 10 29 -10 40 -16 9 -20
8 -20 -5 0 -14 -3 -14 -24 2 -13 10 -21 22 -18 28 3 5 7 4 10 -3 4 -14 22 -16
22 -3 0 5 -9 13 -20 16 -11 4 -18 11 -15 16 3 5 -1 6 -9 3 -11 -4 -16 0 -16
11 0 15 -2 16 -16 4 -15 -12 -14 -15 12 -26 16 -7 23 -12 16 -13 -7 0 -27 7
-43 16 -17 8 -37 13 -45 10 -9 -3 -12 -1 -9 4 3 6 0 10 -7 10 -9 0 -9 3 2 10
9 6 10 10 3 10 -21 0 -43 -12 -37 -21 3 -5 -3 -6 -12 -2 -11 4 -13 8 -6 11 7
2 10 8 7 13 -4 5 2 6 12 2 16 -6 16 -5 4 10 -7 9 -27 17 -44 17 -40 0 -23 16
24 23 32 5 36 3 32 -13 -6 -22 31 -36 69 -25 20 6 20 4 -5 -13 -24 -16 -26
-20 -12 -26 23 -8 27 -8 20 4 -11 18 38 32 69 20 25 -9 27 -12 15 -27 -12 -15
-12 -16 3 -10 13 4 15 2 11 -10 -5 -12 -1 -14 18 -9 13 3 18 3 12 0 -22 -10
-14 -22 12 -20 14 0 25 4 25 7 0 4 -21 25 -46 48 -57 54 -97 71 -204 91 -47 9
-48 9 -95 3z m-29 -28 c-15 -8 -36 -15 -45 -15 -9 0 -23 -5 -31 -10 -12 -7 -7
-12 23 -25 21 -9 43 -15 50 -14 24 3 80 -1 76 -6 -10 -9 -109 -14 -109 -5 0
22 -53 9 -82 -20 -16 -16 -40 -30 -52 -30 -12 0 -27 -5 -34 -12 -9 -9 -12 -9
-12 1 0 7 -5 9 -11 5 -8 -4 -7 -9 2 -15 7 -4 10 -11 6 -15 -4 -4 -12 -3 -19 4
-13 13 6 42 28 42 8 0 14 5 14 10 0 17 35 47 50 42 8 -3 10 0 6 9 -4 8 0 5 8
-5 9 -11 16 -14 16 -8 0 7 8 13 18 13 16 1 16 2 0 6 -29 7 -21 19 25 33 23 7
46 17 52 22 5 4 18 8 30 8 17 0 15 -3 -9 -15z m44 -11 c0 -4 -8 -13 -17 -20
-20 -15 -83 -19 -83 -5 0 4 10 6 23 4 12 -2 31 3 42 11 21 16 35 20 35 10z
m150 -3 c0 -5 -9 -7 -20 -4 -11 3 -20 7 -20 9 0 2 9 4 20 4 11 0 20 -4 20 -9z
m-126 -33 c-3 -4 -9 -8 -15 -8 -5 0 -9 4 -9 8 0 5 7 9 15 9 8 0 12 -4 9 -9z
m158 -66 c55 -24 110 -80 140 -141 20 -39 23 -62 23 -156 0 -60 -4 -119 -9
-129 -7 -15 -6 -17 4 -11 8 5 11 3 8 -6 -3 -8 -10 -13 -16 -12 -5 1 -15 -11
-22 -27 -7 -17 -16 -30 -21 -30 -5 0 -9 -6 -9 -14 0 -14 -64 -60 -107 -77 -14
-5 -54 -13 -89 -18 -53 -8 -71 -6 -116 11 -50 18 -119 62 -126 80 -2 4 -9 8
-15 8 -7 0 -21 8 -32 16 -20 16 -20 16 3 9 21 -6 22 -5 10 14 -9 15 -15 17
-21 8 -6 -8 -7 -4 -4 9 2 12 -1 45 -9 73 -17 65 -19 136 -5 179 5 18 7 40 4
48 -3 8 0 14 7 14 6 0 2 13 -10 30 -12 17 -26 28 -31 25 -5 -4 -9 0 -10 7 0
10 -2 10 -6 1 -2 -7 -9 -13 -15 -13 -6 0 -6 6 2 15 7 8 16 13 20 10 5 -3 11 4
15 15 9 28 28 14 22 -16 -7 -36 9 -39 22 -4 5 17 15 30 20 30 15 0 14 -4 -10
-44 -12 -20 -16 -36 -11 -36 6 0 13 8 16 18 3 10 31 42 62 72 31 30 54 49 50
43 -5 -9 -2 -11 8 -7 9 3 13 11 9 17 -3 5 -1 7 5 4 5 -4 21 -3 34 3 35 15 160
4 210 -18z m-324 -29 c-21 -22 -59 -23 -82 -2 -5 4 0 5 11 3 12 -3 24 -1 27 5
4 5 13 8 20 5 8 -3 16 4 20 18 5 19 8 20 16 8 6 -10 3 -21 -12 -37z m587 27
c18 -19 17 -20 -4 -20 -14 0 -25 -9 -31 -24 -12 -32 -30 -42 -30 -17 0 20 31
81 41 81 3 0 14 -9 24 -20z m26 -75 c-5 -26 -14 -50 -19 -54 -6 -3 -10 -15 -9
-26 1 -14 -3 -19 -15 -17 -15 2 -18 -5 -18 -38 0 -28 -5 -43 -16 -47 -17 -6
-34 13 -33 37 1 11 3 10 6 -2 7 -28 21 -21 15 7 -2 14 -8 23 -12 20 -4 -3 -11
11 -15 31 -3 20 -5 37 -3 38 2 1 10 7 18 13 12 9 15 6 17 -20 1 -24 -1 -27 -6
-13 -6 17 -8 17 -14 3 -3 -8 1 -21 8 -27 11 -9 19 -6 39 15 21 22 42 88 36
111 -2 7 22 25 27 20 2 -1 -1 -24 -6 -51z m-776 -11 c-12 -24 -15 -25 -15 -8
0 11 5 25 12 32 18 18 20 8 3 -24z m35 -60 c0 -24 -4 -34 -12 -31 -7 2 -13 9
-12 15 1 7 2 21 3 32 2 35 21 21 21 -16z m27 -11 c-3 -10 -5 -4 -5 12 0 17 2
24 5 18 2 -7 2 -21 0 -30z m-83 -9 c12 -5 16 -20 16 -60 0 -48 -2 -54 -21 -54
-11 0 -18 -4 -15 -8 2 -4 0 -14 -5 -22 -6 -11 -9 -3 -7 25 1 22 6 46 11 52 5
7 7 26 5 43 -3 16 -3 30 -2 30 1 0 9 -3 18 -6z m80 -33 c3 -5 -1 -22 -9 -37
l-15 -29 0 38 c0 35 12 48 24 28z m723 -53 c-2 -13 -4 -3 -4 22 0 25 2 35 4
23 2 -13 2 -33 0 -45z m-89 -91 c2 -41 7 -57 17 -57 8 0 17 5 20 10 4 6 11 8
16 5 12 -8 12 -72 -1 -80 -13 -8 -50 30 -51 53 0 14 -2 14 -9 -3 -4 -11 -6
-37 -3 -57 4 -25 2 -38 -6 -38 -6 0 -11 5 -11 11 0 5 -4 7 -10 4 -5 -3 -10
-15 -10 -26 0 -21 -57 -62 -73 -52 -14 9 33 52 51 46 11 -5 14 -2 9 10 -3 9
-3 17 2 17 13 0 32 51 26 70 -3 11 0 20 10 24 8 3 15 16 15 28 0 19 -2 20 -10
8 -7 -11 -10 0 -10 38 0 75 24 65 28 -11z m-648 28 c0 -17 -4 -23 -14 -19 -8
3 -12 13 -9 25 7 27 23 24 23 -6z m700 -6 c0 -5 -4 -9 -10 -9 -5 0 -10 7 -10
16 0 8 5 12 10 9 6 -3 10 -10 10 -16z m-773 -31 c-3 -8 -6 -5 -6 6 -1 11 2 17
5 13 3 -3 4 -12 1 -19z m-20 -20 c-3 -7 -5 -2 -5 12 0 14 2 19 5 13 2 -7 2
-19 0 -25z m827 16 c9 -22 8 -24 -9 -18 -8 4 -15 12 -15 20 0 19 16 18 24 -2z
m-807 -46 c-3 -7 -5 -2 -5 12 0 14 2 19 5 13 2 -7 2 -19 0 -25z m-6 -41 c-10
-9 -11 -8 -5 6 3 10 9 15 12 12 3 -3 0 -11 -7 -18z m819 -43 c0 -6 -7 -14 -15
-18 -8 -3 -15 -18 -15 -33 -1 -24 -2 -26 -11 -10 -7 13 -7 26 2 46 12 28 39
38 39 15z m-70 -39 c0 -8 -4 -15 -10 -15 -5 0 -10 7 -10 15 0 8 5 15 10 15 6
0 10 -7 10 -15z m-40 -5 c0 -5 -5 -10 -11 -10 -5 0 -7 5 -4 10 3 6 8 10 11 10
2 0 4 -4 4 -10z m-83 -56 c15 5 14 3 -2 -10 -11 -8 -27 -19 -35 -24 -8 -5 -11
-12 -6 -17 5 -4 11 -2 13 5 3 6 10 12 16 12 6 0 -2 -13 -17 -29 -17 -18 -34
-27 -44 -24 -10 4 -13 2 -8 -5 5 -8 1 -10 -10 -5 -13 5 -15 3 -9 -7 5 -9 4
-11 -3 -6 -7 4 -12 2 -12 -5 0 -8 -4 -8 -12 -1 -7 5 -22 12 -33 15 -17 4 -16
5 5 6 19 2 13 7 -28 22 -29 12 -52 23 -49 25 2 2 20 -3 40 -11 44 -18 61 -19
29 -1 -22 12 -20 14 43 31 37 10 69 24 72 32 4 10 9 11 19 2 8 -6 22 -8 31 -5z
m190 -16 c-3 -8 -6 -5 -6 6 -1 11 2 17 5 13 3 -3 4 -12 1 -19z m-39 -55 c-3
-55 -28 -73 -28 -21 0 45 10 79 21 72 5 -3 8 -26 7 -51z m-443 22 c50 -24 50
-24 15 -22 -19 1 -41 6 -48 11 -16 10 -45 0 -38 -13 8 -12 -18 -21 -42 -14
-27 7 -17 33 13 33 13 0 31 3 40 6 13 5 14 8 3 15 -28 18 9 8 57 -16z m394
-51 c-6 -7 -8 -18 -4 -23 3 -7 0 -8 -9 -5 -16 6 -22 45 -9 57 3 4 12 2 20 -4
10 -9 10 -15 2 -25z"/>
<path d="M6990 9550 c0 -5 5 -10 10 -10 6 0 10 5 10 10 0 6 -4 10 -10 10 -5 0
-10 -4 -10 -10z"/>
<path d="M6961 9464 c0 -11 3 -14 6 -6 3 7 2 16 -1 19 -3 4 -6 -2 -5 -13z"/>
<path d="M7489 8983 c-13 -16 -12 -17 4 -4 9 7 17 15 17 17 0 8 -8 3 -21 -13z"/>
<path d="M7365 8910 c-28 -7 -28 -8 -5 -9 14 -1 37 -8 52 -15 15 -8 30 -11 33
-6 3 5 -8 11 -25 15 -17 4 -28 11 -24 16 3 5 4 8 2 8 -2 -1 -16 -5 -33 -9z"/>
<path d="M7363 8871 c1 -16 5 -17 24 -8 17 8 20 13 11 19 -22 13 -37 9 -35
-11z"/>
<path d="M6031 9521 c-9 -6 -10 -11 -2 -15 6 -4 11 -2 11 4 0 6 5 8 12 4 7 -4
8 -3 4 4 -8 14 -7 14 -25 3z"/>
<path d="M4603 9365 c0 -27 2 -38 4 -22 2 15 2 37 0 50 -2 12 -4 0 -4 -28z"/>
<path d="M4689 9160 c-5 -29 -4 -52 2 -56 13 -7 22 37 10 49 -6 6 -11 9 -12 7z"/>
<path d="M6943 9012 c-1 -22 0 -24 9 -8 6 10 6 22 2 26 -5 5 -10 -3 -11 -18z"/>
<path d="M7996 9023 c-12 -13 -5 -65 14 -103 23 -45 64 -76 94 -72 17 2 18 1
7 -7 -21 -14 44 -25 149 -25 l85 -1 3 58 3 57 -69 0 c-109 0 -132 7 -149 48
l-15 35 -19 -42 c-10 -23 -27 -53 -38 -67 -15 -20 -20 -21 -25 -8 -4 10 -2 13
6 8 8 -5 9 0 3 17 -4 13 -9 41 -12 61 -5 34 -23 55 -37 41z m186 -101 c44 -14
46 -16 30 -29 -16 -13 -15 -14 8 -9 14 4 44 9 68 12 35 6 42 4 42 -10 0 -13
-11 -16 -52 -17 -29 0 -71 -4 -93 -9 -30 -6 -17 -7 50 -5 l90 4 -73 -9 c-40
-4 -85 -11 -100 -14 -18 -5 -22 -4 -13 3 10 6 5 11 -20 17 -19 4 -37 8 -41 8
-19 2 -19 18 1 23 13 3 20 11 17 19 -3 8 -1 14 4 14 11 0 24 -21 25 -39 0 -16
25 -28 25 -12 0 6 12 17 28 25 15 8 23 15 17 15 -5 1 -17 -4 -25 -9 -21 -13
-60 26 -60 59 l0 26 13 -24 c8 -15 29 -29 59 -39z"/>
<path d="M8168 8873 c7 -3 16 -2 19 1 4 3 -2 6 -13 5 -11 0 -14 -3 -6 -6z"/>
<path d="M8050 8951 c0 -3 4 -12 9 -19 6 -11 9 -9 13 5 3 12 0 20 -8 20 -8 0
-14 -3 -14 -6z"/>
<path d="M4843 8923 c9 -9 20 -13 24 -9 4 4 1 11 -7 16 -25 16 -35 11 -17 -7z"/>
<path d="M7146 8229 c-154 -36 -289 -163 -336 -318 -20 -62 -20 -109 -20
-3005 0 -2077 3 -2960 11 -3001 23 -126 118 -259 228 -319 108 -58 54 -56
1401 -56 1078 0 1243 2 1295 15 161 42 280 159 329 324 15 50 16 321 16 3011
0 3240 4 3008 -58 3124 -35 65 -113 143 -178 178 -112 61 -52 58 -1409 57
-707 -1 -1257 -5 -1279 -10z m942 -1982 c2 -12 -3 -17 -17 -17 -15 0 -21 6
-21 21 0 25 33 22 38 -4z m553 8 c1 -8 3 -19 4 -25 1 -5 3 -16 4 -24 1 -11 10
-13 35 -9 29 4 37 1 51 -21 23 -34 13 -89 -18 -104 -12 -6 -40 -10 -62 -8
l-40 2 -3 89 c-2 48 -1 94 2 102 7 18 26 17 27 -2z m489 -25 c0 -39 1 -39 30
-34 46 10 60 -9 60 -77 0 -46 -3 -59 -15 -59 -11 0 -15 12 -15 48 0 55 -14 76
-42 61 -14 -7 -18 -21 -18 -59 0 -38 -4 -50 -15 -50 -12 0 -15 18 -15 105 0
87 3 105 15 105 11 0 15 -11 15 -40z m-1500 -55 l0 -85 35 0 c24 0 35 -5 35
-15 0 -12 -13 -15 -55 -15 l-55 0 0 100 c0 93 1 100 20 100 18 0 20 -7 20 -85z
m770 18 c13 -38 26 -72 30 -76 3 -4 17 26 31 68 13 42 29 75 36 75 17 0 16
-20 -1 -67 -8 -21 -21 -59 -31 -85 -27 -77 -47 -66 -84 45 -36 106 -36 107
-17 107 9 0 23 -26 36 -67z m170 52 c0 -8 -7 -15 -15 -15 -8 0 -15 7 -15 15 0
8 7 15 15 15 8 0 15 -7 15 -15z m494 0 c4 -12 -3 -15 -32 -15 -55 0 -77 -19
-77 -70 0 -49 23 -72 70 -69 47 2 51 -1 31 -16 -54 -41 -136 9 -136 82 0 43
21 80 54 93 35 14 83 12 90 -5z m376 -25 c0 -14 7 -20 23 -21 l22 0 -22 -16
c-27 -18 -32 -80 -8 -89 21 -8 19 -34 -3 -34 -29 0 -42 21 -42 71 0 29 -5 49
-12 52 -9 4 -10 8 -2 14 6 4 13 16 17 26 9 23 27 22 27 -3z m-1596 -42 c38
-53 5 -118 -59 -118 -46 0 -75 29 -75 74 0 43 29 66 82 66 27 0 41 -6 52 -22z
m176 -59 c0 -71 -3 -83 -25 -104 -26 -27 -82 -34 -103 -13 -21 21 -13 28 23
24 23 -3 40 1 50 10 21 22 19 36 -6 29 -58 -19 -99 29 -79 91 13 39 19 42 88
42 l52 0 0 -79z m70 11 c0 -63 -2 -70 -20 -70 -18 0 -20 7 -20 70 0 63 2 70
20 70 18 0 20 -7 20 -70z m155 47 c8 -12 15 -43 15 -69 0 -45 -2 -48 -26 -48
-21 0 -24 3 -19 21 11 35 -3 89 -24 89 -23 0 -31 -19 -31 -71 0 -32 -3 -39
-20 -39 -18 0 -20 7 -20 69 l0 69 55 1 c45 0 57 -4 70 -22z m325 -47 c0 -56
-3 -70 -15 -70 -12 0 -15 14 -15 70 0 56 3 70 15 70 12 0 15 -14 15 -70z m310
50 c11 -11 20 -29 20 -40 0 -17 -7 -20 -50 -20 -27 0 -50 -5 -50 -10 0 -16 45
-30 71 -23 21 6 23 5 10 -10 -18 -23 -67 -21 -91 3 -26 26 -25 68 2 97 26 28
61 30 88 3z m475 -4 c10 -15 15 -40 13 -67 l-3 -43 -45 -2 c-51 -3 -70 8 -70
42 0 19 8 25 40 34 22 6 40 15 40 21 0 16 -27 21 -49 9 -17 -8 -21 -8 -21 4 0
34 74 35 95 2z m-2258 -374 c19 -3 22 2 26 40 l4 43 1 -43 c2 -31 -2 -44 -14
-49 -28 -11 -49 11 -50 53 l-2 39 7 -40 c5 -31 11 -41 28 -43z m67 33 c3 -8 1
-15 -4 -15 -6 0 -10 7 -10 15 0 8 2 15 4 15 2 0 6 -7 10 -15z m51 -5 c-3 -15
3 -24 18 -30 l22 -9 -23 0 c-24 -1 -38 20 -28 44 8 22 15 18 11 -5z m45 -1 c0
-5 -4 -9 -10 -9 -5 0 -10 7 -10 16 0 8 5 12 10 9 6 -3 10 -10 10 -16z m24 6
c-4 -8 -8 -15 -10 -15 -2 0 -4 7 -4 15 0 8 4 15 10 15 5 0 7 -7 4 -15z m48
-15 c-2 -16 -6 -30 -8 -30 -2 0 -4 14 -4 30 0 17 4 30 8 30 5 0 7 -13 4 -30z
m35 -17 c-3 -10 -5 -2 -5 17 0 19 2 27 5 18 2 -10 2 -26 0 -35z m73 11 c0 -18
-5 -24 -23 -24 -35 0 -40 11 -15 36 27 25 38 22 38 -12z m30 14 c0 -19 -2 -20
-10 -8 -13 19 -13 30 0 30 6 0 10 -10 10 -22z m40 -8 c0 -16 -2 -30 -4 -30 -2
0 -6 14 -8 30 -3 17 -1 30 4 30 4 0 8 -13 8 -30z m38 5 c-3 -3 -9 2 -12 12 -6
14 -5 15 5 6 7 -7 10 -15 7 -18z m31 18 c-4 -25 3 -42 19 -46 12 -4 11 -5 -6
-6 -24 -1 -38 20 -28 44 6 15 17 21 15 8z m41 -14 c0 -5 -4 -9 -8 -9 -5 0 -9
7 -9 15 0 8 4 12 9 9 4 -3 8 -9 8 -15z m-435 -29 c-3 -5 -14 -10 -23 -9 -14 0
-13 2 3 9 27 11 27 11 20 0z m35 -290 c0 -5 6 -10 14 -10 8 0 16 -5 18 -11 3
-9 10 -8 25 2 17 10 24 10 36 0 10 -7 18 -8 21 -2 4 5 31 10 62 10 40 0 57 -5
61 -16 5 -13 7 -13 15 1 5 9 16 16 23 16 8 0 15 5 15 10 0 6 5 10 10 10 6 0
10 -7 10 -15 0 -8 6 -14 13 -12 7 1 13 -10 15 -25 4 -38 22 -36 22 2 0 17 5
30 10 30 6 0 10 -16 10 -35 l0 -34 -57 0 c-32 1 -64 6 -70 11 -9 7 -13 7 -13
-1 0 -6 -4 -11 -10 -11 -5 0 -10 11 -10 25 0 14 -4 25 -10 25 -5 0 -10 -11
-10 -25 0 -20 -5 -25 -25 -25 -20 0 -25 5 -25 25 0 14 -4 25 -10 25 -5 0 -10
-11 -10 -25 0 -20 -5 -25 -27 -26 -16 -1 -32 0 -38 1 -5 2 -18 2 -27 2 -13 -1
-18 7 -18 24 0 13 -4 24 -10 24 -5 0 -10 -12 -10 -26 0 -16 -5 -24 -12 -21 -7
2 -23 0 -36 -4 -19 -7 -25 -4 -34 17 -10 20 -9 28 5 42 14 14 21 14 37 4 17
-11 20 -10 20 8 0 11 5 20 10 20 6 0 10 -4 10 -10z m308 -411 c-21 -14 -34
-10 -15 4 10 7 17 21 16 32 -1 11 -1 29 1 40 2 11 5 0 7 -24 3 -29 0 -47 -9
-52z m-491 19 c-2 -13 -4 -3 -4 22 0 25 2 35 4 23 2 -13 2 -33 0 -45z m43 43
c0 -11 -3 -22 -7 -24 -5 -3 -8 6 -8 19 0 13 3 24 8 24 4 0 7 -9 7 -19z m113
-63 c-2 -5 -12 -8 -21 -8 -15 0 -15 2 -2 10 13 9 13 12 -3 21 -9 6 -15 15 -11
20 3 5 14 -1 24 -13 10 -13 16 -26 13 -30z m52 3 c-3 -6 -14 -10 -23 -10 -15
1 -15 2 1 6 21 5 23 23 2 23 -8 0 -15 7 -15 15 0 13 4 12 21 -4 12 -11 18 -24
14 -30z m49 35 c12 16 13 16 19 0 4 -10 11 -14 17 -11 5 3 10 -1 10 -9 0 -25
-17 -27 -24 -3 l-6 22 -13 -23 -13 -23 -12 26 c-15 32 -15 47 -1 22 10 -17 12
-17 23 -1z m124 -17 c-3 -8 -7 -3 -11 10 -4 17 -3 21 5 13 5 -5 8 -16 6 -23z
m-278 -4 c0 -20 -5 -25 -25 -25 -25 0 -35 23 -15 35 6 3 7 -1 4 -9 -4 -11 0
-16 10 -16 9 0 16 8 16 20 0 11 2 20 5 20 3 0 5 -11 5 -25z m347 -7 c-3 -7 -5
-2 -5 12 0 14 2 19 5 13 2 -7 2 -19 0 -25z m-97 -334 c0 -8 -35 -12 -130 -12
-117 0 -141 4 -125 20 3 3 61 5 130 5 91 0 125 -4 125 -13z m-43 -351 c-2 -16
-4 -5 -4 22 0 28 2 40 4 28 2 -13 2 -35 0 -50z m-345 5 c2 -21 0 -38 -4 -38
-4 0 -8 21 -7 48 1 52 6 48 11 -10z m58 13 c0 -16 -8 -35 -17 -42 -16 -13 -17
-12 -4 3 7 10 11 31 9 47 -2 17 -1 28 4 25 4 -3 8 -18 8 -33z m1225 -3 c-10
-13 -14 -16 -11 -8 3 8 9 24 13 35 4 11 8 14 11 7 2 -6 -4 -22 -13 -34z m-51
-12 c1 -19 -2 -32 -6 -29 -5 2 -8 20 -8 40 0 46 13 36 14 -11z m-1100 11 c8
-12 7 -20 -2 -29 -11 -11 -12 -9 -6 6 5 13 1 24 -12 34 -10 8 -13 12 -5 10 8
-2 19 -12 25 -21z m72 -2 c3 -13 4 -30 1 -37 -3 -7 -6 -2 -6 13 -1 14 -6 30
-13 37 -9 9 -9 12 0 12 6 0 14 -11 18 -25z m69 -9 c0 -41 -11 -38 -17 4 -3 17
0 30 6 30 6 0 11 -15 11 -34z m111 -7 c2 -31 1 -31 -3 -4 -3 16 -10 34 -16 38
-8 6 -7 7 3 4 9 -2 16 -17 16 -38z m64 21 c7 -14 7 -20 0 -20 -5 0 -10 6 -10
14 0 8 -6 17 -12 19 -10 4 -10 6 -1 6 7 1 17 -8 23 -19z m128 8 c15 -15 16
-28 2 -28 -5 0 -9 6 -7 13 1 6 -6 11 -15 11 -10 -1 -15 2 -12 7 7 12 18 11 32
-3z m472 -9 c12 -22 -1 -49 -24 -49 -6 0 -4 5 6 10 23 14 12 53 -13 47 -11 -3
-17 -1 -13 4 9 16 33 10 44 -12z m122 9 c-5 -7 -12 -24 -15 -38 -4 -22 -4 -21
-6 7 -1 26 6 38 28 42 2 1 -1 -5 -7 -11z m-1003 -5 c0 -5 -4 -17 -9 -28 -8
-18 -9 -17 -9 8 -1 15 4 27 9 27 6 0 10 -3 9 -7z m336 -14 c4 12 9 20 12 18 2
-3 -2 -18 -10 -34 l-15 -28 -11 28 c-15 38 -13 47 3 18 l14 -24 7 22z m181
-25 c-6 -16 -42 -19 -52 -3 -3 6 -1 16 5 22 9 9 11 8 5 -7 -5 -14 -3 -17 12
-14 14 2 18 11 16 28 -2 22 -1 23 9 7 6 -10 8 -25 5 -33z m34 36 c0 -5 -2 -10
-4 -10 -3 0 -8 5 -11 10 -3 6 -1 10 4 10 6 0 11 -4 11 -10z m37 -37 c-3 -10
-5 -2 -5 17 0 19 2 27 5 18 2 -10 2 -26 0 -35z m103 17 c0 -16 -4 -30 -8 -30
-5 0 -7 14 -4 30 2 17 6 30 8 30 2 0 4 -13 4 -30z m28 13 c-1 -10 1 -25 6 -33
7 -11 4 -11 -9 2 -10 9 -15 23 -12 32 8 21 19 20 15 -1z m194 -12 c2 -17 1
-28 -4 -25 -8 5 -12 54 -4 54 2 0 6 -13 8 -29z m115 -8 c-3 -10 -5 -4 -5 12 0
17 2 24 5 18 2 -7 2 -21 0 -30z m-640 11 c-3 -3 -12 -4 -19 -1 -8 3 -5 6 6 6
11 1 17 -2 13 -5z m260 -16 c-3 -8 -6 -5 -6 6 -1 11 2 17 5 13 3 -3 4 -12 1
-19z m187 6 c3 -8 2 -12 -4 -9 -6 3 -10 10 -10 16 0 14 7 11 14 -7z m-899 -23
c-6 -5 -25 10 -25 20 0 5 6 4 14 -3 8 -7 12 -15 11 -17z m846 12 c13 -16 12
-17 -3 -4 -10 7 -18 15 -18 17 0 8 8 3 21 -13z m174 8 c3 -5 1 -12 -5 -16 -5
-3 -10 1 -10 9 0 18 6 21 15 7z m-565 -11 c8 -5 11 -10 5 -10 -5 0 -17 5 -25
10 -8 5 -10 10 -5 10 6 0 17 -5 25 -10z m1534 -79 c417 -1 761 1 763 3 3 3 11
2 19 -1 11 -4 14 -42 12 -212 l-2 -206 -6 165 -5 165 -5 -160 -5 -160 -1418
-1 c-1322 -1 -1418 0 -1414 16 3 11 -2 16 -17 16 -27 -1 -33 29 -35 169 -1
129 11 185 39 185 11 0 20 6 20 13 0 9 135 12 647 10 357 -1 990 -2 1407 -2z
m-1794 -855 c0 -3 -4 -8 -10 -11 -5 -3 -10 -1 -10 4 0 6 5 11 10 11 6 0 10 -2
10 -4z m55 -36 c29 0 39 -14 31 -46 -5 -19 -13 -24 -36 -24 -30 0 -30 0 -29
58 1 31 4 47 6 35 3 -16 11 -23 28 -23z m235 21 c0 -13 8 -21 23 -23 17 -2 23
-11 25 -35 2 -19 -1 -33 -7 -33 -6 0 -11 14 -11 31 0 38 -24 35 -28 -4 -6 -49
-22 -28 -22 28 0 30 5 55 10 55 6 0 10 -9 10 -19z m580 -42 c0 -27 -4 -49 -10
-49 -5 0 -10 25 -10 56 0 34 4 53 10 49 6 -3 10 -28 10 -56z m330 5 l0 -55
-32 3 c-29 3 -33 6 -33 33 0 23 5 31 23 33 14 2 22 10 22 23 0 10 5 19 10 19
6 0 10 -25 10 -56z m80 37 c0 -13 8 -21 23 -23 17 -2 22 -10 22 -33 0 -27 -4
-30 -32 -33 l-33 -3 0 55 c0 31 5 56 10 56 6 0 10 -9 10 -19z m290 0 c0 -13 8
-21 23 -23 17 -2 23 -11 25 -35 4 -39 -15 -45 -20 -6 -4 39 -28 42 -28 4 0
-17 -4 -31 -10 -31 -5 0 -10 25 -10 55 0 30 5 55 10 55 6 0 10 -9 10 -19z
m210 15 c0 -3 -4 -8 -10 -11 -5 -3 -10 -1 -10 4 0 6 5 11 10 11 6 0 10 -2 10
-4z m166 -48 c-2 -51 -3 -53 -33 -56 -21 -2 -32 2 -37 14 -11 28 3 54 30 54
17 0 24 5 24 20 0 11 4 20 10 20 5 0 8 -24 6 -52z m454 -4 l0 -55 -32 3 c-27
2 -34 8 -36 30 -2 18 3 30 16 37 11 6 22 7 26 4 3 -3 6 3 6 15 0 12 5 22 10
22 6 0 10 -25 10 -56z m-2720 1 c0 -11 -5 -27 -10 -35 -7 -11 -10 -1 -10 35 0
36 3 46 10 35 5 -8 10 -24 10 -35z m68 18 c2 -14 -4 -26 -17 -33 -27 -14 -27
-28 2 -33 16 -3 13 -5 -10 -6 -38 -1 -45 21 -13 41 11 7 20 21 20 32 0 13 -5
17 -20 13 -11 -3 -20 -1 -20 5 0 5 12 8 28 6 19 -2 28 -9 30 -25z m65 20 c-29
-5 -30 -20 -2 -28 15 -5 19 -14 17 -33 -2 -22 -8 -27 -33 -29 -20 -1 -23 0 -7
4 29 6 31 43 2 43 -15 0 -20 7 -20 25 0 22 4 25 33 24 23 -1 26 -3 10 -6z m98
-30 l13 -38 14 38 c16 39 38 52 26 15 -10 -36 -34 -78 -42 -78 -5 0 -14 17
-21 38 -8 20 -16 43 -18 50 -3 6 -1 12 5 12 6 0 16 -17 23 -37z m327 30 c-39
-6 -54 -28 -40 -58 8 -17 20 -25 39 -26 19 -1 22 -3 10 -6 -29 -7 -67 6 -67
23 0 11 -5 14 -16 10 -9 -3 -22 -6 -30 -6 -23 0 -16 -18 9 -23 15 -4 12 -5 -8
-4 -26 2 -30 6 -30 32 0 24 5 31 24 33 13 2 27 -1 31 -8 4 -7 13 -2 24 14 12
20 24 26 49 25 29 -2 29 -2 5 -6z m360 -5 c32 -32 1 -88 -49 -88 -28 0 -29 1
-29 50 0 50 0 50 33 50 18 0 38 -5 45 -12z m918 3 c-37 -8 -55 -34 -40 -58 6
-10 24 -21 40 -24 l29 -7 -31 -1 c-47 -2 -73 41 -48 78 11 14 25 21 47 20 l32
-1 -29 -7z m637 -5 c3 -7 0 -19 -6 -25 -8 -8 -8 -11 2 -11 7 0 11 -9 9 -22 -2
-18 -11 -24 -35 -26 l-33 -3 0 50 c0 50 1 51 29 51 16 0 31 -6 34 -14z m-1693
-11 c9 -10 9 -15 1 -15 -15 0 -14 -33 2 -49 10 -10 8 -12 -8 -9 -13 2 -22 14
-26 33 -9 51 6 70 31 40z m660 -30 c0 -7 -12 -15 -27 -17 l-28 -4 25 -11 25
-12 -26 0 c-17 -1 -29 6 -34 17 -6 16 -7 16 -16 0 -6 -10 -19 -18 -29 -18 -13
0 -20 -7 -20 -20 0 -11 -4 -20 -10 -20 -5 0 -10 25 -10 55 0 55 0 55 30 55 17
0 33 -6 36 -14 5 -12 9 -11 25 5 15 15 24 17 39 9 11 -6 20 -17 20 -25z m621
21 c-7 -8 -16 -27 -21 -43 -8 -27 -8 -27 -9 9 -1 27 4 38 17 41 9 3 19 5 21 6
2 0 -2 -5 -8 -13z m-1741 -31 c0 -19 -4 -35 -10 -35 -5 0 -10 16 -10 35 0 19
5 35 10 35 6 0 10 -16 10 -35z m410 0 c0 -32 -2 -35 -30 -35 -35 0 -43 29 -10
37 11 3 20 10 20 15 0 6 -7 8 -15 4 -8 -3 -15 -1 -15 4 0 6 11 10 25 10 22 0
25 -4 25 -35z m278 13 c2 -12 -5 -18 -25 -20 l-28 -4 25 -12 25 -12 -30 3
c-31 2 -43 23 -31 53 8 21 60 14 64 -8z m30 0 l11 -23 7 23 c3 12 11 22 16 22
6 0 7 -8 3 -17 -4 -10 -10 -26 -12 -36 -8 -25 -25 -16 -40 21 -15 36 -2 44 15
10z m112 2 c0 -13 -7 -20 -20 -20 -27 0 -25 -17 3 -23 15 -4 12 -5 -8 -4 -48
3 -49 67 0 67 18 0 25 -5 25 -20z m124 4 c10 -27 -12 -56 -42 -52 -27 3 -39
25 -28 54 7 19 62 18 70 -2z m410 -6 l7 -23 11 23 c19 39 28 23 11 -20 -18
-49 -39 -75 -50 -64 -4 4 -1 11 6 15 13 8 11 32 -5 75 -3 9 -2 16 4 16 5 0 13
-10 16 -22z m326 -13 c0 -32 -2 -35 -30 -35 -23 0 -30 4 -30 20 0 13 7 20 20
20 11 0 20 5 20 11 0 6 -7 9 -15 6 -8 -4 -17 -2 -20 3 -4 6 7 10 24 10 29 0
31 -3 31 -35z m90 13 c0 -13 -5 -30 -10 -38 -7 -11 -10 -5 -10 23 0 20 5 37
10 37 6 0 10 -10 10 -22z m80 -14 c0 -21 -4 -33 -10 -29 -5 3 -10 18 -10 31 0
35 -24 25 -30 -12 -6 -33 -16 -23 -18 19 -2 25 1 27 33 27 33 0 35 -2 35 -36z
m122 9 c4 -39 28 -42 28 -4 0 17 5 31 10 31 6 0 10 -16 10 -35 0 -32 -3 -35
-29 -35 -29 0 -41 14 -41 51 0 29 18 23 22 -8z m248 -8 c0 -32 -2 -35 -30 -35
-35 0 -43 29 -10 37 11 3 20 10 20 15 0 6 -7 8 -15 4 -8 -3 -15 -1 -15 4 0 6
11 10 25 10 22 0 25 -4 25 -35z m84 10 c4 -14 3 -31 -1 -38 -5 -8 -9 -1 -13
17 -6 37 -30 47 -30 12 0 -13 -4 -28 -10 -31 -6 -4 -10 8 -10 29 0 33 2 36 29
36 23 0 30 -6 35 -25z m164 -13 c3 -32 2 -33 -29 -30 -41 4 -49 25 -15 38 31
11 35 25 6 17 -11 -3 -20 -1 -20 5 0 5 12 8 28 6 23 -2 28 -8 30 -36z m45 31
c-7 -2 -13 -18 -13 -34 0 -16 -4 -29 -10 -29 -5 0 -10 16 -10 35 0 30 3 35 23
34 12 0 16 -3 10 -6z m77 -28 c0 -32 -2 -35 -30 -35 -23 0 -30 4 -30 20 0 13
7 20 20 20 11 0 20 5 20 11 0 6 -9 8 -21 4 -15 -5 -19 -4 -15 4 4 6 18 11 32
11 21 0 24 -5 24 -35z"/>
<path d="M8662 6168 c-7 -7 -12 -27 -12 -45 0 -28 3 -33 25 -33 22 0 45 24 45
49 0 11 -28 41 -39 41 -4 0 -12 -5 -19 -12z"/>
<path d="M7754 6155 c-10 -26 5 -65 25 -65 27 0 44 26 37 55 -5 18 -13 25 -32
25 -13 0 -27 -7 -30 -15z"/>
<path d="M7920 6151 c-12 -24 2 -61 24 -61 21 0 38 26 34 52 -4 31 -43 37 -58
9z"/>
<path d="M8812 6168 c-19 -19 -14 -28 16 -28 35 0 45 9 31 27 -14 16 -31 17
-47 1z"/>
<path d="M9293 6123 c-15 -5 -17 -29 -4 -37 16 -10 41 5 41 25 0 19 -12 23
-37 12z"/>
<path d="M7400 5810 c0 -5 4 -10 9 -10 6 0 13 5 16 10 3 6 -1 10 -9 10 -9 0
-16 -4 -16 -10z"/>
<path d="M7285 5480 c-3 -5 1 -10 10 -10 9 0 13 5 10 10 -3 6 -8 10 -10 10 -2
0 -7 -4 -10 -10z"/>
<path d="M7152 5463 c4 -21 19 -26 38 -13 13 9 13 11 0 20 -23 15 -42 12 -38
-7z"/>
<path d="M7490 5460 c0 -11 5 -20 10 -20 6 0 10 9 10 20 0 11 -4 20 -10 20 -5
0 -10 -9 -10 -20z"/>
<path d="M7285 5450 c-3 -5 -2 -10 4 -10 5 0 13 5 16 10 3 6 2 10 -4 10 -5 0
-13 -4 -16 -10z"/>
<path d="M9833 4281 c-10 -15 -9 -22 1 -30 17 -14 30 13 18 35 -6 11 -10 10
-19 -5z"/>
<path d="M6994 4120 c0 -69 1 -97 3 -62 2 34 2 90 0 125 -2 34 -3 6 -3 -63z"/>
<path d="M8614 4225 c11 -8 22 -12 25 -9 6 6 -19 24 -34 24 -5 -1 -1 -7 9 -15z"/>
<path d="M7020 4205 c0 -8 4 -15 10 -15 5 0 7 7 4 15 -4 8 -8 15 -10 15 -2 0
-4 -7 -4 -15z"/>
<path d="M8590 4200 c0 -5 5 -10 10 -10 6 0 10 5 10 10 0 6 -4 10 -10 10 -5 0
-10 -4 -10 -10z"/>
<path d="M8630 4172 c0 -17 -5 -34 -11 -38 -8 -4 -9 0 -4 15 8 26 -15 38 -42
22 -14 -8 -15 -11 -3 -11 8 -1 4 -6 -9 -11 -13 -5 -33 -7 -45 -4 -12 3 -15 2
-8 -1 6 -3 9 -10 6 -15 -3 -6 -11 -6 -20 2 -7 6 -11 15 -8 20 9 15 -8 10 -30
-8 -16 -14 -18 -15 -8 -2 11 14 9 17 -14 17 -16 0 -21 -3 -14 -8 8 -5 9 -16 5
-30 -5 -17 -9 -19 -15 -9 -5 7 -7 17 -4 21 8 12 -15 48 -30 48 -33 0 -28 -113
7 -131 15 -9 18 -8 12 3 -6 10 -5 11 6 1 7 -7 20 -13 29 -13 12 0 12 2 2 9 -9
5 -3 8 17 7 17 -1 31 -5 31 -9 0 -5 5 -5 10 -2 14 9 13 -8 -2 -23 -14 -14 -15
-14 40 -16 41 -2 45 1 43 34 0 10 1 11 5 3 3 -7 10 -13 15 -13 6 0 8 4 4 9 -3
5 -2 12 3 15 4 2 14 -9 21 -25 12 -28 31 -40 31 -19 0 6 -5 10 -11 10 -5 0 -7
5 -4 10 5 8 11 7 21 -1 19 -15 18 -4 -2 26 -12 19 -13 28 -4 42 11 17 11 17 6
-1 -7 -20 11 -49 25 -40 5 3 7 -8 5 -23 -2 -15 -1 -21 1 -13 3 8 10 21 15 28
6 7 7 12 1 12 -5 0 -10 14 -10 31 0 17 -6 35 -14 41 -12 8 -12 9 1 5 8 -2 20
1 27 8 9 10 6 12 -15 11 -15 -1 -32 -4 -37 -8 -6 -4 -12 4 -13 19 -3 38 -12
42 -12 5z m3 -127 c-3 -9 -8 -14 -10 -11 -3 3 -2 9 2 15 9 16 15 13 8 -4z
m-89 -23 c3 -5 -8 -9 -25 -9 -19 0 -25 3 -17 9 17 10 35 10 42 0z"/>
<path d="M7020 4095 c0 -38 3 -65 7 -62 7 8 5 119 -3 126 -2 2 -4 -26 -4 -64z"/>
<path d="M8700 4109 c0 -5 5 -7 10 -4 6 3 10 8 10 11 0 2 -4 4 -10 4 -5 0 -10
-5 -10 -11z"/>
<path d="M8327 4103 c-8 -13 2 -43 14 -43 10 0 10 8 0 34 -5 12 -10 16 -14 9z"/>
<path d="M8710 4079 c0 -5 5 -7 10 -4 6 3 10 8 10 11 0 2 -4 4 -10 4 -5 0 -10
-5 -10 -11z"/>
<path d="M8327 4017 c-3 -9 5 -12 30 -9 39 5 39 7 2 16 -18 4 -29 1 -32 -7z"/>
<path d="M7000 3976 c0 -8 4 -17 9 -20 5 -4 7 3 4 14 -6 23 -13 26 -13 6z"/>
<path d="M7337 3407 c-7 -19 8 -41 22 -33 16 10 14 46 -3 46 -8 0 -16 -6 -19
-13z"/>
<path d="M8450 3395 c0 -16 6 -25 15 -25 9 0 15 9 15 25 0 16 -6 25 -15 25 -9
0 -15 -9 -15 -25z"/>
<path d="M8584 3405 c-9 -23 14 -45 26 -25 5 8 8 19 7 24 -6 17 -27 18 -33 1z"/>
<path d="M9193 3404 c-8 -21 13 -42 28 -27 13 13 5 43 -11 43 -6 0 -13 -7 -17
-16z"/>
<path d="M9650 3394 c0 -31 23 -28 28 4 2 15 -2 22 -12 22 -11 0 -16 -9 -16
-26z"/>
<path d="M7420 3410 c0 -5 5 -10 10 -10 6 0 10 5 10 10 0 6 -4 10 -10 10 -5 0
-10 -4 -10 -10z"/>
<path d="M7840 3411 c0 -28 4 -41 14 -41 40 0 48 73 9 78 -21 3 -23 -1 -23
-37z"/>
<path d="M9410 3435 c0 -9 5 -15 11 -13 6 2 11 8 11 13 0 5 -5 11 -11 13 -6 2
-11 -4 -11 -13z"/>
<path d="M9410 3384 c0 -17 22 -14 28 4 2 7 -3 12 -12 12 -9 0 -16 -7 -16 -16z"/>
<path d="M8290 3401 c0 -25 19 -38 31 -20 12 19 6 33 -14 37 -11 2 -17 -3 -17
-17z"/>
<path d="M8375 3410 c4 -6 11 -8 16 -5 14 9 11 15 -7 15 -8 0 -12 -5 -9 -10z"/>
<path d="M7670 3380 c0 -5 5 -10 10 -10 6 0 10 5 10 10 0 6 -4 10 -10 10 -5 0
-10 -4 -10 -10z"/>
<path d="M7945 3410 c3 -5 10 -10 16 -10 5 0 9 5 9 10 0 6 -7 10 -16 10 -8 0
-12 -4 -9 -10z"/>
<path d="M8095 3410 c3 -5 8 -10 11 -10 2 0 4 5 4 10 0 6 -5 10 -11 10 -5 0
-7 -4 -4 -10z"/>
<path d="M8202 3398 c2 -12 10 -23 18 -23 22 0 19 39 -3 43 -15 3 -18 -1 -15
-20z"/>
<path d="M8950 3380 c0 -5 5 -10 10 -10 6 0 10 5 10 10 0 6 -4 10 -10 10 -5 0
-10 -4 -10 -10z"/>
<path d="M9490 3380 c0 -5 5 -10 10 -10 6 0 10 5 10 10 0 6 -4 10 -10 10 -5 0
-10 -4 -10 -10z"/>
<path d="M9730 3380 c0 -5 4 -10 9 -10 6 0 13 5 16 10 3 6 -1 10 -9 10 -9 0
-16 -4 -16 -10z"/>
<path d="M9860 3380 c0 -5 5 -10 10 -10 6 0 10 5 10 10 0 6 -4 10 -10 10 -5 0
-10 -4 -10 -10z"/>
<path d="M863 8024 c-54 -19 -126 -83 -161 -142 l-27 -47 -5 -1978 -5 -1977
418 0 c237 0 416 -4 413 -9 -3 -5 12 -21 33 -35 78 -54 146 -169 158 -264 7
-65 -5 -158 -23 -177 -13 -12 -17 -12 -34 5 -11 11 -27 20 -35 20 -8 0 -15 4
-15 8 0 11 -86 52 -108 52 -10 0 -23 5 -29 11 -5 5 -37 9 -69 7 l-59 -3 2 -90
c1 -49 11 -130 22 -179 11 -50 17 -94 15 -98 -8 -13 -129 -9 -148 5 -15 11
-18 30 -17 150 0 101 -3 137 -12 137 -19 -1 -84 -91 -105 -146 -11 -27 -26
-50 -35 -52 -8 -2 -31 16 -50 38 -108 127 -126 298 -47 448 20 38 24 52 14 52
-35 0 -346 -71 -374 -85 -42 -22 -88 -88 -95 -138 -4 -29 4 -89 24 -187 17
-80 112 -541 211 -1025 99 -484 190 -927 202 -984 16 -73 30 -115 49 -141 31
-42 100 -80 146 -80 17 0 140 22 273 50 133 27 247 50 254 51 6 0 -22 11 -63
25 -41 14 -86 33 -100 43 -14 10 -36 21 -48 25 -31 10 -86 77 -119 144 -25 51
-28 69 -28 157 -1 97 0 104 37 177 43 88 107 152 195 195 51 25 67 28 157 28
81 -1 111 -5 159 -24 74 -30 172 -123 210 -203 31 -63 45 -165 29 -201 -6 -12
-16 -44 -22 -72 -20 -86 -115 -204 -191 -237 -41 -18 52 -1 502 92 727 150
1703 351 2063 425 815 167 813 167 854 197 53 39 76 89 75 163 0 33 -33 213
-72 400 -111 534 -272 1312 -272 1319 0 3 394 6 875 6 l875 0 0 945 c0 934 0
944 -20 955 -19 10 -20 21 -20 245 0 224 1 235 20 245 29 16 29 110 0 128 -19
12 -20 23 -20 242 0 219 1 230 20 242 18 11 20 24 20 109 0 83 -3 98 -20 114
-18 16 -20 31 -20 136 0 108 2 119 20 129 19 10 20 21 20 249 0 249 6 295 51
384 l19 37 -2962 -1 c-2589 0 -2968 -2 -3005 -15z m5658 -601 c10 -11 14 -48
14 -132 l0 -116 -60 1 c-33 1 -709 2 -1502 3 l-1443 1 0 130 0 130 1489 0
c1371 0 1490 -1 1502 -17z m-3141 -115 c109 -57 107 -218 -4 -269 -53 -24 -80
-24 -132 2 -112 54 -114 210 -4 267 24 12 56 22 70 22 14 0 46 -10 70 -22z
m-1560 -102 c0 -2 -7 -7 -16 -10 -8 -3 -12 -2 -9 4 6 10 25 14 25 6z m227 -58
c-2 -13 -4 -3 -4 22 0 25 2 35 4 23 2 -13 2 -33 0 -45z m-110 -5 c-3 -10 -5
-4 -5 12 0 17 2 24 5 18 2 -7 2 -21 0 -30z m-111 -2 c-4 -6 -15 -10 -24 -10
-15 1 -14 2 1 6 12 3 16 10 12 21 -5 13 -3 14 6 5 6 -6 8 -16 5 -22z m189 -9
c-3 -3 -11 0 -18 7 -9 10 -8 11 6 5 10 -3 15 -9 12 -12z m1810 -56 c42 -18 75
-69 75 -114 0 -41 -29 -94 -48 -87 -7 2 -10 0 -7 -5 3 -6 1 -10 -5 -10 -6 0
-9 -4 -6 -9 3 -5 -12 -13 -34 -19 -22 -5 -38 -7 -35 -3 2 4 -9 8 -26 8 -22 0
-40 10 -66 38 -33 35 -35 41 -31 91 5 59 25 89 73 110 39 17 68 17 110 0z
m306 -86 c14 0 19 -7 19 -25 0 -14 -4 -25 -10 -25 -5 0 -10 9 -10 20 0 27 -18
25 -23 -2 -2 -13 -4 -3 -4 22 -1 25 1 37 4 28 2 -10 13 -18 24 -18z m36 -37
c-3 -10 -5 -4 -5 12 0 17 2 24 5 18 2 -7 2 -21 0 -30z m-2200 -324 c46 -29 77
-98 69 -154 -8 -49 -26 -74 -71 -100 -30 -17 -30 -17 -7 2 17 14 20 21 11 30
-6 6 -19 9 -28 6 -12 -4 -13 -3 -2 5 10 8 9 13 -9 25 -20 14 -26 14 -68 -4
-35 -15 -42 -16 -32 -4 18 22 -4 19 -24 -4 -13 -15 -14 -20 -4 -23 7 -3 -2 -5
-20 -6 -26 0 -35 5 -47 28 -8 16 -15 45 -15 65 0 128 136 202 247 134z m3943
18 c40 -20 60 -72 60 -154 0 -66 2 -74 27 -98 l28 -25 -129 0 c-96 0 -136 4
-161 16 -86 41 -88 222 -3 259 41 18 144 19 178 2z m312 -17 c67 -19 112 -102
88 -165 l-10 -27 -31 26 c-48 41 -62 35 -53 -21 3 -27 7 -52 8 -58 0 -5 -18
-11 -41 -13 -43 -3 -43 -3 -43 32 0 19 4 46 10 60 13 34 3 33 -38 -6 -32 -32
-34 -32 -48 -14 -41 57 6 163 82 186 39 11 34 11 76 0z m-4082 -103 c0 -7 15
-12 35 -12 27 0 35 4 35 18 0 21 16 23 24 2 4 -10 20 -15 51 -15 41 0 45 -2
45 -25 0 -31 -19 -33 -21 -2 l-2 22 -4 -22 c-6 -31 -53 -33 -53 -3 0 11 -4 20
-10 20 -5 0 -10 -9 -10 -20 0 -11 -4 -20 -10 -20 -5 0 -10 5 -10 12 0 9 -3 9
-12 0 -16 -16 -45 -15 -52 1 -5 10 -7 10 -12 0 -3 -7 -15 -13 -27 -12 -12 0
-16 3 -9 6 6 2 12 17 12 32 0 15 3 31 6 34 9 9 24 -1 24 -16z m291 5 c8 -13
23 -17 70 -15 61 2 73 -4 63 -31 -7 -19 -35 -21 -52 -4 -9 9 -12 9 -12 0 0 -7
-11 -12 -25 -12 -14 0 -25 5 -25 12 0 9 -3 9 -12 0 -7 -7 -25 -12 -40 -12 -25
0 -28 3 -28 33 0 19 3 37 7 40 12 13 43 7 54 -11z m820 -7 c5 4 9 2 9 -4 0 -5
-5 -11 -12 -13 -8 -3 -7 -13 5 -36 8 -18 12 -32 7 -32 -5 0 -12 9 -15 21 -8
24 -41 21 -39 -4 1 -9 -2 -17 -7 -17 -13 0 -11 8 14 63 13 31 23 44 25 34 2
-10 8 -15 13 -12z m-56 -15 c3 -5 1 -10 -4 -10 -6 0 -11 5 -11 10 0 6 2 10 4
10 3 0 8 -4 11 -10z m-1282 -95 c-7 -21 -12 -19 -10 4 0 11 5 18 9 15 4 -3 5
-11 1 -19z m36 -160 c69 -35 104 -119 81 -190 -6 -19 -14 -35 -17 -35 -3 0
-23 16 -44 35 -22 19 -45 35 -52 35 -21 0 -41 -47 -42 -98 -1 -41 -3 -47 -20
-44 -42 6 -47 12 -41 38 4 15 2 32 -5 40 -10 12 -9 13 5 8 12 -5 16 0 15 17 0
13 -3 18 -6 11 -2 -6 -8 -10 -13 -7 -4 3 -14 -3 -21 -12 -11 -13 -11 -17 -1
-20 6 -3 12 -9 12 -14 0 -6 -6 -7 -12 -2 -7 4 -20 6 -29 5 -20 -3 -39 44 -39
96 0 47 35 105 79 130 42 25 110 28 150 7z m3981 -72 c31 -34 40 -67 40 -144
0 -61 3 -73 25 -94 l24 -25 -373 0 -372 0 -30 31 c-27 29 -29 35 -29 114 0 75
2 86 23 105 13 12 35 26 50 31 15 4 161 7 324 6 293 -2 297 -2 318 -24z m323
-22 c34 -22 52 -47 60 -83 9 -36 -2 -88 -19 -88 -8 0 -14 4 -14 8 0 8 -25 23
-65 41 -5 2 -3 -4 5 -14 8 -10 10 -16 4 -12 -8 5 -10 -7 -6 -39 3 -33 1 -49
-9 -55 -21 -13 -46 -11 -62 6 -13 13 -13 22 -2 65 7 27 11 50 9 50 -3 0 -21
-16 -41 -36 -41 -42 -53 -36 -60 28 -6 55 15 101 60 128 40 25 104 25 140 1z
m-4088 -28 c5 -13 17 -23 25 -23 13 0 13 1 0 10 -12 8 -8 10 15 10 17 -1 50 0
74 0 26 1 47 -4 52 -12 7 -10 9 -10 9 0 0 6 5 12 11 12 7 0 9 -10 4 -27 -7
-33 -31 -60 -42 -49 -4 4 -2 10 4 14 14 9 -2 52 -19 52 -10 0 -10 -2 1 -9 26
-17 -1 -31 -59 -31 -32 0 -62 5 -66 11 -4 8 -9 8 -17 0 -6 -6 -21 -11 -34 -11
-20 0 -23 5 -23 41 0 38 1 40 28 37 16 -2 31 -12 37 -25z m95 23 c0 -11 -19
-15 -25 -6 -3 5 1 10 9 10 9 0 16 -2 16 -4z m978 -39 c8 -9 5 -21 -10 -45 -37
-59 -66 -31 -31 29 19 32 26 35 41 16z m3016 -115 c3 -5 -1 -9 -9 -9 -8 0 -12
4 -9 9 3 4 7 8 9 8 2 0 6 -4 9 -8z m-2905 -106 c8 -9 11 -66 9 -182 l-3 -169
-842 -3 -843 -2 0 178 c0 98 3 182 7 185 3 4 379 7 833 7 692 0 829 -2 839
-14z m2555 -156 c44 -16 66 -65 66 -148 0 -68 2 -76 29 -103 l29 -29 -249 0
c-264 0 -294 4 -333 49 -14 15 -20 41 -24 94 l-4 74 36 36 37 37 194 0 c106 0
205 -4 219 -10z m356 -38 c38 -28 63 -86 56 -127 -8 -40 -12 -41 -44 -19 -13
9 -30 13 -38 10 -9 -3 -12 -1 -9 4 3 6 1 10 -4 10 -15 0 -14 -30 2 -31 8 0 8
-2 1 -5 -8 -3 -9 -16 -4 -39 7 -29 5 -35 -11 -40 -11 -4 -32 -4 -48 0 -26 6
-27 8 -21 48 3 24 10 49 14 56 13 21 -34 -7 -55 -33 -23 -27 -39 -13 -46 41
-15 114 115 192 207 125z m-4310 -224 c69 -35 105 -117 80 -182 l-9 -26 -51
32 c-28 17 -53 29 -56 25 -3 -3 -1 -34 4 -69 6 -34 7 -67 2 -71 -4 -5 -27 -7
-51 -5 -49 3 -49 4 -35 96 3 23 2 42 -2 42 -5 0 -23 -16 -42 -35 -19 -19 -37
-35 -40 -35 -13 0 -30 52 -30 94 0 28 8 55 23 77 24 37 97 79 137 79 14 0 46
-10 70 -22z m1272 -103 c0 -5 -5 -11 -11 -13 -6 -2 -11 4 -11 13 0 9 5 15 11
13 6 -2 11 -8 11 -13z m-1101 -37 l2 -23 4 23 c4 18 11 22 39 22 26 0 34 -4
34 -17 1 -17 1 -17 11 0 5 9 19 17 29 17 25 0 27 -30 3 -31 -15 0 -15 -2 2 -8
13 -6 -10 -9 -62 -10 -82 -1 -83 -1 -83 24 0 31 19 33 21 3z m189 12 c0 -5 -4
-10 -10 -10 -5 0 -10 -7 -10 -15 0 -8 -4 -15 -10 -15 -5 0 -10 11 -10 25 0 18
5 25 20 25 11 0 20 -4 20 -10z m887 -64 c-17 -17 -37 -21 -37 -7 0 5 7 14 15
21 8 7 12 17 8 24 -3 6 2 3 12 -6 16 -15 16 -18 2 -32z m2720 -6 c38 -23 53
-67 53 -157 0 -34 4 -65 10 -68 5 -3 15 -15 21 -26 10 -20 7 -20 -413 -17
-455 3 -453 3 -477 55 -6 13 -11 55 -11 92 0 73 20 113 64 131 11 5 179 9 371
9 330 1 352 0 382 -19z m335 -26 c50 -26 78 -97 58 -149 l-11 -28 -23 22 c-12
12 -32 23 -44 26 -21 4 -21 1 -15 -56 l6 -59 -42 0 c-40 0 -41 1 -41 34 0 19
4 46 10 61 9 23 8 24 -8 16 -9 -5 -28 -21 -42 -35 l-24 -27 -13 23 c-26 47
-11 120 33 160 24 21 83 38 109 31 11 -3 32 -12 47 -19z m-4302 -166 c60 -31
94 -93 86 -158 -8 -57 -17 -65 -53 -47 -26 14 -31 14 -52 -2 -20 -16 -28 -16
-72 -5 -49 13 -84 10 -74 -6 3 -4 -4 -10 -15 -13 -40 -10 -64 84 -39 150 22
59 83 102 144 103 17 0 51 -10 75 -22z m407 -103 c3 -9 -2 -24 -12 -34 -16
-18 -15 -20 2 -24 12 -3 9 -5 -9 -6 -32 -1 -35 10 -12 33 8 9 14 21 12 27 -5
15 -48 -25 -48 -45 0 -9 -4 -16 -10 -16 -5 0 -10 14 -10 30 0 23 5 30 19 30
11 0 23 5 26 10 9 15 35 12 42 -5z m891 -19 c0 -17 -5 -23 -14 -19 -8 3 -14
-1 -14 -8 0 -7 -3 -9 -7 -6 -7 8 16 57 27 57 4 0 8 -11 8 -24z m-1127 -8 c2
-21 2 -21 6 -2 3 15 12 20 39 21 27 1 34 -2 30 -13 -7 -19 4 -18 19 3 17 22
45 10 45 -21 0 -23 -2 -24 -77 -22 -77 1 -78 1 -81 29 -2 15 1 27 7 27 6 0 12
-10 12 -22z m-182 -244 c2 -2 -25 -4 -60 -3 -47 1 -57 3 -39 9 22 7 89 3 99
-6z m4405 -19 c-4 -8 -7 -15 -9 -15 -2 0 -5 7 -9 15 -3 9 0 15 9 15 9 0 12 -6
9 -15z m-4534 -66 l0 -60 -42 3 c-31 2 -44 8 -46 21 -2 9 1 17 7 17 6 0 11 -7
11 -15 0 -10 10 -15 31 -15 30 0 30 1 27 48 -3 41 -6 47 -26 48 -12 1 -27 -6
-32 -15 -10 -19 -25 -8 -17 14 4 10 20 15 47 15 l40 0 0 -61z m2099 24 c-1
-33 -2 -35 -8 -13 -4 14 -6 31 -3 38 8 22 12 13 11 -25z m-168 0 c13 -16 12
-17 -3 -4 -10 7 -18 15 -18 17 0 8 8 3 21 -13z m49 13 c0 -2 -8 -10 -17 -17
-16 -13 -17 -12 -4 4 13 16 21 21 21 13z m60 0 c0 -2 -7 -7 -16 -10 -8 -3 -12
-2 -9 4 6 10 25 14 25 6z m236 -24 c1 -18 1 -19 -3 -2 -6 27 -21 25 -25 -2 -3
-22 -4 -22 -9 3 -5 22 -2 26 15 25 14 -1 21 -8 22 -24z m50 10 c1 -7 0 -8 -3
-2 -8 16 -23 12 -23 -7 0 -9 -3 -14 -6 -10 -4 3 -4 13 0 22 7 18 28 16 32 -3z
m84 14 c0 -2 -7 -7 -16 -10 -8 -3 -12 -2 -9 4 6 10 25 14 25 6z m45 -5 c3 -5
0 -13 -6 -17 -7 -4 -9 -3 -5 4 3 5 0 13 -6 15 -9 4 -10 6 -1 6 6 1 14 -3 18
-8z m52 -43 c-2 -13 -4 -5 -4 17 -1 22 1 32 4 23 2 -10 2 -28 0 -40z m51 31
c3 -11 2 -11 -7 1 -10 13 -12 13 -21 0 -5 -8 -10 -10 -10 -4 0 27 31 30 38 3z
m-188 -21 c0 -5 -7 -3 -15 6 -8 8 -15 18 -15 22 0 3 7 1 15 -6 8 -7 15 -17 15
-22z m-2410 2 c0 -12 -73 -19 -85 -8 -16 14 10 25 50 20 19 -2 35 -8 35 -12z
m1014 -346 c23 -9 20 -19 -5 -21 -31 -3 -36 -13 -15 -29 16 -11 22 -11 29 -1
6 9 7 8 4 -3 -5 -20 -52 -23 -68 -4 -9 11 -9 20 -1 37 6 12 11 17 11 10 1 -6
10 -9 23 -5 21 5 21 6 2 13 -10 4 -14 8 -7 8 6 1 18 -2 27 -5z m103 -9 c3 -9
-2 -24 -12 -34 -16 -18 -15 -20 2 -24 12 -3 8 -5 -10 -6 -24 -1 -26 1 -17 18
5 11 15 23 20 26 16 10 12 28 -5 21 -8 -3 -15 -1 -15 4 0 16 30 11 37 -5z m58
-25 c0 -28 -4 -35 -20 -35 -13 0 -21 8 -23 23 -5 34 5 54 25 50 13 -2 18 -13
18 -38z m58 26 c3 -8 -3 -22 -15 -32 l-20 -19 24 -6 c22 -7 22 -7 -4 -8 -31
-1 -36 10 -13 29 20 17 20 44 -1 36 -8 -3 -12 -2 -9 4 9 15 32 12 38 -4z m41
-1 c-16 -12 -17 -14 -3 -15 9 0 19 -6 22 -14 7 -18 -17 -40 -35 -33 -8 4 -7 6
5 6 21 1 23 31 2 31 -8 0 -15 9 -15 20 0 14 7 20 22 20 21 0 21 0 2 -15z m77
-12 l11 -28 10 28 c7 19 16 27 31 26 15 -1 17 -3 6 -6 -9 -2 -23 -21 -32 -41
l-14 -37 -17 37 c-17 40 -19 48 -11 48 3 0 10 -12 16 -27z m112 4 c9 -3 17
-14 17 -24 0 -15 -2 -15 -14 3 -14 18 -15 18 -25 -6 -9 -23 -10 -22 -10 15 0
22 3 35 7 29 4 -6 15 -13 25 -17z m127 16 c-8 -3 -20 -12 -26 -19 -16 -20 -78
-31 -72 -13 3 8 16 13 29 13 13 -1 28 5 32 12 4 8 18 14 30 13 14 0 17 -2 7
-6z m40 -9 c0 -8 -4 -12 -10 -9 -5 3 -10 10 -10 16 0 5 5 9 10 9 6 0 10 -7 10
-16z m1045 6 c-3 -5 3 -10 14 -10 26 0 28 -31 5 -51 -14 -11 -19 -10 -35 10
-14 17 -16 27 -9 42 6 10 15 19 21 19 6 0 7 -4 4 -10z m893 -18 c15 12 16 11
3 -4 -11 -15 -11 -21 0 -35 13 -16 12 -17 -3 -5 -13 10 -17 10 -21 0 -3 -7 -5
7 -5 32 0 25 3 35 5 22 4 -20 7 -21 21 -10z m-2148 -17 c0 -8 -4 -17 -10 -20
-6 -4 -10 5 -10 20 0 15 4 24 10 20 6 -3 10 -12 10 -20z m1788 -8 c3 -22 -1
-27 -17 -27 -23 0 -27 19 -8 39 10 11 9 12 -2 6 -10 -6 -12 -4 -7 4 12 19 31
7 34 -22z m92 2 c0 -22 -5 -29 -20 -29 -24 0 -26 18 -3 35 15 11 14 13 -10 13
-22 0 -27 -5 -27 -24 0 -13 -4 -24 -10 -24 -5 0 -10 13 -10 29 0 28 2 30 40
29 37 0 40 -2 40 -29z m66 14 c11 -15 15 -16 26 -4 9 10 9 12 1 7 -7 -4 -13
-2 -13 4 0 25 35 4 38 -22 3 -26 1 -27 -32 -26 -31 1 -36 5 -36 25 0 32 -18
29 -23 -4 -4 -26 -4 -26 -6 5 -1 36 23 45 45 15z m85 -13 c5 0 9 6 9 14 0 17
52 19 62 2 16 -24 8 -46 -17 -46 -28 0 -33 17 -9 34 13 10 13 12 -4 12 -13 0
-24 -11 -31 -33 -17 -45 -26 -41 -27 10 0 23 1 34 3 25 3 -10 9 -18 14 -18z
m183 15 c5 -13 -5 -20 -26 -16 -16 2 -7 -18 10 -22 16 -4 16 -5 -1 -6 -20 -1
-32 21 -23 44 3 8 12 15 20 15 7 0 16 -7 20 -15z m-874 -35 c8 -15 17 -18 40
-13 24 4 30 2 30 -12 0 -9 -10 -25 -22 -34 l-21 -18 21 -21 c27 -27 27 -38 5
-51 -16 -9 -15 -10 7 -11 l24 0 -24 -17 c-14 -9 -31 -23 -38 -29 -15 -16 -52
-28 -59 -20 -4 3 0 6 8 6 8 0 27 10 42 23 26 20 27 25 17 51 -6 16 -8 31 -5
34 3 3 -4 12 -16 20 -15 10 -24 11 -32 3 -16 -16 -37 -14 -37 4 0 8 6 15 13
15 7 0 22 6 32 14 19 14 19 15 2 33 -9 11 -17 25 -17 31 0 19 18 14 30 -8z
m-2335 -420 c0 -9 -11 -16 -27 -18 -23 -3 -28 1 -28 18 0 17 5 21 28 18 16 -2
27 -9 27 -18z m269 -71 c-7 -44 -16 -89 -19 -100 -6 -18 -41 -39 -66 -39 -15
0 -10 27 6 34 22 8 18 34 -12 81 -23 37 -32 43 -60 43 -42 0 -42 -4 2 -22 41
-18 46 -47 13 -70 -29 -21 -88 -21 -88 -1 0 9 9 15 25 15 34 0 32 16 -4 23
-32 7 -45 37 -27 63 12 16 76 33 128 34 21 0 29 -6 34 -25 7 -30 24 -23 24 9
0 28 7 36 35 36 21 0 21 -1 9 -81z m-504 16 c53 -27 62 -111 17 -153 -21 -20
-114 -48 -124 -38 -8 8 -41 171 -36 176 5 6 81 28 101 29 7 1 26 -6 42 -14z
m255 -19 c4 -19 8 -49 8 -67 2 -30 -1 -34 -23 -34 -22 0 -25 6 -36 60 -13 63
-9 75 28 75 12 0 19 -11 23 -34z m2792 4 c11 -12 31 -83 50 -178 143 -694 140
-675 110 -700 -12 -10 -88 -26 -852 -183 -187 -38 -403 -83 -480 -99 -498
-103 -792 -163 -875 -180 -52 -10 -228 -46 -390 -80 -162 -34 -434 -90 -605
-125 -170 -35 -433 -89 -584 -120 -293 -61 -310 -61 -331 -13 -5 13 -45 200
-89 415 -82 399 -85 427 -49 449 7 4 40 13 73 20 185 38 323 66 430 88 66 14
253 53 415 86 350 72 851 176 1260 260 162 33 327 67 365 75 39 8 192 39 340
70 149 30 369 76 490 101 121 24 312 64 425 88 240 51 273 54 297 26z m-2884
-8 c9 -10 20 -39 23 -63 l6 -45 -52 -12 c-60 -14 -80 -5 -80 34 0 16 10 29 33
40 19 11 27 19 19 22 -8 2 -19 -1 -25 -7 -18 -18 -29 -13 -25 11 5 36 75 49
101 20z m-503 -332 c0 -5 -2 -10 -4 -10 -3 0 -8 5 -11 10 -3 6 -1 10 4 10 6 0
11 -4 11 -10z m-453 -52 c-3 -8 -6 -5 -6 6 -1 11 2 17 5 13 3 -3 4 -12 1 -19z
m3835 -1015 c24 -22 23 -34 -11 -133 -28 -84 -29 -85 -61 -83 -61 3 -66 19
-30 119 17 48 36 94 42 101 14 18 38 16 60 -4z m52 -129 c25 -9 19 -24 -9 -24
-16 0 -25 6 -25 15 0 16 9 19 34 9z m-2154 -224 c0 -15 -7 -20 -25 -20 -18 0
-25 5 -25 20 0 15 7 20 25 20 18 0 25 -5 25 -20z m16 -67 c3 -16 10 -44 15
-63 9 -36 0 -50 -32 -50 -21 0 -45 120 -26 132 23 14 37 8 43 -19z m-375 -64
c14 -67 16 -72 28 -51 6 12 18 22 25 22 8 0 19 7 26 15 10 12 10 15 -3 15 -9
0 -19 -4 -22 -10 -9 -15 -35 -12 -35 5 0 20 32 35 74 35 40 0 50 -13 61 -77
l7 -42 -43 -11 c-23 -7 -54 -10 -67 -7 -14 3 -31 -1 -39 -8 -7 -7 -36 -16 -65
-20 -46 -7 -54 -5 -70 15 -36 45 -9 120 43 120 18 0 21 4 16 30 -5 22 -2 32
11 39 29 17 36 7 53 -70z m293 49 c8 -13 18 -41 22 -64 5 -36 3 -42 -14 -46
-26 -7 -42 9 -42 42 0 33 -16 58 -29 45 -6 -6 -7 -24 -1 -49 10 -47 7 -56 -24
-56 -21 0 -25 7 -35 61 -7 34 -11 62 -9 64 5 4 82 23 100 24 10 1 24 -9 32
-21z m-458 -80 c19 -96 2 -128 -74 -142 -46 -8 -74 24 -90 104 -7 34 -12 63
-10 65 2 1 13 6 25 9 20 6 23 2 34 -52 14 -69 31 -97 54 -89 17 7 19 42 5 105
-12 50 -6 64 23 60 18 -2 24 -14 33 -60z"/>
<path d="M3900 7336 c0 -7 -9 -16 -20 -19 -28 -7 -25 -36 6 -47 14 -6 27 -10
30 -10 2 0 4 20 4 45 0 25 -4 45 -10 45 -5 0 -10 -6 -10 -14z m-4 -53 c-10
-10 -19 5 -10 18 6 11 8 11 12 0 2 -7 1 -15 -2 -18z"/>
<path d="M4055 7340 c-3 -5 -1 -10 4 -10 6 0 11 5 11 10 0 6 -2 10 -4 10 -3 0
-8 -4 -11 -10z"/>
<path d="M3663 7305 c0 -22 2 -30 4 -17 2 12 2 30 0 40 -3 9 -5 -1 -4 -23z"/>
<path d="M3790 7306 c0 -35 12 -46 43 -38 12 3 17 14 17 38 0 19 -4 34 -10 34
-5 0 -10 -13 -10 -30 0 -16 -4 -30 -10 -30 -5 0 -10 14 -10 30 0 17 -4 30 -10
30 -5 0 -10 -15 -10 -34z"/>
<path d="M3932 7293 c2 -20 8 -28 23 -28 31 0 28 49 -3 53 -20 3 -23 0 -20
-25z"/>
<path d="M3990 7288 c0 -34 14 -29 23 7 4 18 5 18 6 -2 2 -35 21 -38 21 -4 0
26 -4 31 -25 31 -21 0 -25 -5 -25 -32z"/>
<path d="M4050 7296 c0 -14 5 -28 10 -31 6 -4 10 7 10 24 0 17 -4 31 -10 31
-5 0 -10 -11 -10 -24z"/>
<path d="M3684 7299 c-3 -6 -2 -15 3 -20 5 -5 9 -1 9 11 0 23 -2 24 -12 9z"/>
<path d="M3721 7294 c0 -11 3 -14 6 -6 3 7 2 16 -1 19 -3 4 -6 -2 -5 -13z"/>
<path d="M3256 7218 c-9 -12 -16 -28 -16 -34 0 -20 36 -44 65 -44 16 0 37 -7
47 -17 16 -14 18 -14 18 -1 0 9 -7 19 -16 22 -11 4 -14 13 -10 29 13 55 -57
90 -88 45z m68 -13 c8 -22 -4 -45 -24 -45 -23 0 -42 24 -34 44 8 20 50 21 58
1z"/>
<path d="M3743 7043 c-7 -2 -13 -14 -13 -25 0 -16 3 -18 14 -9 17 14 31 -2 20
-21 -5 -9 -2 -9 9 1 11 9 17 10 17 2 0 -6 5 -11 11 -11 5 0 8 4 4 9 -3 5 0 13
5 16 8 5 6 13 -6 26 -17 19 -36 23 -61 12z"/>
<path d="M3760 6935 c0 -9 6 -12 15 -9 8 4 15 10 15 15 0 5 -7 9 -15 9 -8 0
-15 -7 -15 -15z"/>
<path d="M3780 6906 c0 -2 7 -7 16 -10 8 -3 12 -2 9 4 -6 10 -25 14 -25 6z"/>
<path d="M3767 6889 c7 -7 15 -10 18 -7 3 3 -2 9 -12 12 -14 6 -15 5 -6 -5z"/>
<path d="M1849 6588 c-1 -2 -3 -13 -4 -25 -1 -14 2 -20 11 -16 9 3 11 -3 8
-19 -2 -13 -1 -17 2 -10 5 10 9 10 18 -3 16 -22 46 -9 46 20 0 27 -29 55 -58
55 -12 0 -23 -1 -23 -2z"/>
<path d="M1850 6470 c0 -5 4 -10 9 -10 6 0 13 5 16 10 3 6 -1 10 -9 10 -9 0
-16 -4 -16 -10z"/>
<path d="M6156 6602 c-10 -10 -6 -41 6 -48 6 -4 8 -3 4 4 -3 6 -2 13 3 16 5 3
11 -1 15 -9 6 -15 46 -21 46 -7 0 25 -59 60 -74 44z"/>
<path d="M6178 6493 c7 -3 16 -2 19 1 4 3 -2 6 -13 5 -11 0 -14 -3 -6 -6z"/>
<path d="M2171 6494 c0 -11 3 -14 6 -6 3 7 2 16 -1 19 -3 4 -6 -2 -5 -13z"/>
<path d="M2390 6504 c0 -31 23 -28 28 4 2 15 -2 22 -12 22 -11 0 -16 -9 -16
-26z"/>
<path d="M2470 6494 c0 -8 5 -12 10 -9 6 3 10 10 10 16 0 5 -4 9 -10 9 -5 0
-10 -7 -10 -16z"/>
<path d="M1840 6210 c0 -5 5 -10 11 -10 5 0 8 -3 6 -7 -2 -5 7 -18 20 -30 26
-25 28 -20 12 26 -7 20 -18 31 -30 31 -10 0 -19 -4 -19 -10z"/>
<path d="M1832 6164 c3 -26 28 -48 28 -24 0 6 -4 8 -10 5 -5 -3 -10 -2 -10 4
0 5 4 11 9 13 5 2 2 9 -6 17 -13 11 -14 9 -11 -15z"/>
<path d="M1845 6110 c-3 -5 1 -10 9 -10 8 0 18 5 21 10 3 6 -1 10 -9 10 -8 0
-18 -4 -21 -10z"/>
<path d="M6147 6136 c-8 -19 3 -28 18 -16 9 8 14 6 19 -5 6 -16 46 -21 46 -6
0 33 -72 56 -83 27z"/>
<path d="M6178 6043 c7 -3 16 -2 19 1 4 3 -2 6 -13 5 -11 0 -14 -3 -6 -6z"/>
<path d="M2120 6115 c0 -17 5 -25 13 -22 6 2 12 12 12 22 0 10 -6 20 -12 23
-8 2 -13 -6 -13 -23z"/>
<path d="M1848 5829 c-22 -12 -24 -49 -2 -49 9 0 12 5 8 11 -4 7 -1 10 7 7 9
-3 13 -16 11 -36 -2 -18 1 -32 6 -32 5 0 8 10 8 21 -1 12 5 24 12 26 6 3 12
-2 12 -11 0 -9 5 -16 10 -16 18 0 11 49 -10 70 -22 22 -37 24 -62 9z"/>
<path d="M1860 5701 c0 -5 9 -7 20 -4 11 3 20 7 20 9 0 2 -9 4 -20 4 -11 0
-20 -4 -20 -9z"/>
<path d="M6147 5686 c-3 -8 1 -22 9 -33 11 -14 13 -15 8 -2 -7 21 12 34 20 14
6 -16 46 -21 46 -6 0 14 -41 41 -61 41 -9 0 -19 -6 -22 -14z"/>
<path d="M6170 5590 c0 -5 4 -10 9 -10 6 0 13 5 16 10 3 6 -1 10 -9 10 -9 0
-16 -4 -16 -10z"/>
<path d="M1834 5445 c-9 -21 5 -38 21 -25 9 7 16 6 25 -5 13 -16 60 -21 60 -7
0 5 -9 18 -20 30 -24 25 -78 30 -86 7z"/>
<path d="M1865 5330 c3 -5 12 -7 20 -3 21 7 19 13 -6 13 -11 0 -18 -4 -14 -10z"/>
<path d="M6147 5226 c-3 -8 2 -20 11 -28 10 -8 13 -8 9 -1 -4 6 -3 14 2 17 5
3 11 -1 15 -9 3 -8 15 -15 26 -15 23 0 24 4 10 31 -13 23 -65 26 -73 5z"/>
<path d="M6178 5133 c7 -3 16 -2 19 1 4 3 -2 6 -13 5 -11 0 -14 -3 -6 -6z"/>
<path d="M1847 5063 c-10 -10 -8 -56 3 -73 8 -13 10 -12 10 3 0 9 7 17 15 17
8 0 15 4 15 10 0 5 6 7 13 4 20 -7 42 22 25 32 -17 11 -73 16 -81 7z"/>
<path d="M1814 5019 c-3 -6 -1 -16 5 -22 8 -8 11 -5 11 11 0 24 -5 28 -16 11z"/>
<path d="M1871 4936 c2 -2 15 -9 29 -15 24 -11 24 -11 6 3 -16 13 -49 24 -35
12z"/>
<path d="M2730 4246 c0 -8 4 -17 9 -20 5 -4 7 3 4 14 -6 23 -13 26 -13 6z"/>
<path d="M2914 4265 c-8 -20 3 -48 16 -40 13 8 13 55 0 55 -6 0 -13 -7 -16
-15z"/>
<path d="M1876 3693 c25 -112 28 -117 57 -85 35 39 6 112 -43 112 -17 0 -19
-5 -14 -27z"/>
<path d="M4711 3379 c-52 -16 -78 -37 -101 -83 -26 -55 -26 -108 2 -157 90
-160 340 -67 304 113 -18 89 -119 151 -205 127z m104 -105 c29 -31 31 -53 10
-93 -37 -73 -155 -43 -155 39 0 73 95 108 145 54z"/>
<path d="M4730 3232 c0 -58 17 -76 45 -48 20 20 5 70 -23 74 -18 3 -22 -1 -22
-26z m40 14 c0 -2 -7 -9 -15 -16 -12 -10 -15 -10 -15 4 0 9 7 16 15 16 8 0 15
-2 15 -4z m10 -40 c0 -2 -7 -9 -15 -16 -12 -10 -15 -10 -15 4 0 9 7 16 15 16
8 0 15 -2 15 -4z"/>
<path d="M1652 2967 c-12 -13 -24 -37 -28 -54 -8 -43 39 -97 84 -95 84 2 121
85 63 143 -37 37 -88 40 -119 6z m79 -36 c-7 -5 -4 -15 10 -30 l22 -23 -22 7
c-13 4 -21 2 -21 -5 0 -8 -6 -8 -21 1 -13 7 -19 7 -15 1 3 -6 3 -13 -2 -16 -4
-2 -8 4 -9 14 -1 11 2 22 8 25 5 4 9 11 9 16 0 6 -5 7 -12 3 -6 -4 -9 -3 -5 2
3 5 19 9 37 10 17 1 27 -2 21 -5z"/>
<path d="M1355 2848 c-40 -23 -44 -50 -16 -113 l18 -40 23 48 c12 26 24 47 27
47 8 0 63 -62 63 -71 0 -5 5 -9 10 -9 6 0 10 4 10 9 0 5 23 12 50 16 39 5 50
11 50 25 0 19 -48 73 -80 90 -25 14 -130 12 -155 -2z"/>
<path d="M1385 2730 c-3 -5 -1 -10 4 -10 6 0 11 5 11 10 0 6 -2 10 -4 10 -3 0
-8 -4 -11 -10z"/>
<path d="M1556 2704 c-9 -22 -8 -24 9 -18 8 4 15 12 15 20 0 19 -16 18 -24 -2z"/>
<path d="M1400 2700 c0 -5 5 -10 10 -10 6 0 10 5 10 10 0 6 -4 10 -10 10 -5 0
-10 -4 -10 -10z"/>
<path d="M1340 2661 c0 -12 6 -21 15 -21 8 0 15 4 15 9 0 5 -7 14 -15 21 -13
10 -15 9 -15 -9z"/>
<path d="M1486 2643 c-11 -11 -6 -23 9 -23 8 0 15 4 15 9 0 13 -16 22 -24 14z"/>
<path d="M1504 2569 c-3 -6 -19 -9 -35 -7 -35 5 -40 -16 -8 -32 16 -9 26 -8
45 5 13 8 24 22 24 30 0 18 -16 20 -26 4z"/>
<path d="M1560 2542 c0 -6 5 -14 10 -17 6 -3 10 -15 10 -25 0 -10 6 -25 14
-33 8 -8 18 -31 22 -52 5 -27 9 -33 16 -23 7 9 8 8 4 -6 -4 -11 5 -49 19 -87
l26 -68 38 27 c45 32 98 101 119 153 18 45 14 51 -69 97 -41 24 -72 32 -131
38 -54 5 -78 3 -78 -4z"/>
<path d="M1344 2457 c-38 -40 -104 -152 -104 -177 0 -23 75 -70 141 -88 l36
-9 -4 156 c-2 114 -7 157 -16 158 -6 2 -31 -16 -53 -40z"/>
<path d="M2070 3640 c0 -5 5 -10 10 -10 6 0 10 5 10 10 0 6 -4 10 -10 10 -5 0
-10 -4 -10 -10z"/>
<path d="M2460 1791 c-10 -19 -9 -26 3 -38 29 -30 49 6 23 42 -13 18 -14 18
-26 -4z"/>
<path d="M2620 1780 c0 -5 5 -10 10 -10 6 0 10 5 10 10 0 6 -4 10 -10 10 -5 0
-10 -4 -10 -10z"/>
<path d="M1146 3767 c-13 -9 -16 -20 -12 -35 4 -12 11 -20 16 -17 16 10 90
-19 90 -35 0 -23 20 -40 47 -40 21 0 22 -3 13 -20 -9 -17 -8 -20 9 -20 31 0
34 18 7 47 -14 15 -23 29 -21 33 2 3 -13 25 -33 48 -41 47 -85 62 -116 39z"/>
<path d="M1200 3680 c0 -5 7 -10 16 -10 8 0 12 5 9 10 -3 6 -10 10 -16 10 -5
0 -9 -4 -9 -10z"/>
<path d="M1140 3645 c0 -19 5 -35 10 -35 6 0 10 -9 10 -20 0 -31 17 -24 22 9
3 23 0 31 -15 35 -14 3 -17 10 -12 25 4 12 2 21 -4 21 -6 0 -11 -16 -11 -35z"/>
<path d="M1205 3650 c-4 -6 -3 -16 3 -22 6 -6 12 -6 17 2 4 6 3 16 -3 22 -6 6
-12 6 -17 -2z"/>
<path d="M1196 3571 c-17 -18 -16 -20 3 -26 26 -8 41 1 41 26 0 24 -22 25 -44
0z"/>
<path d="M1228 3514 c-27 -14 -37 -38 -20 -47 12 -7 67 29 70 46 4 21 -14 21
-50 1z"/>
<path d="M1570 1880 c-6 -12 -22 -25 -36 -30 -30 -12 -31 -41 -4 -85 19 -30
23 -32 45 -21 14 6 25 17 25 25 0 11 -3 11 -15 1 -12 -10 -15 -10 -15 3 0 9 9
21 21 28 17 9 25 7 42 -9 12 -11 38 -22 57 -24 27 -2 36 -8 38 -25 3 -18 10
-23 33 -23 25 0 28 3 25 23 -3 12 -5 37 -5 55 -1 22 -7 35 -18 39 -10 4 -33
19 -51 35 -26 23 -42 28 -82 28 -39 0 -51 -4 -60 -20z m200 -120 c0 -5 -4 -10
-10 -10 -5 0 -10 5 -10 10 0 6 5 10 10 10 6 0 10 -4 10 -10z"/>
<path d="M1670 1745 c0 -8 5 -15 10 -15 6 0 10 7 10 15 0 8 -4 15 -10 15 -5 0
-10 -7 -10 -15z"/>
<path d="M1595 1730 c3 -5 10 -10 16 -10 5 0 9 5 9 10 0 6 -7 10 -16 10 -8 0
-12 -4 -9 -10z"/>
<path d="M1636 1731 c-8 -13 12 -63 23 -57 10 6 3 54 -10 61 -4 3 -10 1 -13
-4z"/>
<path d="M1540 1690 c0 -21 15 -34 30 -25 12 7 2 32 -16 39 -9 3 -14 -1 -14
-14z"/>
<path d="M1677 1663 c-12 -11 -8 -23 7 -23 8 0 16 7 20 15 5 15 -14 21 -27 8z"/>
<path d="M1710 1600 c-8 -5 -27 -10 -42 -10 -30 0 -35 -9 -16 -28 18 -18 53
-15 71 6 29 32 20 53 -13 32z"/>
<path d="M1718 1253 c7 -3 16 -2 19 1 4 3 -2 6 -13 5 -11 0 -14 -3 -6 -6z"/>
<path d="M1648 1243 c7 -3 16 -2 19 1 4 3 -2 6 -13 5 -11 0 -14 -3 -6 -6z"/>
<path d="M3974 665 c-10 -25 4 -45 30 -45 27 0 42 26 25 46 -15 19 -48 18 -55
-1z"/>
<path d="M3370 535 l0 -125 30 0 c29 0 29 1 32 61 3 65 19 88 52 76 12 -5 16
-20 16 -72 l0 -65 30 0 30 0 0 75 c0 62 -4 79 -20 95 -22 22 -60 26 -91 10
-17 -10 -19 -7 -19 30 0 38 -2 40 -30 40 l-30 0 0 -125z"/>
<path d="M4430 621 c0 -39 0 -39 -28 -29 -40 16 -79 3 -97 -32 -37 -71 -4
-150 64 -150 20 0 42 5 49 12 9 9 12 9 12 0 0 -7 13 -12 30 -12 l30 0 0 125 0
125 -30 0 c-28 0 -30 -2 -30 -39z m-10 -85 c28 -35 -11 -93 -47 -70 -36 22
-23 84 17 84 10 0 23 -7 30 -14z"/>
<path d="M5630 626 c0 -34 0 -34 -38 -29 -31 4 -44 0 -68 -20 -39 -34 -41
-102 -5 -141 21 -22 31 -25 97 -24 l74 0 0 124 0 124 -30 0 c-27 0 -30 -3 -30
-34z m-12 -88 c7 -7 12 -25 12 -40 0 -21 -6 -29 -26 -34 -31 -8 -46 6 -46 41
0 39 35 58 60 33z"/>
<path d="M7230 535 l0 -125 29 0 c27 0 30 3 33 38 l3 37 25 -37 c22 -33 30
-38 63 -38 l39 0 -36 42 c-20 23 -36 46 -36 51 0 5 14 26 30 47 17 21 30 41
30 44 0 3 -13 6 -29 6 -22 0 -38 -10 -60 -37 l-31 -38 0 68 0 67 -30 0 -30 0
0 -125z"/>
<path d="M3162 631 c-37 -24 -52 -55 -52 -113 0 -32 7 -47 34 -74 28 -28 42
-34 76 -34 23 0 51 5 63 11 23 12 56 48 57 62 0 13 -61 7 -86 -9 -50 -33 -100
22 -78 85 7 20 17 27 43 29 18 2 40 -3 49 -11 19 -16 59 -20 67 -7 3 5 -7 23
-23 40 -37 42 -101 51 -150 21z"/>
<path d="M4830 530 l0 -120 73 0 c60 0 77 4 95 20 27 25 28 50 3 81 -16 20
-17 25 -4 37 8 8 13 28 11 46 -4 40 -35 56 -115 56 l-63 0 0 -120z m115 45 c0
-14 -8 -21 -27 -23 -24 -3 -28 0 -28 23 0 23 4 26 28 23 19 -2 27 -9 27 -23z
m5 -80 c17 -20 4 -35 -31 -35 -24 0 -29 4 -29 25 0 20 5 25 24 25 13 0 29 -7
36 -15z"/>
<path d="M3615 575 c-19 -18 -25 -35 -25 -70 0 -35 6 -52 25 -70 26 -27 82
-34 103 -13 9 9 12 9 12 0 0 -7 13 -12 30 -12 l30 0 0 95 0 95 -30 0 c-16 0
-30 -5 -30 -10 0 -7 -6 -7 -19 0 -33 17 -71 11 -96 -15z m107 -51 c9 -18 9
-30 1 -42 -22 -36 -73 -21 -73 22 0 48 53 63 72 20z"/>
<path d="M3830 505 l0 -95 30 0 c30 0 30 0 30 56 0 53 2 56 30 67 23 9 30 17
30 39 0 30 -10 34 -41 18 -13 -7 -19 -7 -19 0 0 5 -13 10 -30 10 l-30 0 0 -95z"/>
<path d="M3970 505 l0 -95 30 0 30 0 0 95 0 95 -30 0 -30 0 0 -95z"/>
<path d="M4070 505 l0 -95 30 0 c30 0 30 0 30 58 0 60 11 82 41 82 22 0 29
-20 29 -86 0 -53 0 -54 30 -54 l30 0 0 75 c0 62 -4 79 -20 95 -22 22 -60 26
-91 10 -13 -7 -19 -7 -19 0 0 5 -13 10 -30 10 l-30 0 0 -95z"/>
<path d="M4530 527 c0 -105 10 -115 108 -115 l79 0 -1 91 -1 92 -30 0 c-29 0
-30 -1 -33 -55 -4 -73 -8 -82 -34 -78 -20 3 -23 10 -26 48 -4 76 -10 90 -37
90 -24 0 -25 -2 -25 -73z"/>
<path d="M5065 575 c-19 -18 -25 -35 -25 -68 0 -62 29 -97 79 -97 20 0 42 5
49 12 9 9 12 9 12 0 0 -7 13 -12 30 -12 l30 0 0 95 0 95 -30 0 c-17 0 -30 -5
-30 -12 0 -9 -3 -9 -12 0 -21 21 -77 14 -103 -13z m100 -41 c20 -20 16 -53 -7
-68 -37 -23 -76 35 -48 70 16 18 35 18 55 -2z"/>
<path d="M5280 504 l0 -94 30 0 30 0 0 64 c0 58 2 65 22 72 31 10 48 -19 48
-83 0 -53 0 -53 31 -53 l31 0 -4 76 c-5 99 -19 112 -118 112 l-70 0 0 -94z"/>
<path d="M5762 593 c-18 -7 -42 -57 -42 -88 0 -33 24 -81 45 -89 27 -10 70 -7
83 6 9 9 12 9 12 0 0 -7 13 -12 30 -12 l30 0 0 95 0 95 -30 0 c-17 0 -30 -5
-30 -12 0 -9 -3 -9 -12 0 -12 12 -62 15 -86 5z m88 -57 c28 -35 -11 -93 -47
-70 -24 15 -28 48 -8 68 20 20 39 20 55 2z"/>
<path d="M5960 505 l0 -95 30 0 c30 0 30 0 30 56 0 53 2 56 30 67 23 9 30 17
30 39 0 30 -10 34 -41 18 -13 -7 -19 -7 -19 0 0 5 -13 10 -30 10 l-30 0 0 -95z"/>
<path d="M6125 575 c-19 -18 -25 -35 -25 -68 0 -62 29 -97 79 -97 20 0 42 5
49 12 9 9 12 9 12 0 0 -7 13 -12 30 -12 l31 0 -3 93 -3 92 -27 3 c-16 2 -28
-2 -28 -8 0 -7 -6 -8 -19 0 -33 17 -71 11 -96 -15z m99 -41 c32 -32 6 -81 -37
-70 -21 5 -27 12 -27 34 0 48 34 67 64 36z"/>
<path d="M6337 588 c-2 -7 -4 -50 -4 -95 l-1 -83 29 0 c28 0 29 2 29 44 0 65
15 98 43 94 20 -3 22 -9 25 -70 3 -68 3 -68 32 -68 l30 0 0 75 c0 62 -4 79
-20 95 -22 22 -60 26 -91 10 -13 -7 -19 -7 -19 0 0 14 -47 13 -53 -2z"/>
<path d="M6581 578 c-41 -43 -35 -134 10 -158 25 -14 73 -12 87 2 9 9 12 9 12
0 0 -7 13 -12 30 -12 l30 0 0 95 0 95 -30 0 c-16 0 -30 -5 -30 -10 0 -7 -6 -7
-19 0 -32 16 -69 12 -90 -12z m97 -40 c7 -7 12 -21 12 -33 0 -43 -50 -62 -70
-26 -14 27 -13 37 6 55 19 19 36 20 52 4z"/>
<path d="M6772 592 c71 -170 72 -174 59 -206 -26 -63 -26 -66 6 -66 27 0 31 6
80 123 29 67 55 130 59 140 5 14 1 17 -24 17 -27 0 -32 -5 -48 -47 -9 -27 -20
-52 -24 -56 -4 -4 -15 17 -25 48 -18 52 -21 55 -53 55 -18 0 -32 -4 -30 -8z"/>
<path d="M7024 577 c-37 -32 -39 -105 -5 -141 21 -22 32 -25 97 -24 l74 0 0
94 c0 91 -1 94 -23 94 -13 0 -28 -5 -34 -11 -8 -8 -13 -8 -17 0 -12 19 -64 12
-92 -12z m95 -41 c7 -8 11 -27 9 -43 -2 -22 -9 -29 -30 -31 -22 -3 -30 2 -38
23 -13 33 -13 31 6 49 19 20 38 20 53 2z"/>
<path d="M7474 588 c-55 -26 -58 -125 -5 -165 28 -22 95 -16 119 10 12 13 22
26 22 30 0 10 -53 8 -69 -2 -9 -6 -22 -6 -33 0 -35 19 -17 29 48 29 l67 0 -7
33 c-12 63 -82 95 -142 65z m84 -55 c2 -9 -8 -13 -32 -13 -34 0 -44 8 -29 24
11 11 56 2 61 -11z"/>
</g>
</svg>
