<?xml version="1.0" standalone="no"?>
<!DOCTYPE svg PUBLIC "-//W3C//DTD SVG 20010904//EN"
 "http://www.w3.org/TR/2001/REC-SVG-20010904/DTD/svg10.dtd">
<svg version="1.0" xmlns="http://www.w3.org/2000/svg"
 width="776.000000pt" height="817.000000pt" viewBox="0 0 776.000000 817.000000"
 preserveAspectRatio="xMidYMid meet">

<g transform="translate(0.000000,817.000000) scale(0.100000,-0.100000)"
fill="#000000" stroke="none">
<path d="M0 4085 l0 -4085 3880 0 3880 0 0 4085 0 4085 -3880 0 -3880 0 0
-4085z m7376 3221 l34 -34 0 -216 0 -216 -1712 0 -1713 0 3 250 3 250 1675 0
1676 0 34 -34z m-3679 -206 c61 -27 108 -72 141 -135 21 -41 26 -64 26 -125 0
-86 -27 -151 -86 -206 -59 -57 -114 -78 -198 -78 -59 0 -85 5 -120 23 -61 31
-107 76 -138 136 -36 69 -37 179 -3 245 75 147 232 205 378 140z m-2452 -244
c17 4 26 0 34 -14 14 -26 14 -82 1 -82 -5 0 -10 18 -10 39 0 43 -9 55 -34 45
-9 -3 -16 -22 -19 -47 -2 -23 -4 -6 -4 38 0 44 2 65 4 47 4 -28 7 -31 28 -26z
m-445 33 c0 -5 -5 -7 -10 -4 -15 9 -50 -4 -50 -20 0 -7 16 -22 35 -34 37 -21
43 -39 23 -59 -15 -15 -55 -16 -63 -1 -4 6 4 9 21 7 41 -4 44 26 5 47 -32 16
-43 58 -18 68 22 10 57 7 57 -4z m96 -37 c6 -4 13 -15 17 -24 5 -15 1 -18 -28
-18 -24 0 -35 -5 -35 -14 0 -17 35 -30 51 -20 8 4 9 3 5 -4 -9 -16 -49 -15
-64 0 -36 36 13 109 54 80z m112 -42 c3 -43 2 -45 -27 -47 -17 -1 -35 5 -42
14 -11 13 -10 17 6 29 10 8 28 14 38 14 16 0 17 2 7 15 -8 10 -21 13 -33 9
-13 -4 -17 -3 -12 6 4 6 19 10 33 8 24 -3 27 -8 30 -48z m69 38 c-11 -6 -17
-22 -17 -48 0 -22 -4 -40 -10 -40 -5 0 -10 22 -10 49 0 46 1 49 27 49 21 0 23
-2 10 -10z m103 4 c0 -5 -10 -8 -21 -8 -29 1 -48 -28 -33 -51 7 -10 21 -18 32
-17 12 0 19 -3 16 -8 -8 -12 -38 -10 -52 4 -15 15 -15 61 0 76 14 14 58 16 58
4z m250 -82 c0 -5 -4 -10 -10 -10 -5 0 -10 5 -10 10 0 6 5 10 10 10 6 0 10 -4
10 -10z m3088 -105 c93 -28 172 -135 172 -232 0 -32 -21 -113 -29 -113 -4 0
-21 14 -40 30 -50 46 -124 78 -130 57 -4 -10 9 -124 19 -170 7 -32 5 -39 -12
-48 -25 -13 -124 -7 -139 8 -8 8 -5 39 10 109 12 53 20 99 17 101 -10 10 -87
-49 -82 -62 3 -8 0 -12 -7 -9 -7 2 -21 -9 -32 -25 -25 -38 -39 -27 -60 42 -19
64 -19 90 0 155 28 94 129 169 231 171 17 1 53 -6 82 -14z m952 -139 c0 -21 6
-25 33 -28 31 -3 32 -5 35 -50 2 -29 -1 -48 -7 -48 -6 0 -11 16 -11 35 0 23
-6 38 -16 42 -20 7 -34 -13 -34 -49 0 -16 -4 -28 -10 -28 -6 0 -10 32 -10 75
0 43 4 75 10 75 6 0 10 -11 10 -24z m120 0 c0 -19 6 -25 28 -28 25 -3 27 -7
30 -50 4 -56 -15 -66 -20 -11 -2 27 -8 39 -20 41 -15 3 -18 -4 -18 -37 0 -30
-4 -41 -15 -41 -12 0 -15 15 -15 75 0 60 3 75 15 75 9 0 15 -9 15 -24z m-452
-78 c2 -29 -1 -48 -7 -48 -6 0 -11 16 -11 35 0 23 -6 38 -16 42 -20 7 -34 -13
-34 -49 0 -16 -4 -28 -10 -28 -5 0 -10 23 -10 51 l0 50 43 -3 42 -3 3 -47z
m49 20 l10 -33 13 33 c17 44 52 44 71 0 l13 -32 13 32 c18 45 57 45 73 0 l11
-33 14 33 c13 29 43 48 32 20 -2 -7 -10 -30 -18 -51 -17 -48 -37 -44 -59 12
l-17 45 -18 -48 c-22 -57 -41 -57 -64 2 l-17 42 -15 -42 c-22 -60 -43 -60 -63
-2 -19 57 -19 54 -2 54 7 0 18 -15 23 -32z m-4158 -600 c58 -28 118 -88 144
-147 44 -94 24 -237 -43 -309 -20 -22 -47 -31 -35 -13 3 6 -13 29 -35 52 -22
23 -40 39 -40 35 0 -4 -10 2 -22 13 -22 21 -41 21 -122 2 -42 -10 -60 -6 -50
11 17 27 -45 -10 -89 -53 -27 -27 -54 -49 -58 -49 -19 0 -60 80 -71 136 -29
161 69 306 237 348 39 10 140 -4 184 -26z m3489 -53 c93 -28 172 -135 172
-232 0 -33 -21 -113 -29 -113 -4 0 -18 11 -31 24 -25 28 -100 66 -128 66 -17
0 -17 -5 -5 -87 7 -49 14 -96 17 -106 2 -10 -4 -22 -16 -28 -24 -13 -124 -7
-139 8 -6 6 -4 35 6 84 24 109 26 131 12 126 -7 -3 -11 -9 -10 -15 2 -6 -4 -9
-11 -6 -17 7 -92 -59 -102 -89 l-7 -21 -18 22 c-10 13 -23 47 -30 78 -28 125
44 252 165 290 55 17 93 17 154 -1z m-2953 -140 c0 -14 8 -21 30 -25 28 -5 30
-8 33 -52 3 -43 1 -48 -17 -48 -17 0 -21 6 -21 34 0 31 -18 62 -21 37 -1 -6
-3 -15 -4 -21 -1 -5 -3 -19 -4 -30 -1 -13 -8 -20 -21 -20 -18 0 -20 7 -20 76
0 72 1 75 23 72 14 -2 22 -10 22 -23z m4095 0 c0 -21 5 -25 29 -25 32 0 41
-14 41 -66 0 -24 -5 -34 -15 -34 -11 0 -15 11 -15 41 0 33 -3 40 -17 37 -13
-2 -19 -14 -21 -41 -6 -67 -22 -39 -22 38 0 43 4 75 10 75 6 0 10 -11 10 -25z
m-4280 -43 c0 -32 -5 -63 -12 -70 -18 -18 -68 -15 -68 3 0 10 7 15 18 13 14
-3 17 6 20 55 3 49 6 57 22 57 18 0 20 -7 20 -58z m554 42 c9 -9 16 -32 16
-54 0 -48 -27 -70 -87 -70 l-43 0 0 70 0 70 49 0 c32 0 55 -6 65 -16z m1426 7
c0 -6 -4 -13 -10 -16 -5 -3 -10 1 -10 9 0 9 5 16 10 16 6 0 10 -4 10 -9z m28
-18 c-2 -16 -8 -27 -15 -25 -7 1 -13 -5 -13 -13 0 -18 36 -20 47 -3 4 7 6 25
5 39 -3 22 1 27 22 27 14 0 27 -6 30 -13 2 -7 -2 -12 -9 -11 -8 0 -15 -3 -16
-9 -4 -25 -42 -65 -62 -65 -22 -1 -22 -1 -2 -16 18 -13 20 -13 23 1 2 9 10 14
17 11 18 -6 37 18 33 41 -2 15 3 17 27 15 41 -5 52 -18 37 -43 -8 -12 -9 -19
-5 -16 5 3 9 -16 9 -44 -1 -28 -5 -47 -11 -45 -5 1 -9 19 -9 39 1 43 -12 39
-34 -12 -15 -33 -16 -34 -20 -12 -3 16 5 32 22 48 25 23 34 38 19 31 -5 -2
-21 -10 -38 -17 -16 -7 -38 -17 -47 -22 -11 -5 -24 -2 -41 11 -30 24 -62 17
-47 -9 11 -21 2 -61 -14 -61 -6 0 -11 18 -11 45 0 25 4 45 8 45 5 0 6 4 3 9
-6 9 48 61 64 61 5 0 9 3 9 8 -3 18 2 32 12 32 6 0 9 -12 7 -27z m1692 -3 c0
-27 3 -30 30 -30 27 0 30 3 30 30 0 20 5 30 15 30 12 0 15 -14 15 -70 0 -56
-3 -70 -15 -70 -10 0 -15 10 -15 30 0 27 -3 30 -30 30 -27 0 -30 -3 -30 -30 0
-20 -5 -30 -15 -30 -12 0 -15 14 -15 70 0 56 3 70 15 70 10 0 15 -10 15 -30z
m396 -20 c11 -45 14 -44 32 15 12 41 35 38 46 -7 12 -47 22 -48 30 -3 6 33 22
53 32 42 3 -3 -3 -35 -13 -71 -20 -76 -42 -85 -57 -23 -5 20 -12 37 -16 37 -4
0 -11 -17 -16 -37 -15 -63 -37 -53 -61 27 -18 62 -18 71 -5 68 10 -2 21 -22
28 -48z m404 25 c0 -16 12 -18 68 -15 17 1 32 -3 32 -9 0 -6 -9 -11 -20 -11
-11 0 -20 -4 -20 -10 0 -5 7 -10 15 -10 8 0 19 -8 24 -18 15 -29 -6 -42 -66
-42 l-53 0 0 39 c0 22 -6 42 -12 45 -10 5 -10 7 0 12 6 3 12 12 12 20 0 8 5
14 10 14 6 0 10 -7 10 -15z m-4382 -27 c7 -7 12 -24 12 -38 0 -34 -17 -50 -55
-50 -38 0 -55 16 -55 50 0 34 17 50 55 50 17 0 36 -5 43 -12z m250 -40 c3 -43
1 -48 -17 -48 -17 0 -21 6 -21 34 0 19 -4 38 -10 41 -9 6 -12 -4 -14 -50 -1
-13 -9 -21 -24 -23 -20 -3 -22 1 -22 48 l0 51 53 -3 52 -3 3 -47z m316 36 c15
-14 17 -14 32 0 22 23 71 20 84 -3 17 -33 12 -41 -26 -41 -23 0 -33 -4 -28
-11 3 -6 17 -8 30 -5 17 5 24 2 24 -9 0 -22 -76 -21 -88 2 -9 16 -11 16 -27 0
-23 -24 -81 -22 -95 2 -22 43 1 81 50 81 16 0 36 -7 44 -16z m3204 4 c7 -7 12
-20 12 -30 0 -14 -8 -18 -36 -18 -21 0 -33 -4 -29 -10 3 -5 17 -10 31 -10 13
0 24 -4 24 -10 0 -17 -67 -12 -74 6 -17 45 1 84 39 84 12 0 26 -5 33 -12z m54
-24 l12 -35 12 33 c6 18 18 34 27 36 14 3 12 -8 -11 -64 -27 -64 -53 -96 -68
-82 -3 4 1 14 10 23 20 21 20 24 -4 79 -15 37 -16 46 -5 46 7 0 20 -16 27 -36z
m502 20 c3 -9 6 -31 6 -50 0 -35 0 -35 -42 -32 -36 2 -44 7 -46 26 -3 18 2 23
27 28 17 4 31 11 31 16 0 6 -11 7 -25 4 -24 -6 -33 3 -18 17 13 13 61 7 67 -9z
m258 -21 c2 -27 8 -39 21 -41 14 -3 17 4 17 37 0 30 4 41 15 41 11 0 15 -12
15 -51 l0 -50 -42 3 -43 3 -3 48 c-4 55 15 65 20 10z m175 26 c16 -14 17 -61
1 -77 -7 -7 -25 -12 -40 -12 -23 0 -28 -4 -28 -25 0 -14 -4 -25 -10 -25 -6 0
-10 31 -10 73 l0 74 37 1 c20 1 42 -3 50 -9z m-2899 -120 l2 -34 -15 34 c-18
40 -18 44 -2 39 6 -3 13 -20 15 -39z m-2329 -371 c131 -63 197 -212 157 -351
-18 -61 -30 -75 -50 -58 -7 6 -16 8 -20 4 -4 -4 -4 0 0 10 6 16 -4 22 -29 18
-4 0 -6 4 -5 11 3 12 -77 66 -107 72 -11 2 -24 5 -30 6 -41 9 -55 -36 -55
-178 l0 -104 -32 7 c-60 12 -89 27 -84 44 6 19 27 135 32 170 1 13 9 28 16 32
8 5 9 9 2 9 -18 0 -107 -75 -129 -109 -11 -17 -24 -29 -30 -28 -5 2 -21 26
-35 53 -33 65 -35 176 -3 245 36 81 117 147 208 170 47 13 145 1 194 -23z
m5177 -133 c50 -15 99 -56 125 -105 8 -16 14 -73 16 -155 2 -71 6 -141 9 -154
3 -13 28 -45 55 -72 l50 -49 -311 0 c-358 0 -384 4 -445 64 -50 51 -65 98 -65
211 0 48 6 106 12 129 15 50 80 118 128 133 55 17 366 16 426 -2z m629 -52
c128 -43 196 -194 147 -322 -19 -49 -37 -62 -46 -33 -17 54 -129 109 -156 77
-8 -9 -7 -14 2 -17 7 -3 3 -7 -10 -10 -12 -4 -20 -2 -16 3 3 5 -9 9 -25 9 -17
0 -31 -5 -31 -12 0 -6 -3 -9 -6 -6 -9 9 26 58 42 58 7 0 16 5 19 10 4 6 -5 10
-19 10 -17 0 -26 -6 -26 -15 0 -9 -13 -18 -32 -22 -18 -4 -52 -26 -81 -54 -28
-27 -53 -46 -58 -44 -13 9 -39 98 -39 135 0 60 30 130 75 175 69 70 164 91
260 58z m-5225 -8 c0 -8 -9 -15 -20 -15 -11 0 -20 7 -20 15 0 8 9 15 20 15 11
0 20 -7 20 -15z m1740 -9 c0 -32 -18 -43 -37 -23 -20 20 -10 47 17 47 15 0 20
-7 20 -24z m-1920 -6 c26 -26 25 -60 -1 -94 -17 -21 -29 -26 -65 -26 -47 0
-46 -2 -46 70 0 72 -2 70 47 70 32 0 51 -6 65 -20z m104 -26 c11 -4 16 -19 16
-51 l0 -44 -47 3 c-44 3 -48 5 -48 28 0 17 6 26 20 28 11 2 25 9 30 14 7 7 1
9 -17 4 -26 -6 -36 2 -21 17 8 9 46 9 67 1z m76 -44 c0 -43 -3 -50 -20 -50
-17 0 -20 7 -20 50 0 43 3 50 20 50 17 0 20 -7 20 -50z m138 22 c4 -26 22 -20
22 9 0 13 7 19 21 19 18 0 20 -4 15 -27 -4 -16 -17 -48 -29 -73 -17 -35 -28
-46 -49 -48 -16 -2 -28 1 -28 7 0 6 6 11 14 11 21 0 24 21 9 65 -11 33 -18 40
-40 42 l-27 1 23 -17 c35 -27 24 -55 -22 -59 -29 -3 -37 0 -37 13 0 12 6 15
20 10 11 -3 20 -2 20 3 0 5 -9 12 -20 15 -19 5 -27 36 -13 51 4 4 32 6 63 4
48 -3 55 -6 58 -26z m1636 12 c4 -10 14 -14 26 -11 30 8 36 -13 10 -33 -18
-14 -20 -20 -12 -37 12 -21 7 -33 -14 -33 -7 0 -11 8 -10 17 4 23 -19 44 -38
37 -9 -3 -16 -2 -16 4 0 5 10 12 21 15 17 5 20 11 15 31 -7 28 8 36 18 10z
m86 -109 c-14 -8 -29 -14 -35 -14 -5 0 1 6 15 14 14 8 30 14 35 14 6 0 -1 -6
-15 -14z m-85 -36 c-22 -10 -47 -18 -55 -18 -8 0 3 8 25 18 22 11 47 19 55 19
8 0 -3 -8 -25 -19z m269 -275 c14 -13 16 -58 16 -334 0 -276 -2 -321 -16 -334
-14 -14 -170 -16 -1569 -16 -1399 0 -1555 2 -1569 16 -14 13 -16 58 -16 334 0
276 2 321 16 334 14 14 170 16 1569 16 1399 0 1555 -2 1569 -16z m2540 -313
c50 -12 106 -57 131 -107 16 -32 21 -66 25 -180 5 -154 6 -154 74 -216 l41
-38 -586 0 c-632 0 -642 1 -697 53 -53 49 -65 84 -70 193 -6 134 7 184 64 241
23 23 57 46 76 52 42 12 890 14 942 2z m641 -58 c128 -43 196 -194 147 -322
-19 -49 -37 -62 -46 -33 -17 54 -129 109 -156 77 -8 -9 -7 -14 2 -17 7 -3 3
-7 -10 -10 -12 -4 -20 -2 -16 3 3 5 -9 9 -25 9 -17 0 -31 -5 -31 -12 0 -6 -3
-9 -6 -6 -10 10 26 55 49 63 20 6 20 8 4 12 -11 3 -27 -4 -38 -16 -11 -12 -29
-21 -39 -21 -11 0 -43 -22 -72 -50 -28 -27 -54 -47 -59 -45 -13 9 -39 98 -39
135 0 60 30 130 75 175 69 70 164 91 260 58z m-5806 -415 c58 -28 118 -89 144
-147 25 -54 31 -191 9 -199 -6 -2 -10 -7 -7 -12 9 -14 -28 -74 -73 -118 -71
-69 -164 -99 -253 -82 -58 11 -153 66 -142 83 3 5 1 7 -4 4 -18 -11 -71 59
-88 115 -19 64 -19 111 -1 172 29 96 110 176 206 203 59 17 152 8 209 -19z
m532 -200 c0 -13 1 -43 1 -68 0 -39 2 -42 11 -22 5 12 18 22 28 22 10 0 21 5
24 10 4 7 -2 9 -19 4 -20 -5 -26 -2 -26 10 0 12 10 16 39 16 43 0 51 -10 51
-65 l0 -34 -97 0 c-54 0 -104 5 -110 11 -16 13 -17 60 -1 76 7 7 22 12 35 12
18 0 23 6 23 25 0 34 40 36 41 3z m289 7 c0 -8 -9 -15 -20 -15 -11 0 -20 7
-20 15 0 8 9 15 20 15 11 0 20 -7 20 -15z m-500 -43 c0 -53 15 -78 37 -61 7 7
13 32 13 60 0 42 3 49 20 49 17 0 20 -7 20 -48 0 -63 -21 -92 -65 -92 -44 0
-65 29 -65 92 0 41 3 48 20 48 17 0 20 -7 20 -48z m438 -44 c3 -43 1 -48 -17
-48 -18 0 -21 6 -21 41 0 24 -4 38 -10 34 -5 -3 -10 -22 -10 -41 0 -27 -4 -34
-20 -34 -17 0 -20 7 -20 51 l0 50 48 -3 47 -3 3 -47z m62 2 c0 -43 -3 -50 -20
-50 -17 0 -20 7 -20 50 0 43 3 50 20 50 17 0 20 -7 20 -50z m1584 34 c24 -9
19 -40 -16 -105 -34 -61 -50 -70 -84 -45 -19 15 -18 16 10 68 46 83 58 94 90
82z m26 -114 c8 -5 12 -12 9 -15 -8 -8 -39 5 -39 16 0 11 11 11 30 -1z m1057
-75 c133 -40 205 -194 153 -329 l-10 -27 -24 28 c-28 33 -130 88 -146 78 -6
-3 -9 -9 -6 -13 2 -4 7 -34 11 -67 3 -33 10 -77 15 -98 7 -32 5 -39 -12 -48
-24 -13 -124 -7 -139 8 -7 7 -3 42 11 108 11 54 18 100 16 103 -10 10 -79 -43
-110 -84 l-34 -45 -16 22 c-8 13 -21 47 -27 76 -22 98 19 202 101 257 70 46
135 55 217 31z m553 -139 c0 -21 6 -25 33 -28 31 -3 32 -5 35 -50 2 -29 -1
-48 -7 -48 -6 0 -11 16 -11 35 0 23 -6 38 -16 42 -20 7 -34 -13 -34 -49 0 -16
-4 -28 -10 -28 -6 0 -10 32 -10 75 0 43 4 75 10 75 6 0 10 -11 10 -24z m370 0
c0 -21 6 -25 33 -28 31 -3 32 -5 35 -50 4 -56 -15 -66 -20 -11 -2 26 -8 39
-20 41 -14 3 -19 -6 -24 -37 -11 -66 -24 -47 -24 34 0 43 4 75 10 75 6 0 10
-11 10 -24z m1137 -2 c3 -9 1 -24 -6 -33 -6 -9 -14 -24 -17 -33 -7 -21 -34
-24 -34 -5 0 8 9 22 20 32 24 21 18 35 -16 35 -14 0 -22 4 -19 10 10 17 65 12
72 -6z m-1339 -36 c7 -7 12 -20 12 -30 0 -14 -8 -18 -36 -18 -21 0 -33 -4 -29
-10 3 -5 17 -10 31 -10 13 0 24 -4 24 -10 0 -17 -67 -12 -74 6 -17 45 1 84 39
84 12 0 26 -5 33 -12z m53 -25 l12 -38 12 35 c6 19 19 36 28 38 13 3 10 -10
-13 -65 -28 -67 -52 -95 -67 -79 -4 4 0 12 10 17 22 13 22 27 -3 83 -15 36
-16 46 -5 46 7 0 19 -17 26 -37z m327 25 c7 -7 12 -24 12 -38 0 -14 -5 -31
-12 -38 -7 -7 -24 -12 -38 -12 -14 0 -31 5 -38 12 -7 7 -12 24 -12 38 0 14 5
31 12 38 7 7 24 12 38 12 14 0 31 -5 38 -12z m53 -15 l11 -28 10 28 c13 37 34
34 43 -5 l7 -33 9 33 c5 17 14 32 19 32 12 0 12 -2 -1 -56 -13 -50 -33 -57
-47 -16 l-10 27 -11 -27 c-18 -47 -37 -31 -57 47 -9 35 14 32 27 -2z m253 11
c3 -9 6 -31 6 -50 0 -33 -1 -34 -40 -34 -27 0 -43 5 -46 15 -8 20 13 45 37 45
11 0 19 5 19 11 0 7 -10 9 -25 5 -24 -6 -33 3 -18 17 13 13 61 7 67 -9z m74 5
c-10 -5 -21 -28 -24 -49 -9 -56 -24 -50 -24 10 0 50 0 50 33 50 26 -1 29 -2
15 -11z m100 -1 c7 -7 12 -20 12 -30 0 -14 -8 -18 -36 -18 -21 0 -33 -4 -29
-10 3 -5 17 -10 31 -10 13 0 24 -4 24 -10 0 -5 -16 -10 -35 -10 -44 0 -65 34
-47 75 13 27 58 35 80 13z m106 -20 l14 -33 12 33 c7 17 18 32 26 32 11 0 10
-9 -5 -47 -35 -88 -44 -103 -63 -103 -23 0 -23 9 -1 25 15 11 15 18 4 55 -7
23 -15 48 -18 56 -11 30 18 12 31 -18z m167 6 c13 -37 -11 -74 -49 -74 -35 0
-52 16 -52 50 0 35 17 50 57 50 27 0 35 -5 44 -26z m39 -1 c0 -37 14 -57 34
-50 10 4 16 19 16 42 0 19 5 35 10 35 6 0 10 -22 10 -50 l0 -50 -39 0 c-26 0
-41 5 -45 16 -10 25 -7 84 4 84 6 0 10 -12 10 -27z m140 -63 c0 -5 -7 -10 -15
-10 -8 0 -15 5 -15 10 0 6 7 10 15 10 8 0 15 -4 15 -10z m-5522 -41 c95 -46
160 -142 169 -247 5 -61 -15 -147 -34 -147 -6 0 -25 13 -43 28 -35 32 -125 77
-153 77 -13 0 -16 -6 -12 -22 11 -49 35 -204 35 -225 0 -18 -7 -23 -47 -29
-25 -4 -67 -3 -92 2 l-46 9 3 64 c2 36 9 92 17 125 8 33 12 62 10 65 -16 16
-140 -83 -128 -103 3 -6 2 -8 -2 -3 -5 4 -16 -5 -26 -19 l-17 -26 -17 25 c-23
35 -45 112 -45 156 0 125 91 247 214 287 56 19 157 10 214 -17z m2361 -221
l12 -33 17 33 c24 50 51 43 87 -23 29 -54 29 -55 10 -70 -11 -8 -25 -15 -32
-15 -6 0 -13 -12 -15 -27 -3 -27 -5 -28 -68 -28 -63 0 -65 1 -68 27 -2 16 -11
30 -22 33 -38 12 -40 29 -9 83 36 64 67 71 88 20z m-2039 -32 c0 -19 4 -37 9
-41 12 -7 22 24 16 53 -3 18 1 22 21 22 22 0 24 -4 24 -50 l0 -50 -49 0 c-54
0 -61 8 -61 66 0 27 4 34 20 34 16 0 20 -7 20 -34z m160 18 c0 -11 -6 -14 -20
-9 -11 4 -20 2 -20 -4 0 -6 4 -11 9 -11 5 0 15 -2 23 -5 7 -3 17 5 23 17 19
43 95 32 95 -13 0 -15 -7 -19 -31 -19 -18 0 -28 -4 -24 -10 4 -6 15 -8 26 -5
13 4 19 2 19 -9 0 -21 -63 -22 -81 0 -11 14 -13 14 -21 0 -12 -22 -78 -22 -78
0 0 11 6 14 23 9 l22 -6 -22 17 c-22 16 -30 44 -16 57 3 4 21 7 40 7 23 0 33
-5 33 -16z m190 2 c0 -8 -7 -16 -15 -20 -9 -3 -15 -18 -15 -36 0 -23 -4 -30
-20 -30 -17 0 -20 7 -20 50 l0 50 35 0 c23 0 35 -5 35 -14z m-674 -485 c24
-11 44 -22 44 -25 0 -3 -78 -6 -172 -6 -166 0 -171 1 -148 17 64 45 191 51
276 14z m6034 -24 c0 -2 -16 -43 -36 -93 -35 -88 -54 -121 -54 -95 0 7 -24 35
-52 63 -29 28 -48 53 -43 55 6 2 46 19 90 38 78 32 95 38 95 32z m-2360 -105
l0 -69 -35 -1 c-24 -1 -38 4 -44 17 -16 29 -2 61 30 68 22 4 29 11 29 29 0 13
5 24 10 24 6 0 10 -29 10 -68z m-3925 36 c3 -13 5 -61 3 -108 l-3 -85 -80 0
-80 0 -3 33 c-2 24 1 32 12 32 10 0 16 -9 16 -25 0 -24 3 -25 55 -25 l55 0 0
90 0 90 -55 0 c-52 0 -55 -1 -55 -25 0 -16 -6 -25 -15 -25 -15 0 -22 50 -8 63
3 4 39 7 79 7 68 0 74 -2 79 -22z m3605 13 c-34 -9 -37 -35 -5 -49 31 -14 41
-37 25 -57 -13 -16 -70 -21 -70 -7 0 5 13 7 29 4 39 -6 51 16 20 40 -49 37
-50 38 -39 58 7 13 20 20 38 19 l27 -1 -25 -7z m108 -43 c22 -22 13 -38 -19
-38 -36 0 -35 -21 2 -31 23 -7 23 -7 -4 -8 -20 -1 -30 5 -36 22 -17 47 25 87
57 55z m100 0 c14 -12 16 -78 2 -78 -5 0 -10 18 -10 41 0 33 -3 40 -17 37 -13
-2 -19 -14 -21 -41 -4 -52 -22 -47 -22 7 0 41 2 44 28 44 15 0 33 -5 40 -10z
m246 -4 c3 -9 6 -28 6 -44 0 -26 -3 -28 -32 -27 -26 2 -34 7 -36 24 -3 17 3
24 22 29 33 8 34 28 1 22 -13 -3 -22 -1 -19 3 9 15 52 10 58 -7z m192 -34 l2
-45 -7 40 c-8 53 -35 55 -39 3 -4 -51 -22 -49 -22 2 0 45 -26 58 -34 18 -3
-13 -7 -32 -9 -43 -3 -11 -5 1 -6 26 l-1 46 58 -1 57 -1 1 -45z m98 34 c11
-28 6 -34 -25 -34 -36 0 -35 -21 2 -31 24 -7 23 -7 -4 -8 -33 -1 -54 38 -37
70 13 23 55 25 64 3z m76 7 c0 -5 -9 -7 -20 -4 -27 7 -26 -11 2 -29 30 -20 18
-48 -19 -47 l-28 2 28 4 c33 5 34 16 5 35 -14 9 -19 20 -15 31 7 17 47 24 47
8z m50 -2 c-24 -10 -24 -11 -6 -24 10 -8 24 -16 29 -18 23 -7 -3 -37 -30 -36
-24 2 -25 2 -5 6 24 5 31 33 8 33 -8 0 -18 5 -21 10 -12 19 4 40 27 39 23 0
23 0 -2 -10z m111 -26 c8 -38 2 -47 -32 -51 -33 -4 -48 26 -23 45 10 7 24 13
32 13 7 0 10 5 6 11 -3 6 -15 9 -25 6 -11 -3 -16 -1 -13 5 3 5 15 8 27 6 15
-2 23 -13 28 -35z m103 -16 c-1 -26 -7 -53 -14 -62 -13 -15 -60 -21 -60 -7 0
4 12 8 27 7 17 0 29 6 31 15 2 11 -5 16 -24 15 -36 0 -52 26 -36 60 10 22 17
25 44 22 31 -3 32 -5 32 -50z m95 34 c13 -23 5 -31 -31 -31 -19 0 -28 -4 -25
-12 2 -7 16 -13 30 -13 16 1 23 -3 18 -8 -5 -5 -21 -7 -35 -3 -20 5 -26 13
-26 34 0 49 49 72 69 33z m-4913 -41 c30 0 54 -4 54 -10 0 -5 -24 -10 -54 -10
-47 0 -55 -3 -58 -20 -3 -19 -4 -19 -33 5 l-30 25 30 25 c29 24 30 24 33 5 3
-17 11 -20 58 -20z m1594 -650 c0 -5 -4 -10 -10 -10 -5 0 -10 5 -10 10 0 6 5
10 10 10 6 0 10 -4 10 -10z m50 -15 c0 -21 5 -25 30 -25 23 0 33 -6 40 -25 17
-46 -4 -75 -57 -75 l-33 0 0 75 c0 43 4 75 10 75 6 0 10 -11 10 -25z m350 1
c0 -19 6 -25 28 -28 25 -3 27 -7 30 -50 2 -29 -1 -48 -7 -48 -6 0 -11 18 -11
40 0 33 -3 40 -20 40 -17 0 -20 -7 -20 -40 0 -29 -4 -40 -15 -40 -12 0 -15 15
-15 75 0 60 3 75 15 75 9 0 15 -9 15 -24z m780 -51 c0 -43 -4 -75 -10 -75 -6
0 -10 32 -10 75 0 43 4 75 10 75 6 0 10 -32 10 -75z m460 -1 l0 -75 -47 3
c-46 3 -48 4 -51 36 -4 40 12 62 44 62 19 0 24 5 24 25 0 16 6 25 15 25 12 0
15 -15 15 -76z m100 51 c0 -21 5 -25 30 -25 24 0 33 -6 41 -26 15 -40 -11 -74
-56 -74 l-35 0 0 75 c0 43 4 75 10 75 6 0 10 -11 10 -25z m390 -4 c0 -25 3
-28 26 -23 32 6 44 -10 44 -60 0 -27 -4 -38 -15 -38 -11 0 -15 11 -15 41 0 33
-3 40 -17 37 -13 -2 -19 -14 -21 -41 -6 -67 -22 -39 -22 38 0 43 4 75 10 75 6
0 10 -13 10 -29z m290 19 c0 -5 -7 -10 -15 -10 -8 0 -15 5 -15 10 0 6 7 10 15
10 8 0 15 -4 15 -10z m230 -66 l0 -75 -47 3 c-46 3 -48 4 -51 36 -4 40 12 62
44 62 19 0 24 5 24 25 0 16 6 25 15 25 12 0 15 -15 15 -76z m610 1 l0 -75 -40
0 c-45 0 -66 25 -54 63 8 27 22 37 52 37 17 0 22 6 22 25 0 14 5 25 10 25 6 0
10 -32 10 -75z m740 33 c1 -38 2 -41 14 -25 7 9 21 17 31 17 16 0 16 -3 -5
-25 l-23 -25 23 -25 c27 -28 8 -36 -22 -8 -17 15 -18 15 -18 0 0 -10 -7 -17
-15 -17 -12 0 -15 15 -15 75 0 60 3 75 15 75 11 0 15 -12 15 -42z m-4731 6
c28 -35 26 -69 -4 -99 -56 -57 -150 0 -123 75 20 56 91 69 127 24z m169 14
c19 -19 14 -40 -20 -75 l-32 -33 31 0 c18 0 35 -4 38 -10 4 -6 -13 -10 -44
-10 -62 0 -66 14 -15 59 40 37 40 56 1 56 -27 -1 -33 5 -20 18 11 11 48 8 61
-5z m120 -13 c25 -55 2 -115 -43 -115 -28 0 -45 26 -45 70 0 47 16 70 49 70
20 0 31 -7 39 -25z m102 6 c14 -28 14 -30 -27 -67 l-37 -34 37 0 c20 0 37 -4
37 -10 0 -5 -20 -10 -45 -10 -55 0 -59 17 -15 57 17 14 30 35 30 46 0 16 -5
19 -30 14 -16 -4 -30 -3 -30 2 0 28 65 29 80 2z m110 9 c0 -5 -11 -10 -25 -10
-16 0 -25 -6 -25 -15 0 -8 9 -15 20 -15 18 0 40 -26 40 -49 0 -19 -32 -41 -61
-41 -16 0 -29 5 -29 10 0 6 14 10 30 10 25 0 30 4 30 25 0 20 -5 25 -24 25
-31 0 -36 8 -29 43 5 23 10 27 39 27 19 0 34 -4 34 -10z m104 -15 c3 -13 11
-37 17 -52 l11 -28 20 53 c10 28 25 52 33 52 9 0 6 -19 -14 -70 -30 -82 -45
-86 -71 -20 -31 79 -33 90 -17 90 8 0 18 -11 21 -25z m476 16 c0 -6 -15 -11
-32 -13 -38 -4 -61 -38 -49 -72 6 -15 18 -22 45 -24 46 -4 47 -22 1 -22 -67 0
-99 69 -53 117 22 23 88 33 88 14z m462 -8 c24 -22 24 -77 -2 -103 -13 -13
-33 -20 -60 -20 l-40 0 0 70 0 70 42 0 c24 0 49 -7 60 -17z m1278 7 c0 -5 -13
-10 -29 -10 -32 0 -61 -22 -61 -46 0 -34 20 -54 55 -54 19 0 35 -4 35 -10 0
-5 -18 -10 -39 -10 -30 0 -44 6 -55 22 -38 53 -5 118 59 118 19 0 35 -4 35
-10z m831 -6 c10 -12 10 -20 1 -35 -7 -10 -8 -19 -3 -19 15 0 22 -30 11 -51
-8 -14 -21 -19 -50 -19 l-40 0 0 70 0 70 34 0 c18 0 39 -7 47 -16z m-2301 -8
c0 -8 6 -17 13 -20 10 -5 10 -7 0 -12 -15 -7 -18 -64 -3 -64 6 0 10 -5 10 -11
0 -6 -10 -9 -22 -7 -19 2 -24 11 -29 48 -3 24 -4 53 -1 62 5 21 32 24 32 4z
m-620 -66 c0 -27 -4 -50 -10 -50 -5 0 -10 23 -10 50 0 28 5 50 10 50 6 0 10
-22 10 -50z m218 38 c7 -7 12 -20 12 -30 0 -14 -8 -18 -36 -18 -21 0 -33 -4
-29 -10 3 -5 17 -10 31 -10 13 0 24 -4 24 -10 0 -11 -39 -13 -64 -4 -19 7 -22
64 -4 82 7 7 21 12 33 12 12 0 26 -5 33 -12z m342 -7 c5 -11 10 -34 10 -51 0
-30 -1 -31 -42 -28 -36 2 -44 7 -46 26 -3 18 2 23 27 28 17 4 31 11 31 16 0 6
-11 8 -25 6 -14 -3 -25 -2 -25 2 0 26 56 27 70 1z m368 7 c7 -7 12 -20 12 -30
0 -14 -8 -18 -35 -18 -19 0 -35 -4 -35 -10 0 -5 14 -10 30 -10 17 0 30 -5 30
-11 0 -6 -16 -9 -37 -7 -31 2 -39 8 -47 30 -8 22 -6 32 9 48 20 22 55 26 73 8z
m52 -20 l13 -33 10 33 c5 17 16 32 23 32 18 0 18 0 -6 -55 -12 -27 -25 -45
-32 -43 -7 3 -21 26 -30 51 -14 38 -15 47 -4 47 8 0 20 -15 26 -32z m150 17
c19 -23 4 -45 -30 -45 -16 0 -30 -4 -30 -10 0 -5 14 -10 30 -10 17 0 30 -4 30
-10 0 -5 -16 -10 -35 -10 -35 0 -55 20 -55 54 0 39 65 61 90 31z m158 3 c7 -7
12 -24 12 -38 0 -33 -17 -50 -50 -50 -33 0 -50 17 -50 50 0 33 17 50 50 50 14
0 31 -5 38 -12z m119 1 c16 -14 17 -61 1 -77 -7 -7 -25 -12 -40 -12 -23 0 -28
-4 -28 -25 0 -14 -4 -25 -10 -25 -6 0 -10 31 -10 73 l0 74 37 1 c20 1 42 -3
50 -9z m112 -11 c11 -30 6 -38 -30 -38 -16 0 -29 -4 -29 -10 0 -5 14 -10 30
-10 17 0 30 -4 30 -10 0 -14 -64 -12 -78 2 -15 15 -15 43 -2 69 16 28 68 26
79 -3z m338 -10 l11 -33 13 33 c7 17 19 32 26 32 12 0 0 -42 -38 -122 -12 -27
-49 -40 -49 -18 0 6 7 10 15 10 9 0 15 9 15 24 0 13 -7 40 -15 59 -18 44 -18
47 -1 47 7 0 18 -15 23 -32z m441 -20 l3 -48 -39 0 c-28 0 -42 5 -46 16 -9 23
11 44 41 44 15 0 22 4 17 11 -3 6 -17 8 -30 5 -13 -4 -24 -3 -24 2 0 16 14 23
45 20 28 -3 30 -6 33 -50z m70 41 c-12 -7 -18 -22 -18 -49 0 -29 -4 -40 -15
-40 -11 0 -15 12 -15 50 0 50 0 50 33 50 26 -1 29 -2 15 -11z m52 -39 c0 -38
-4 -50 -15 -50 -11 0 -15 12 -15 50 0 38 4 50 15 50 11 0 15 -12 15 -50z m108
-2 c2 -29 -1 -48 -7 -48 -6 0 -11 16 -11 35 0 23 -6 38 -16 42 -20 7 -34 -13
-34 -49 0 -16 -4 -28 -10 -28 -5 0 -10 23 -10 51 l0 50 43 -3 42 -3 3 -47z
m162 25 c0 -37 14 -57 34 -50 10 4 16 19 16 42 0 19 5 35 10 35 6 0 10 -23 10
-51 l0 -50 -42 3 -43 3 -3 48 c-2 28 1 47 7 47 6 0 11 -12 11 -27z m340 8 c5
-11 10 -34 10 -51 0 -30 -1 -31 -42 -28 -36 2 -44 7 -46 26 -3 18 2 23 27 28
17 4 31 11 31 16 0 6 -11 8 -25 6 -14 -3 -25 -2 -25 2 0 26 56 27 70 1z m108
7 c18 -18 16 -88 -3 -88 -11 0 -15 11 -15 41 0 33 -3 40 -17 37 -13 -2 -19
-14 -21 -41 -5 -55 -22 -45 -22 13 0 50 0 50 33 50 18 0 38 -5 45 -12z m220 0
c7 -7 12 -29 12 -51 l0 -38 -42 3 c-36 2 -44 7 -46 26 -3 18 2 23 27 28 17 4
31 11 31 16 0 6 -11 8 -25 6 -24 -5 -32 2 -18 15 11 11 48 8 61 -5z m82 5
c-22 -9 -30 -24 -30 -60 0 -18 -4 -33 -10 -33 -5 0 -10 23 -10 50 0 50 0 50
33 49 17 0 25 -3 17 -6z m88 -5 c7 -7 12 -29 12 -51 l0 -38 -42 3 c-36 2 -44
7 -46 26 -3 18 2 23 27 28 17 4 31 11 31 16 0 6 -11 8 -25 6 -24 -5 -32 2 -18
15 11 11 48 8 61 -5z m120 -40 c2 -29 -1 -48 -7 -48 -6 0 -11 16 -11 35 0 23
-6 38 -15 42 -22 8 -30 -3 -30 -39 0 -17 -6 -33 -12 -35 -9 -3 -13 10 -13 47
l0 51 43 -3 42 -3 3 -47z m100 0 l3 -48 -39 0 c-26 0 -42 5 -46 15 -7 19 19
45 45 45 12 0 17 4 13 11 -3 6 -17 8 -30 5 -13 -4 -24 -3 -24 2 0 16 14 23 45
20 28 -3 30 -6 33 -50z m52 20 l11 -33 14 33 c16 37 40 45 29 10 -23 -74 -54
-128 -73 -128 -12 0 -21 5 -21 10 0 6 6 10 14 10 24 0 26 29 6 80 -16 40 -17
50 -6 50 8 0 19 -15 26 -32z m148 -20 l3 -48 -40 0 c-22 0 -41 5 -44 13 -8 22
13 47 39 47 15 0 23 4 18 11 -3 6 -17 8 -30 5 -13 -4 -24 -3 -24 2 0 16 14 23
45 20 28 -3 30 -6 33 -50z m200 40 c7 -7 12 -20 12 -30 0 -14 -8 -18 -36 -18
-21 0 -33 -4 -29 -10 3 -5 17 -10 31 -10 13 0 24 -5 24 -11 0 -6 -16 -9 -37
-7 -35 3 -38 6 -41 36 -2 18 2 40 9 48 14 17 51 18 67 2z m52 -78 c0 -5 -7
-10 -15 -10 -8 0 -15 5 -15 10 0 6 7 10 15 10 8 0 15 -4 15 -10z"/>
<path d="M4594 7085 c0 -65 2 -75 17 -75 13 0 19 10 21 37 4 52 28 56 28 4 0
-35 3 -41 21 -41 19 0 20 4 15 41 -7 52 -12 59 -42 59 -19 0 -24 5 -24 25 0
17 -5 25 -18 25 -15 0 -18 -10 -18 -75z"/>
<path d="M4900 7145 c0 -10 7 -15 18 -13 21 4 19 22 -2 26 -10 2 -16 -3 -16
-13z"/>
<path d="M5150 7135 c0 -20 -5 -25 -25 -25 -35 0 -62 -42 -47 -75 10 -21 18
-24 57 -23 l45 1 0 73 c0 59 -3 74 -15 74 -9 0 -15 -9 -15 -25z m-5 -55 c8
-13 -4 -50 -16 -50 -13 0 -22 27 -15 45 6 17 22 20 31 5z"/>
<path d="M4491 7132 c-28 -22 -31 -75 -6 -103 21 -22 85 -24 93 -2 2 9 -5 11
-27 7 -26 -5 -32 -3 -42 20 -10 20 -10 32 0 52 10 22 16 25 41 20 22 -4 30 -2
30 9 0 21 -62 19 -89 -3z"/>
<path d="M4207 7133 c19 -4 23 -12 26 -66 l3 -62 2 62 c2 55 4 62 25 66 12 2
0 4 -28 4 -27 0 -40 -2 -28 -4z"/>
<path d="M4720 7095 c0 -8 6 -12 15 -9 8 3 20 2 27 -2 9 -6 4 -10 -17 -14 -24
-4 -30 -10 -30 -30 0 -22 4 -25 43 -27 l42 -2 0 38 c0 20 -5 42 -12 49 -17 17
-68 15 -68 -3z m45 -55 c-3 -5 -10 -10 -16 -10 -5 0 -9 5 -9 10 0 6 7 10 16
10 8 0 12 -4 9 -10z"/>
<path d="M4820 7060 c0 -43 3 -50 20 -50 16 0 20 7 20 35 0 24 5 35 15 35 8 0
15 7 15 15 0 10 -11 15 -35 15 l-35 0 0 -50z"/>
<path d="M4900 7060 c0 -43 3 -50 20 -50 17 0 20 7 20 50 0 43 -3 50 -20 50
-17 0 -20 -7 -20 -50z"/>
<path d="M4960 7061 c0 -43 3 -51 19 -51 15 0 19 6 17 30 -1 17 1 35 5 41 12
20 29 -1 29 -37 0 -24 4 -34 16 -34 12 0 14 10 12 48 l-3 47 -47 3 -48 3 0
-50z"/>
<path d="M5200 7071 c0 -47 13 -59 63 -59 l37 0 0 49 c0 36 -4 49 -14 49 -10
0 -16 -13 -18 -37 -4 -52 -28 -56 -28 -4 0 34 -3 41 -20 41 -17 0 -20 -7 -20
-39z"/>
<path d="M4278 7074 c-14 -31 -1 -57 31 -62 28 -4 51 14 51 42 0 50 -62 65
-82 20z m57 -19 c0 -23 -4 -30 -20 -30 -21 0 -31 25 -21 51 11 28 41 12 41
-21z"/>
<path d="M3486 6934 c-35 -36 -37 -101 -3 -132 28 -26 78 -38 104 -24 15 9 25
4 55 -26 30 -28 41 -33 50 -24 9 9 4 20 -24 50 -30 30 -35 40 -26 55 14 26 2
76 -24 104 -31 34 -96 32 -132 -3z m106 -21 c39 -35 13 -103 -39 -103 -57 0
-82 61 -43 100 24 24 57 26 82 3z"/>
<path d="M863 6843 c-22 -8 -14 -23 13 -23 15 0 24 5 22 12 -5 14 -18 18 -35
11z"/>
<path d="M960 6800 c-12 -7 -12 -12 -3 -21 9 -9 16 -9 27 1 26 21 5 39 -24 20z"/>
<path d="M4378 6614 c-12 -11 -10 -84 2 -84 6 0 10 5 10 11 0 5 5 7 10 4 6 -4
10 -3 9 2 -7 40 14 43 30 5 10 -25 16 -27 51 -24 46 5 49 15 17 56 -18 23 -33
30 -73 33 -27 3 -52 1 -56 -3z"/>
<path d="M4360 6510 c0 -5 5 -10 11 -10 5 0 7 5 4 10 -3 6 -8 10 -11 10 -2 0
-4 -4 -4 -10z"/>
<path d="M4495 6500 c-3 -6 1 -7 9 -4 18 7 21 14 7 14 -6 0 -13 -4 -16 -10z"/>
<path d="M4445 6470 c-3 -5 -1 -10 4 -10 6 0 11 5 11 10 0 6 -2 10 -4 10 -3 0
-8 -4 -11 -10z"/>
<path d="M4413 6425 c2 -5 14 -10 27 -10 13 0 25 5 27 10 2 6 -10 10 -27 10
-16 0 -28 -4 -27 -10z"/>
<path d="M875 5773 c-30 -8 -45 -23 -45 -45 0 -15 5 -19 20 -15 18 5 26 -7 21
-35 0 -5 11 -8 25 -8 21 0 24 -3 19 -21 -6 -19 -4 -21 14 -16 18 4 20 3 10 -9
-6 -8 -9 -18 -5 -22 4 -4 14 2 22 12 8 11 14 16 14 12 0 -5 6 -3 14 3 25 21
12 75 -26 115 -34 35 -43 39 -83 29z"/>
<path d="M830 5643 c0 -10 7 -27 15 -37 12 -16 18 -17 27 -8 9 9 8 12 -5 12
-10 0 -17 8 -17 19 0 11 -4 23 -10 26 -5 3 -10 -2 -10 -12z"/>
<path d="M870 5651 c0 -6 5 -13 10 -16 6 -3 10 1 10 9 0 9 -4 16 -10 16 -5 0
-10 -4 -10 -9z"/>
<path d="M878 5562 c-16 -2 -28 -10 -28 -18 0 -18 21 -18 46 0 23 17 18 23
-18 18z"/>
<path d="M4378 5764 c-12 -11 -10 -84 2 -84 6 0 10 5 10 11 0 5 5 7 10 4 6 -4
10 -3 9 2 -7 40 14 43 30 5 10 -25 16 -27 51 -24 46 5 49 15 17 56 -18 23 -33
30 -73 33 -27 3 -52 1 -56 -3z"/>
<path d="M4495 5650 c-3 -6 1 -7 9 -4 18 7 21 14 7 14 -6 0 -13 -4 -16 -10z"/>
<path d="M4445 5620 c-3 -5 -1 -10 4 -10 6 0 11 5 11 10 0 6 -2 10 -4 10 -3 0
-8 -4 -11 -10z"/>
<path d="M4413 5575 c2 -5 14 -10 27 -10 13 0 25 5 27 10 2 6 -10 10 -27 10
-16 0 -28 -4 -27 -10z"/>
<path d="M1860 5620 c0 -51 12 -64 38 -38 26 26 8 88 -25 88 -9 0 -13 -16 -13
-50z"/>
<path d="M5880 5600 c0 -28 2 -30 41 -30 l41 0 -32 30 c-18 17 -36 30 -41 30
-5 0 -9 -13 -9 -30z"/>
<path d="M1444 5616 c-8 -21 3 -49 16 -41 5 3 10 15 10 25 0 25 -18 36 -26 16z"/>
<path d="M2004 5615 c-7 -18 2 -45 15 -45 13 0 22 27 15 45 -4 8 -10 15 -15
15 -5 0 -12 -7 -15 -15z"/>
<path d="M2125 5620 c-3 -5 1 -10 10 -10 9 0 13 5 10 10 -3 6 -8 10 -10 10 -2
0 -7 -4 -10 -10z"/>
<path d="M5215 5620 c-4 -6 5 -10 20 -10 15 0 24 4 20 10 -3 6 -12 10 -20 10
-8 0 -17 -4 -20 -10z"/>
<path d="M5765 5580 c-3 -5 3 -10 14 -10 12 0 21 5 21 10 0 6 -6 10 -14 10 -8
0 -18 -4 -21 -10z"/>
<path d="M6198 5613 c-7 -27 1 -43 22 -43 20 0 32 23 24 45 -8 21 -41 19 -46
-2z"/>
<path d="M827 5083 c-10 -10 -8 -45 2 -39 14 9 61 -18 61 -36 0 -9 9 -23 20
-31 13 -9 18 -20 14 -31 -5 -12 -2 -15 10 -10 11 4 15 12 10 23 -4 9 -7 24 -8
34 0 9 -4 17 -7 17 -4 0 -10 8 -13 18 -14 43 -68 77 -89 55z"/>
<path d="M855 5010 c3 -5 10 -10 16 -10 5 0 9 5 9 10 0 6 -7 10 -16 10 -8 0
-12 -4 -9 -10z"/>
<path d="M964 4988 l-19 -23 23 19 c21 18 27 26 19 26 -2 0 -12 -10 -23 -22z"/>
<path d="M811 4988 c0 -7 4 -22 8 -32 8 -20 8 -20 13 0 3 11 -1 25 -9 32 -10
10 -13 10 -12 0z"/>
<path d="M850 4980 c0 -5 5 -10 10 -10 6 0 10 5 10 10 0 6 -4 10 -10 10 -5 0
-10 -4 -10 -10z"/>
<path d="M837 4933 c-13 -12 -7 -23 12 -23 10 0 21 7 25 15 5 15 -24 22 -37 8z"/>
<path d="M848 4883 c-16 -4 -27 -33 -13 -33 10 0 65 30 65 35 0 6 -27 5 -52
-2z"/>
<path d="M6730 4832 c0 -18 10 -22 58 -23 12 -1 22 -5 22 -10 0 -5 5 -9 10 -9
26 0 6 30 -30 44 -52 20 -60 20 -60 -2z"/>
<path d="M6691 4823 c0 -4 4 -17 9 -28 8 -19 9 -19 9 2 1 12 -3 25 -9 28 -5 3
-10 3 -9 -2z"/>
<path d="M6790 4780 c0 -5 7 -10 16 -10 8 0 12 5 9 10 -3 6 -10 10 -16 10 -5
0 -9 -4 -9 -10z"/>
<path d="M6720 4770 c-9 -6 -10 -10 -3 -10 6 0 15 5 18 10 8 12 4 12 -15 0z"/>
<path d="M3318 4953 c7 -3 16 -2 19 1 4 3 -2 6 -13 5 -11 0 -14 -3 -6 -6z"/>
<path d="M1360 4890 c0 -55 11 -63 35 -26 16 23 11 54 -9 68 -21 15 -26 7 -26
-42z"/>
<path d="M1490 4849 c0 -5 5 -7 10 -4 6 3 10 8 10 11 0 2 -4 4 -10 4 -5 0 -10
-5 -10 -11z"/>
<path d="M1070 4410 c-40 -40 -11 -110 45 -110 57 0 88 83 43 114 -31 22 -64
20 -88 -4z m69 -25 c5 2 8 -6 7 -18 -1 -13 -7 -21 -15 -19 -8 2 -18 -3 -24
-10 -6 -9 -7 -8 -3 6 5 14 2 17 -9 12 -10 -3 -13 -2 -10 5 4 6 14 8 22 4 13
-4 13 -3 4 9 -9 11 -9 15 1 19 7 2 15 0 16 -5 2 -4 7 -6 11 -3z"/>
<path d="M821 4361 c-13 -24 -2 -93 13 -83 6 3 14 7 18 7 3 0 10 4 15 9 5 5 3
6 -4 2 -17 -10 -16 9 1 23 10 9 17 6 30 -13 9 -14 16 -30 16 -35 0 -5 19 -7
42 -3 l42 5 -17 -26 c-11 -17 -12 -25 -4 -22 7 3 18 19 26 36 12 29 11 33 -16
67 -32 39 -55 49 -115 51 -27 1 -40 -4 -47 -18z"/>
<path d="M806 4245 c-3 -9 0 -15 9 -15 9 0 12 6 9 15 -4 8 -7 15 -9 15 -2 0
-5 -7 -9 -15z"/>
<path d="M3315 4227 c-83 -83 -33 -210 81 -210 116 0 165 132 80 210 -30 27
-44 33 -82 33 -39 0 -51 -5 -79 -33z m125 -47 c24 -24 25 -48 4 -78 -22 -32
-83 -28 -100 7 -13 26 -3 69 19 83 22 14 57 8 77 -12z"/>
<path d="M3378 4146 c-6 -31 5 -51 25 -43 21 8 17 61 -4 65 -11 2 -18 -6 -21
-22z m32 10 c0 -3 -4 -8 -10 -11 -5 -3 -10 -1 -10 4 0 6 5 11 10 11 6 0 10 -2
10 -4z m0 -30 c0 -3 -4 -8 -10 -11 -5 -3 -10 -1 -10 4 0 6 5 11 10 11 6 0 10
-2 10 -4z"/>
<path d="M905 4200 c-3 -5 -2 -10 4 -10 5 0 13 5 16 10 3 6 2 10 -4 10 -5 0
-13 -4 -16 -10z"/>
<path d="M860 4148 c0 -9 34 -28 49 -28 6 0 15 8 20 18 8 15 4 17 -30 17 -21
0 -39 -3 -39 -7z"/>
<path d="M953 4109 c3 -13 13 -71 22 -129 10 -58 18 -106 20 -108 6 -7 91 52
118 82 51 57 51 61 4 101 -52 45 -82 61 -131 71 -37 6 -39 6 -33 -17z"/>
<path d="M769 4088 c-23 -18 -55 -52 -72 -76 l-31 -43 29 -28 c17 -15 46 -38
66 -50 l37 -21 7 62 c4 35 10 79 15 98 21 89 21 90 6 90 -8 0 -33 -15 -57 -32z"/>
<path d="M6733 3982 c-1 -18 8 -22 55 -23 12 -1 22 -5 22 -10 0 -5 5 -9 10 -9
26 0 6 30 -30 44 -51 20 -55 20 -57 -2z"/>
<path d="M6691 3973 c0 -4 4 -17 9 -28 8 -19 9 -19 9 2 1 12 -3 25 -9 28 -5 3
-10 3 -9 -2z"/>
<path d="M6785 3930 c-3 -5 3 -10 15 -10 12 0 18 5 15 10 -3 6 -10 10 -15 10
-5 0 -12 -4 -15 -10z"/>
<path d="M6720 3920 c-9 -6 -10 -10 -3 -10 6 0 15 5 18 10 8 12 4 12 -15 0z"/>
<path d="M860 3635 c-7 -8 -21 -15 -32 -15 -25 0 -33 -24 -19 -59 10 -23 17
-27 39 -23 22 4 23 6 8 12 -17 6 -17 7 -1 20 15 13 19 12 35 -8 10 -12 27 -22
38 -22 13 0 22 -8 24 -21 4 -28 47 -47 45 -20 -1 11 -7 17 -14 14 -7 -3 -13 0
-13 6 0 6 7 11 15 11 43 0 -12 88 -68 109 -37 14 -42 14 -57 -4z"/>
<path d="M850 3520 c0 -5 5 -10 10 -10 6 0 10 5 10 10 0 6 -4 10 -10 10 -5 0
-10 -4 -10 -10z"/>
<path d="M910 3520 c0 -5 5 -10 10 -10 6 0 10 5 10 10 0 6 -4 10 -10 10 -5 0
-10 -4 -10 -10z"/>
<path d="M880 3495 c0 -14 5 -25 10 -25 6 0 10 11 10 25 0 14 -4 25 -10 25 -5
0 -10 -11 -10 -25z"/>
<path d="M810 3496 c0 -9 5 -16 10 -16 6 0 10 4 10 9 0 6 -4 13 -10 16 -5 3
-10 -1 -10 -9z"/>
<path d="M900 3450 c0 -5 4 -10 9 -10 6 0 13 5 16 10 3 6 -1 10 -9 10 -9 0
-16 -4 -16 -10z"/>
<path d="M920 3410 c-8 -5 -23 -7 -34 -4 -13 4 -17 2 -14 -7 7 -21 57 -24 64
-4 8 21 2 26 -16 15z"/>
<path d="M1494 3435 c-8 -20 3 -48 16 -40 13 8 13 55 0 55 -6 0 -13 -7 -16
-15z"/>
<path d="M1610 3399 c0 -5 5 -7 10 -4 6 3 10 8 10 11 0 2 -4 4 -10 4 -5 0 -10
-5 -10 -11z"/>
<path d="M4378 3214 c-12 -11 -10 -84 2 -84 6 0 10 5 10 11 0 5 5 7 10 4 6 -4
10 -3 9 2 -7 40 14 43 30 5 10 -25 16 -27 51 -24 46 5 49 15 17 56 -18 23 -33
30 -73 33 -27 3 -52 1 -56 -3z"/>
<path d="M4495 3100 c-3 -6 1 -7 9 -4 18 7 21 14 7 14 -6 0 -13 -4 -16 -10z"/>
<path d="M4445 3070 c-3 -5 -1 -10 4 -10 6 0 11 5 11 10 0 6 -2 10 -4 10 -3 0
-8 -4 -11 -10z"/>
<path d="M4413 3025 c2 -5 14 -10 27 -10 13 0 25 5 27 10 2 6 -10 10 -27 10
-16 0 -28 -4 -27 -10z"/>
<path d="M5185 3070 c-4 -6 5 -10 20 -10 15 0 24 4 20 10 -3 6 -12 10 -20 10
-8 0 -17 -4 -20 -10z"/>
<path d="M5554 3066 c-10 -26 4 -48 28 -44 17 2 23 10 23 28 0 18 -6 26 -23
28 -13 2 -25 -3 -28 -12z"/>
<path d="M5870 3030 c0 -5 7 -10 15 -10 8 0 15 5 15 10 0 6 -7 10 -15 10 -8 0
-15 -4 -15 -10z"/>
<path d="M6045 3070 c-3 -5 3 -10 14 -10 12 0 21 5 21 10 0 6 -6 10 -14 10 -8
0 -18 -4 -21 -10z"/>
<path d="M6297 3066 c-10 -26 4 -47 27 -44 15 2 21 10 21 28 0 29 -38 41 -48
16z"/>
<path d="M821 2911 c-6 -10 -7 -35 -4 -56 l6 -37 25 32 25 32 18 -23 c10 -13
19 -29 19 -36 0 -7 14 -9 41 -6 l41 6 -17 -27 c-13 -19 -14 -25 -4 -21 8 3 20
19 28 35 12 28 11 33 -14 66 -31 40 -60 54 -115 54 -28 0 -42 -5 -49 -19z"/>
<path d="M806 2795 c-3 -9 0 -15 9 -15 9 0 12 6 9 15 -4 8 -7 15 -9 15 -2 0
-5 -7 -9 -15z"/>
<path d="M905 2750 c-3 -5 -2 -10 4 -10 5 0 13 5 16 10 3 6 2 10 -4 10 -5 0
-13 -4 -16 -10z"/>
<path d="M860 2698 c0 -13 38 -28 54 -22 32 12 24 29 -15 29 -22 0 -39 -3 -39
-7z"/>
<path d="M3393 2682 c-6 -4 -13 -18 -17 -32 -6 -25 -6 -25 5 -2 7 12 15 22 19
22 4 0 12 -10 17 -22 10 -22 11 -22 9 4 -1 29 -15 41 -33 30z"/>
<path d="M1560 2720 c0 -5 5 -10 10 -10 6 0 10 5 10 10 0 6 -4 10 -10 10 -5 0
-10 -4 -10 -10z"/>
<path d="M6937 2172 l-58 -27 28 -17 c28 -17 28 -17 73 25 l45 42 -42 -45 -43
-45 19 -28 18 -28 27 66 c38 94 29 101 -67 57z"/>
<path d="M4634 2116 c-10 -26 0 -51 21 -51 16 0 20 7 20 30 0 33 -30 49 -41
21z"/>
<path d="M4447 2123 c-14 -13 -6 -23 18 -23 18 0 23 4 19 15 -6 16 -26 20 -37
8z"/>
<path d="M4793 2093 c-7 -2 -13 -11 -13 -20 0 -20 34 -12 38 10 3 17 -3 20
-25 10z"/>
<path d="M5077 2123 c-14 -13 -6 -23 18 -23 18 0 23 4 19 15 -6 16 -26 20 -37
8z"/>
<path d="M5313 2085 c-3 -9 -3 -18 0 -22 10 -10 37 6 37 22 0 20 -29 20 -37 0z"/>
<path d="M5404 2116 c-10 -26 0 -51 21 -51 16 0 20 7 20 30 0 33 -30 49 -41
21z"/>
<path d="M5507 2115 c-5 -11 0 -15 19 -15 16 0 24 5 22 13 -7 18 -35 20 -41 2z"/>
<path d="M2294 1356 c-9 -24 4 -48 23 -44 24 4 24 52 0 56 -9 2 -20 -4 -23
-12z"/>
<path d="M3804 1355 c-9 -23 4 -47 23 -43 11 2 19 14 21 31 3 22 -1 27 -18 27
-11 0 -23 -7 -26 -15z"/>
<path d="M3984 1356 c-9 -24 4 -48 23 -44 12 2 18 12 18 28 0 29 -32 41 -41
16z"/>
<path d="M4814 1355 c-9 -23 4 -47 23 -43 11 2 19 14 21 31 3 22 -1 27 -18 27
-11 0 -23 -7 -26 -15z"/>
<path d="M5434 1356 c-9 -24 4 -48 23 -44 12 2 18 12 18 28 0 29 -32 41 -41
16z"/>
<path d="M1410 1400 c-22 -22 -25 -42 -9 -71 20 -39 77 -41 101 -5 16 23 8 65
-14 80 -30 21 -54 20 -78 -4z m70 -10 c0 -5 -11 -10 -25 -10 -20 0 -25 -5 -25
-25 0 -24 9 -30 38 -26 6 1 12 -3 12 -9 0 -11 -29 -13 -54 -4 -19 7 -21 55 -4
72 15 15 58 16 58 2z"/>
<path d="M1735 1381 c-9 -40 2 -73 23 -69 24 5 24 91 0 96 -11 2 -18 -6 -23
-27z"/>
<path d="M2980 1360 c0 -47 2 -50 25 -50 34 0 53 39 37 75 -8 17 -20 25 -37
25 -23 0 -25 -3 -25 -50z"/>
<path d="M5110 1389 c0 -24 23 -21 28 4 2 10 -3 17 -12 17 -10 0 -16 -9 -16
-21z"/>
<path d="M5110 1330 c0 -13 7 -20 20 -20 13 0 20 7 20 20 0 13 -7 20 -20 20
-13 0 -20 -7 -20 -20z"/>
<path d="M2405 1360 c-4 -6 5 -10 20 -10 15 0 24 4 20 10 -3 6 -12 10 -20 10
-8 0 -17 -4 -20 -10z"/>
<path d="M2745 1320 c-3 -5 3 -10 14 -10 12 0 21 5 21 10 0 6 -6 10 -14 10 -8
0 -18 -4 -21 -10z"/>
<path d="M3115 1360 c-3 -5 3 -10 14 -10 12 0 21 5 21 10 0 6 -6 10 -14 10 -8
0 -18 -4 -21 -10z"/>
<path d="M3310 1360 c0 -5 9 -10 20 -10 11 0 20 5 20 10 0 6 -9 10 -20 10 -11
0 -20 -4 -20 -10z"/>
<path d="M3464 1356 c-10 -26 4 -48 28 -44 17 2 23 10 23 28 0 18 -6 26 -23
28 -13 2 -25 -3 -28 -12z"/>
<path d="M3586 1355 c-8 -22 4 -45 24 -45 20 0 32 23 24 45 -4 8 -14 15 -24
15 -10 0 -20 -7 -24 -15z"/>
<path d="M3700 1360 c0 -5 9 -10 20 -10 11 0 20 5 20 10 0 6 -9 10 -20 10 -11
0 -20 -4 -20 -10z"/>
<path d="M4480 1320 c0 -5 6 -10 14 -10 8 0 18 5 21 10 3 6 -3 10 -14 10 -12
0 -21 -4 -21 -10z"/>
<path d="M5215 1320 c-3 -5 3 -10 14 -10 12 0 21 5 21 10 0 6 -6 10 -14 10 -8
0 -18 -4 -21 -10z"/>
<path d="M5545 1320 c-3 -5 3 -10 14 -10 12 0 21 5 21 10 0 6 -6 10 -14 10 -8
0 -18 -4 -21 -10z"/>
<path d="M5715 1320 c-3 -5 3 -10 14 -10 12 0 21 5 21 10 0 6 -6 10 -14 10 -8
0 -18 -4 -21 -10z"/>
<path d="M5930 1320 c0 -5 6 -10 14 -10 8 0 18 5 21 10 3 6 -3 10 -14 10 -12
0 -21 -4 -21 -10z"/>
<path d="M6130 1320 c0 -5 6 -10 14 -10 8 0 18 5 21 10 3 6 -3 10 -14 10 -12
0 -21 -4 -21 -10z"/>
<path d="M6335 1360 c-3 -5 3 -10 14 -10 12 0 21 5 21 10 0 6 -6 10 -14 10 -8
0 -18 -4 -21 -10z"/>
</g>
</svg>
